<?xml version="1.0" encoding="UTF-8"?><svg id="a" xmlns="http://www.w3.org/2000/svg" viewBox="0 0 320 320"><rect x="68.347" y="223.101" width="183.32" height="96.899" fill="#fff" stroke-width="0"/><circle cx="95.68" cy="251.17" r="12.517" fill="#fff" stroke-width="0"/><path d="M95.68,264.686c-7.453,0-13.517-6.063-13.517-13.517s6.063-13.517,13.517-13.517,13.517,6.063,13.517,13.517-6.063,13.517-13.517,13.517ZM95.68,239.653c-6.351,0-11.517,5.166-11.517,11.517s5.166,11.517,11.517,11.517,11.517-5.166,11.517-11.517-5.166-11.517-11.517-11.517Z" fill="#ccc" stroke-width="0"/><rect x="91.78" y="237.836" width="7.801" height="26.667" rx="3.9" ry="3.9" transform="translate(205.628 5.91) rotate(45)" fill="#fff" stroke-width="0"/><path d="M89.01,262.739c-1.256,0-2.511-.479-3.466-1.434h0c-1.909-1.91-1.909-5.02,0-6.93l13.341-13.341c.926-.926,2.156-1.436,3.465-1.436s2.54.51,3.466,1.436c1.909,1.91,1.909,5.02,0,6.93l-13.341,13.341c-.955.955-2.21,1.434-3.465,1.434ZM86.959,259.891c1.13,1.13,2.971,1.132,4.103,0l13.341-13.341c1.13-1.131,1.13-2.971,0-4.102-1.096-1.095-3.007-1.097-4.103,0l-13.341,13.341c-1.13,1.131-1.13,2.971,0,4.102h0Z" fill="#ccc" stroke-width="0"/><circle cx="138.565" cy="251.17" r="12.517" fill="#fff" stroke-width="0"/><path d="M138.565,264.686c-7.453,0-13.517-6.063-13.517-13.517s6.063-13.517,13.517-13.517,13.517,6.063,13.517,13.517-6.063,13.517-13.517,13.517ZM138.565,239.653c-6.351,0-11.517,5.166-11.517,11.517s5.166,11.517,11.517,11.517,11.517-5.166,11.517-11.517-5.166-11.517-11.517-11.517Z" fill="#ccc" stroke-width="0"/><rect x="134.664" y="237.836" width="7.801" height="26.667" rx="3.9" ry="3.9" transform="translate(218.189 -24.414) rotate(45)" fill="#fff" stroke-width="0"/><path d="M131.894,262.741c-1.309,0-2.539-.51-3.465-1.436s-1.436-2.156-1.436-3.465.51-2.539,1.436-3.465l13.341-13.341c.926-.926,2.156-1.436,3.465-1.436s2.54.51,3.465,1.436c1.91,1.91,1.91,5.02,0,6.93l-13.341,13.341c-.925.926-2.155,1.436-3.465,1.436ZM145.235,241.599c-.774,0-1.503.302-2.051.85l-13.341,13.341c-.548.548-.85,1.276-.85,2.051s.302,1.503.85,2.051c1.096,1.097,3.006,1.095,4.102,0l13.341-13.341c.548-.548.85-1.276.85-2.051s-.302-1.503-.85-2.051-1.275-.85-2.051-.85Z" fill="#ccc" stroke-width="0"/><circle cx="181.449" cy="251.17" r="12.517" fill="#fff" stroke-width="0"/><path d="M181.449,264.686c-7.453,0-13.517-6.063-13.517-13.517s6.063-13.517,13.517-13.517,13.517,6.063,13.517,13.517-6.063,13.517-13.517,13.517ZM181.449,239.653c-6.351,0-11.517,5.166-11.517,11.517s5.166,11.517,11.517,11.517,11.517-5.166,11.517-11.517-5.166-11.517-11.517-11.517Z" fill="#ccc" stroke-width="0"/><rect x="177.549" y="237.836" width="7.801" height="26.667" rx="3.9" ry="3.9" transform="translate(230.749 -54.738) rotate(45)" fill="#fff" stroke-width="0"/><path d="M174.779,262.741c-1.31,0-2.54-.51-3.465-1.436h0c-.926-.926-1.436-2.156-1.436-3.465s.51-2.539,1.436-3.465l13.341-13.341c.925-.926,2.155-1.436,3.465-1.436s2.539.51,3.465,1.436c1.91,1.91,1.91,5.02,0,6.93l-13.341,13.341c-.926.926-2.156,1.436-3.465,1.436ZM188.12,241.599c-.775,0-1.503.302-2.051.85l-13.341,13.341c-.548.548-.85,1.276-.85,2.051s.302,1.503.85,2.051h0c1.095,1.095,3.005,1.097,4.102,0l13.341-13.341c.548-.548.85-1.276.85-2.051s-.302-1.503-.85-2.051-1.276-.85-2.051-.85Z" fill="#ccc" stroke-width="0"/><circle cx="224.333" cy="251.17" r="12.517" fill="#fff" stroke-width="0"/><path d="M224.334,264.686c-7.453,0-13.517-6.063-13.517-13.517s6.063-13.517,13.517-13.517,13.517,6.063,13.517,13.517-6.063,13.517-13.517,13.517ZM224.334,239.653c-6.351,0-11.517,5.166-11.517,11.517s5.166,11.517,11.517,11.517,11.517-5.166,11.517-11.517-5.166-11.517-11.517-11.517Z" fill="#ccc" stroke-width="0"/><rect x="220.433" y="237.836" width="7.801" height="26.667" rx="3.9" ry="3.9" transform="translate(243.309 -85.062) rotate(45)" fill="#fff" stroke-width="0"/><path d="M217.663,262.741c-1.309,0-2.539-.51-3.465-1.436-1.91-1.91-1.91-5.02,0-6.93l13.341-13.341c.926-.926,2.156-1.436,3.465-1.436s2.54.51,3.465,1.436c.926.926,1.436,2.156,1.436,3.465s-.51,2.539-1.436,3.465l-13.341,13.341c-.925.926-2.155,1.436-3.465,1.436ZM231.003,241.599c-.774,0-1.503.302-2.051.85l-13.341,13.341c-1.131,1.131-1.131,2.971,0,4.102,1.097,1.097,3.007,1.095,4.102,0l13.341-13.341c.548-.548.85-1.276.85-2.051s-.302-1.503-.85-2.051-1.275-.85-2.051-.85Z" fill="#ccc" stroke-width="0"/><rect x="87.948" y="291.046" width="144.117" height="12.082" rx="4.335" ry="4.335" fill="#fff" stroke-width="0"/><path d="M227.73,304.129H92.283c-2.941,0-5.334-2.394-5.334-5.335v-3.413c0-2.941,2.393-5.334,5.334-5.334h135.447c2.941,0,5.335,2.393,5.335,5.334v3.413c0,2.941-2.394,5.335-5.335,5.335ZM92.283,292.046c-1.838,0-3.334,1.496-3.334,3.334v3.413c0,1.839,1.496,3.335,3.334,3.335h135.447c1.839,0,3.335-1.496,3.335-3.335v-3.413c0-1.838-1.496-3.334-3.335-3.334H92.283Z" fill="#ccc" stroke-width="0"/><path d="M251.667,280.739H68.347c-.828,0-1.5-.672-1.5-1.5s.672-1.5,1.5-1.5h183.319c.828,0,1.5.672,1.5,1.5s-.672,1.5-1.5,1.5Z" fill="#ccc" stroke-width="0"/><rect x="65.374" y="46.105" width="189.253" height="27.772" rx="1.5" ry="1.5" fill="#ccc" stroke-width="0"/><path d="M253.127,47.605v24.773H66.874v-24.773h186.253M253.127,44.605H66.874c-1.657,0-3,1.343-3,3v24.773c0,1.657,1.343,3,3,3h186.253c1.657,0,3-1.343,3-3v-24.773c0-1.657-1.343-3-3-3h0Z" fill="#333" stroke-width="0"/><path d="M44.554,99.752c-.587,0-1.119-.342-1.364-.875-.244-.534-.154-1.16.229-1.604l22.319-25.874c.285-.331.699-.521,1.136-.521h186.253c.437,0,.851.189,1.136.521l22.32,25.874c.383.444.473,1.07.229,1.604-.245.533-.777.875-1.364.875H44.554Z" fill="#eee" stroke-width="0"/><path d="M253.127,72.378l22.319,25.874H44.554l22.319-25.874h186.253M253.127,69.378H66.874c-.872,0-1.702.38-2.272,1.04l-22.319,25.874c-.766.888-.944,2.142-.456,3.209.489,1.067,1.554,1.751,2.728,1.751h230.892c1.173,0,2.239-.684,2.728-1.751.489-1.067.31-2.32-.456-3.209l-22.319-25.874c-.57-.661-1.399-1.04-2.272-1.04h0Z" fill="#333" stroke-width="0"/><rect x="43.054" y="96.752" width="233.893" height="39.887" rx="1.5" ry="1.5" fill="#ccc" stroke-width="0"/><path d="M275.446,98.251v36.886H44.554v-36.886h230.892M275.446,95.251H44.554c-1.657,0-3,1.343-3,3v36.886c0,1.657,1.343,3,3,3h230.892c1.657,0,3-1.343,3-3v-36.886c0-1.657-1.343-3-3-3h0Z" fill="#333" stroke-width="0"/><path d="M119.134,108.885h81.731c2.187,0,3.963,1.776,3.963,3.963v7.693c0,2.187-1.775,3.962-3.962,3.962h-81.733c-2.187,0-3.962-1.775-3.962-3.962v-7.693c0-2.187,1.776-3.963,3.963-3.963Z" fill="#666" stroke-width="0"/><path d="M200.866,110.385c1.36,0,2.463,1.102,2.463,2.463v7.693c0,1.36-1.103,2.463-2.463,2.463h-81.732c-1.36,0-2.463-1.103-2.463-2.463v-7.693c0-1.36,1.103-2.463,2.463-2.463h81.732M200.866,107.385h-81.732c-3.012,0-5.463,2.45-5.463,5.463v7.693c0,3.012,2.45,5.463,5.463,5.463h81.732c3.012,0,5.463-2.45,5.463-5.463v-7.693c0-3.012-2.45-5.463-5.463-5.463h0Z" fill="#333" stroke-width="0"/><path d="M121.737,113.944h76.527c.534,0,.968.434.968.968v3.564c0,.535-.434.969-.969.969h-76.526c-.534,0-.968-.434-.968-.968v-3.565c0-.534.434-.968.968-.968Z" fill="#666" stroke-width="0"/><path d="M198.264,114.194c.396,0,.718.321.718.718v3.565c0,.396-.321.718-.718.718h-76.526c-.397,0-.718-.322-.718-.718v-3.565c0-.396.321-.718.718-.718h76.526M198.264,113.694h-76.526c-.672,0-1.218.546-1.218,1.218v3.565c0,.672.546,1.218,1.218,1.218h76.526c.672,0,1.218-.546,1.218-1.218v-3.565c0-.672-.546-1.218-1.218-1.218h0Z" fill="#333" stroke-width="0"/><path d="M135.844,54.927h-29.997c-.553,0-1-.447-1-1s.447-1,1-1h29.997c.553,0,1,.447,1,1s-.447,1-1,1Z" fill="#333" stroke-width="0"/><path d="M135.844,59.991h-29.997c-.553,0-1-.447-1-1s.447-1,1-1h29.997c.553,0,1,.447,1,1s-.447,1-1,1Z" fill="#333" stroke-width="0"/><path d="M135.844,65.055h-29.997c-.553,0-1-.447-1-1s.447-1,1-1h29.997c.553,0,1,.447,1,1s-.447,1-1,1Z" fill="#333" stroke-width="0"/><path d="M174.999,54.927h-29.997c-.553,0-1-.447-1-1s.447-1,1-1h29.997c.553,0,1,.447,1,1s-.447,1-1,1Z" fill="#333" stroke-width="0"/><path d="M174.999,59.991h-29.997c-.553,0-1-.447-1-1s.447-1,1-1h29.997c.553,0,1,.447,1,1s-.447,1-1,1Z" fill="#333" stroke-width="0"/><path d="M174.999,65.055h-29.997c-.553,0-1-.447-1-1s.447-1,1-1h29.997c.553,0,1,.447,1,1s-.447,1-1,1Z" fill="#333" stroke-width="0"/><path d="M214.154,54.927h-29.997c-.553,0-1-.447-1-1s.447-1,1-1h29.997c.553,0,1,.447,1,1s-.447,1-1,1Z" fill="#333" stroke-width="0"/><path d="M214.154,59.991h-29.997c-.553,0-1-.447-1-1s.447-1,1-1h29.997c.553,0,1,.447,1,1s-.447,1-1,1Z" fill="#333" stroke-width="0"/><path d="M214.154,65.055h-29.997c-.553,0-1-.447-1-1s.447-1,1-1h29.997c.553,0,1,.447,1,1s-.447,1-1,1Z" fill="#333" stroke-width="0"/><path d="M272.199,169.552H47.815c-.828,0-1.5-.672-1.5-1.5s.672-1.5,1.5-1.5h224.384c.828,0,1.5.672,1.5,1.5s-.672,1.5-1.5,1.5Z" fill="#f96302" stroke-width="0"/><rect x="43.111" y="163.102" width="9.902" height="9.902" fill="#f96302" stroke-width="0"/><rect x="267" y="163.102" width="9.902" height="9.902" fill="#f96302" stroke-width="0"/><rect x="70.347" y="225.101" width="179.319" height="94.899" fill="none" stroke-width="0"/><path d="M251.667,221.101H68.347c-1.104,0-2,.896-2,2v96.899h4v-94.899h179.319v94.899h4v-96.899c0-1.104-.896-2-2-2Z" fill="#ccc" stroke-width="0"/></svg>