<?xml version="1.0" encoding="UTF-8"?><svg id="a" xmlns="http://www.w3.org/2000/svg" viewBox="0 0 320 320"><rect x="70.346" y="225.101" width="179.32" height="94.899" fill="#fff" stroke-width="0"/><circle cx="95.68" cy="251.17" r="12.517" fill="#fff" stroke-width="0"/><path d="M95.68,264.686c-7.453,0-13.517-6.063-13.517-13.517s6.063-13.517,13.517-13.517,13.517,6.063,13.517,13.517-6.063,13.517-13.517,13.517ZM95.68,239.653c-6.351,0-11.517,5.166-11.517,11.517s5.166,11.517,11.517,11.517,11.517-5.166,11.517-11.517-5.166-11.517-11.517-11.517Z" fill="#ccc" stroke-width="0"/><rect x="91.78" y="237.836" width="7.801" height="26.667" rx="3.9" ry="3.9" transform="translate(205.628 5.91) rotate(45)" fill="#fff" stroke-width="0"/><path d="M89.01,262.739c-1.256,0-2.511-.479-3.466-1.434h0c-1.909-1.91-1.909-5.02,0-6.93l13.341-13.341c.926-.926,2.156-1.436,3.465-1.436s2.54.51,3.466,1.436c1.909,1.91,1.909,5.02,0,6.93l-13.341,13.341c-.955.955-2.21,1.434-3.465,1.434ZM86.959,259.891c1.13,1.13,2.971,1.132,4.103,0l13.341-13.341c1.13-1.131,1.13-2.971,0-4.102-1.095-1.095-3.006-1.097-4.103,0l-13.341,13.341c-1.13,1.131-1.13,2.971,0,4.102h0Z" fill="#ccc" stroke-width="0"/><circle cx="138.565" cy="251.17" r="12.517" fill="#fff" stroke-width="0"/><path d="M138.564,264.686c-7.453,0-13.517-6.063-13.517-13.517s6.063-13.517,13.517-13.517,13.518,6.063,13.518,13.517-6.063,13.517-13.518,13.517ZM138.564,239.653c-6.351,0-11.517,5.166-11.517,11.517s5.166,11.517,11.517,11.517,11.518-5.166,11.518-11.517-5.167-11.517-11.518-11.517Z" fill="#ccc" stroke-width="0"/><rect x="134.664" y="237.836" width="7.801" height="26.667" rx="3.9" ry="3.9" transform="translate(218.189 -24.414) rotate(45)" fill="#fff" stroke-width="0"/><path d="M131.894,262.738c-1.255,0-2.51-.478-3.465-1.433-1.91-1.91-1.91-5.02,0-6.93l13.341-13.341c.926-.926,2.156-1.436,3.465-1.436s2.539.51,3.465,1.436,1.436,2.156,1.436,3.465-.51,2.539-1.436,3.465l-13.341,13.341c-.955.955-2.21,1.433-3.465,1.433ZM145.235,241.599c-.774,0-1.503.302-2.051.85l-13.341,13.341c-1.131,1.131-1.131,2.971,0,4.102s2.971,1.131,4.102,0l13.341-13.341c.548-.548.85-1.276.85-2.051s-.302-1.503-.85-2.051-1.276-.85-2.051-.85Z" fill="#ccc" stroke-width="0"/><circle cx="181.449" cy="251.17" r="12.517" fill="#fff" stroke-width="0"/><path d="M181.449,264.686c-7.453,0-13.517-6.063-13.517-13.517s6.063-13.517,13.517-13.517,13.517,6.063,13.517,13.517-6.063,13.517-13.517,13.517ZM181.449,239.653c-6.351,0-11.517,5.166-11.517,11.517s5.166,11.517,11.517,11.517,11.517-5.166,11.517-11.517-5.166-11.517-11.517-11.517Z" fill="#ccc" stroke-width="0"/><rect x="177.549" y="237.836" width="7.801" height="26.667" rx="3.9" ry="3.9" transform="translate(230.749 -54.738) rotate(45)" fill="#fff" stroke-width="0"/><path d="M174.779,262.739c-1.256,0-2.511-.479-3.466-1.434h0c-1.909-1.91-1.909-5.02,0-6.93l13.341-13.341c.926-.926,2.156-1.436,3.465-1.436s2.54.51,3.466,1.436c1.909,1.91,1.909,5.02,0,6.93l-13.341,13.341c-.955.955-2.21,1.434-3.465,1.434ZM172.727,259.891c1.13,1.13,2.971,1.132,4.103,0l13.341-13.341c1.13-1.131,1.13-2.971,0-4.102-1.096-1.095-3.007-1.097-4.103,0l-13.341,13.341c-1.13,1.131-1.13,2.971,0,4.102h0Z" fill="#ccc" stroke-width="0"/><circle cx="224.333" cy="251.17" r="12.517" fill="#fff" stroke-width="0"/><path d="M224.334,264.686c-7.454,0-13.518-6.063-13.518-13.517s6.063-13.517,13.518-13.517,13.517,6.063,13.517,13.517-6.063,13.517-13.517,13.517ZM224.334,239.653c-6.351,0-11.518,5.166-11.518,11.517s5.167,11.517,11.518,11.517,11.517-5.166,11.517-11.517-5.166-11.517-11.517-11.517Z" fill="#ccc" stroke-width="0"/><rect x="220.433" y="237.836" width="7.801" height="26.667" rx="3.9" ry="3.9" transform="translate(243.309 -85.062) rotate(45)" fill="#fff" stroke-width="0"/><path d="M217.663,262.741c-1.309,0-2.539-.51-3.465-1.436s-1.436-2.156-1.436-3.465.51-2.539,1.436-3.465l13.341-13.341c.926-.926,2.156-1.436,3.465-1.436s2.539.51,3.465,1.436c1.91,1.91,1.91,5.02,0,6.93l-13.341,13.341c-.925.926-2.155,1.436-3.465,1.436ZM231.004,241.599c-.774,0-1.503.302-2.051.85l-13.341,13.341c-.548.548-.85,1.276-.85,2.051s.302,1.503.85,2.051c1.096,1.097,3.006,1.095,4.102,0l13.341-13.341c.548-.548.85-1.276.85-2.051s-.302-1.503-.85-2.051-1.276-.85-2.051-.85Z" fill="#ccc" stroke-width="0"/><rect x="87.948" y="291.046" width="144.117" height="12.082" rx="4.335" ry="4.335" fill="#fff" stroke-width="0"/><path d="M227.73,304.129H92.283c-2.941,0-5.334-2.394-5.334-5.335v-3.413c0-2.941,2.393-5.334,5.334-5.334h135.447c2.941,0,5.335,2.393,5.335,5.334v3.413c0,2.941-2.394,5.335-5.335,5.335ZM92.283,292.046c-1.838,0-3.334,1.496-3.334,3.334v3.413c0,1.839,1.496,3.335,3.334,3.335h135.447c1.839,0,3.335-1.496,3.335-3.335v-3.413c0-1.838-1.496-3.334-3.335-3.334H92.283Z" fill="#ccc" stroke-width="0"/><path d="M251.667,280.739H68.346c-.828,0-1.5-.672-1.5-1.5s.672-1.5,1.5-1.5h183.32c.828,0,1.5.672,1.5,1.5s-.672,1.5-1.5,1.5Z" fill="#ccc" stroke-width="0"/><rect x="52.48" y="46.105" width="215.026" height="27.772" rx="1.5" ry="1.5" fill="#ccc" stroke-width="0"/><path d="M266.006,47.605v24.773H53.98v-24.773h212.026M266.006,44.605H53.98c-1.657,0-3,1.343-3,3v24.773c0,1.657,1.343,3,3,3h212.026c1.657,0,3-1.343,3-3v-24.773c0-1.657-1.343-3-3-3h0Z" fill="#333" stroke-width="0"/><path d="M28.573,99.752c-.604,0-1.149-.362-1.383-.92-.234-.557-.11-1.2.312-1.631l25.407-25.874c.282-.287.668-.449,1.07-.449h212.026c.402,0,.788.162,1.07.449l25.407,25.874c.423.431.547,1.074.312,1.631-.233.558-.778.92-1.383.92H28.573Z" fill="#eee" stroke-width="0"/><path d="M266.006,72.378l25.408,25.874H28.572l25.408-25.874h212.026M266.006,69.378H53.98c-.805,0-1.576.324-2.141.898l-25.408,25.874c-.847.862-1.093,2.148-.626,3.263.468,1.114,1.558,1.839,2.766,1.839h262.842c1.208,0,2.299-.725,2.766-1.839.467-1.114.221-2.4-.626-3.263l-25.408-25.874c-.564-.574-1.335-.898-2.141-.898h0Z" fill="#333" stroke-width="0"/><rect x="27.073" y="96.752" width="265.841" height="39.887" rx="1.5" ry="1.5" fill="#ccc" stroke-width="0"/><path d="M291.414,98.251v36.886H28.572v-36.886h262.842M291.414,95.251H28.572c-1.657,0-3,1.343-3,3v36.886c0,1.657,1.343,3,3,3h262.842c1.657,0,3-1.343,3-3v-36.886c0-1.657-1.343-3-3-3h0Z" fill="#333" stroke-width="0"/><path d="M113.297,108.885h93.394c2.278,0,4.127,1.849,4.127,4.127v7.364c0,2.278-1.849,4.127-4.127,4.127h-93.395c-2.278,0-4.127-1.849-4.127-4.127v-7.363c0-2.278,1.85-4.128,4.128-4.128Z" fill="#666" stroke-width="0"/><path d="M206.69,110.385c1.451,0,2.627,1.176,2.627,2.627v7.364c0,1.451-1.176,2.627-2.627,2.627h-93.394c-1.451,0-2.627-1.176-2.627-2.627v-7.364c0-1.451,1.176-2.627,2.627-2.627h93.394M206.69,107.385h-93.394c-3.103,0-5.627,2.524-5.627,5.627v7.364c0,3.103,2.524,5.627,5.627,5.627h93.394c3.103,0,5.627-2.524,5.627-5.627v-7.364c0-3.103-2.524-5.627-5.627-5.627h0Z" fill="#333" stroke-width="0"/><rect x="115.428" y="114.404" width="89.13" height="4.581" rx=".941" ry=".941" fill="#666" stroke-width="0"/><path d="M203.616,114.654c.382,0,.692.31.692.692v2.698c0,.382-.31.692-.692.692h-87.247c-.382,0-.692-.31-.692-.692v-2.698c0-.382.31-.692.692-.692h87.247M203.616,114.154h-87.247c-.657,0-1.192.535-1.192,1.192v2.698c0,.657.535,1.192,1.192,1.192h87.247c.657,0,1.192-.535,1.192-1.192v-2.698c0-.657-.535-1.192-1.192-1.192h0Z" fill="#333" stroke-width="0"/><path d="M134.565,54.927h-31.575c-.553,0-1-.447-1-1s.447-1,1-1h31.575c.553,0,1,.447,1,1s-.447,1-1,1Z" fill="#333" stroke-width="0"/><path d="M134.565,59.991h-31.575c-.553,0-1-.447-1-1s.447-1,1-1h31.575c.553,0,1,.447,1,1s-.447,1-1,1Z" fill="#333" stroke-width="0"/><path d="M134.565,65.055h-31.575c-.553,0-1-.447-1-1s.447-1,1-1h31.575c.553,0,1,.447,1,1s-.447,1-1,1Z" fill="#333" stroke-width="0"/><path d="M175.781,54.927h-31.575c-.553,0-1-.447-1-1s.447-1,1-1h31.575c.553,0,1,.447,1,1s-.447,1-1,1Z" fill="#333" stroke-width="0"/><path d="M175.781,59.991h-31.575c-.553,0-1-.447-1-1s.447-1,1-1h31.575c.553,0,1,.447,1,1s-.447,1-1,1Z" fill="#333" stroke-width="0"/><path d="M175.781,65.055h-31.575c-.553,0-1-.447-1-1s.447-1,1-1h31.575c.553,0,1,.447,1,1s-.447,1-1,1Z" fill="#333" stroke-width="0"/><path d="M216.997,54.927h-31.576c-.553,0-1-.447-1-1s.447-1,1-1h31.576c.553,0,1,.447,1,1s-.447,1-1,1Z" fill="#333" stroke-width="0"/><path d="M216.997,59.991h-31.576c-.553,0-1-.447-1-1s.447-1,1-1h31.576c.553,0,1,.447,1,1s-.447,1-1,1Z" fill="#333" stroke-width="0"/><path d="M216.997,65.055h-31.576c-.553,0-1-.447-1-1s.447-1,1-1h31.576c.553,0,1,.447,1,1s-.447,1-1,1Z" fill="#333" stroke-width="0"/><path d="M287.842,169.552H32.157c-.828,0-1.5-.672-1.5-1.5s.672-1.5,1.5-1.5h255.686c.828,0,1.5.672,1.5,1.5s-.672,1.5-1.5,1.5Z" fill="#f96302" stroke-width="0"/><rect x="27.453" y="163.102" width="9.902" height="9.902" fill="#f96302" stroke-width="0"/><rect x="282.644" y="163.102" width="9.902" height="9.902" fill="#f96302" stroke-width="0"/><path d="M251.667,221.101H68.346c-1.104,0-2,.896-2,2v96.899h4v-94.899h179.32v94.899h4v-96.899c0-1.104-.896-2-2-2Z" fill="#ccc" stroke-width="0"/></svg>