<?xml version="1.0" encoding="UTF-8"?><svg id="a" xmlns="http://www.w3.org/2000/svg" viewBox="0 0 320 320"><rect x="110.626" width="98.75" height="35.701" fill="#ccc" stroke-width="0"/><path d="M110.626,38.701h98.75c1.657,0,3-1.343,3-3V0h-3v35.701h-98.75V0h-3v35.701c0,1.657,1.343,3,3,3Z" fill="#333" stroke-width="0"/><path d="M42.352,224.486v95.514h14.674v-6.561c0-4.392,3.572-7.964,7.964-7.964h190.033c4.392,0,7.964,3.572,7.964,7.964v6.561h14.674v-95.514H42.352Z" fill="#fff" stroke-width="0"/><rect x="134.633" y="236.348" width="50.748" height="21.784" rx="2.772" ry="2.772" fill="#fff" stroke-width="0"/><path d="M182.608,259.131h-45.203c-2.08,0-3.772-1.692-3.772-3.772v-16.239c0-2.08,1.692-3.772,3.772-3.772h45.203c2.08,0,3.772,1.692,3.772,3.772v16.239c0,2.08-1.692,3.772-3.772,3.772ZM137.405,237.347c-.978,0-1.772.795-1.772,1.772v16.239c0,.978.795,1.772,1.772,1.772h45.203c.978,0,1.772-.795,1.772-1.772v-16.239c0-.978-.795-1.772-1.772-1.772h-45.203Z" fill="#ccc" stroke-width="0"/><circle cx="66.115" cy="247.24" r="10.803" fill="#fff" stroke-width="0"/><path d="M66.115,259.043c-6.508,0-11.803-5.295-11.803-11.803s5.295-11.804,11.803-11.804,11.804,5.295,11.804,11.804-5.295,11.803-11.804,11.803ZM66.115,237.436c-5.405,0-9.803,4.397-9.803,9.804s4.397,9.803,9.803,9.803,9.804-4.397,9.804-9.803-4.397-9.804-9.804-9.804Z" fill="#ccc" stroke-width="0"/><rect x="62.749" y="235.731" width="6.733" height="23.017" rx="3.366" ry="3.366" transform="translate(194.189 25.664) rotate(45)" fill="#fff" stroke-width="0"/><path d="M60.357,257.362c-1.117,0-2.235-.426-3.087-1.277-1.702-1.702-1.702-4.473,0-6.175l11.515-11.515c1.701-1.703,4.47-1.705,6.175,0s1.702,4.473,0,6.175l-11.515,11.515c-.852.852-1.97,1.277-3.088,1.277ZM71.873,239.117c-.606,0-1.213.231-1.674.692l-11.515,11.515c-.923.923-.923,2.424,0,3.347s2.426.922,3.347,0l11.515-11.515c.923-.923.923-2.424,0-3.347-.461-.461-1.067-.692-1.673-.692Z" fill="#ccc" stroke-width="0"/><circle cx="104.942" cy="247.24" r="10.803" fill="#fff" stroke-width="0"/><path d="M104.942,259.043c-6.508,0-11.803-5.295-11.803-11.803s5.295-11.804,11.803-11.804,11.804,5.295,11.804,11.804-5.295,11.803-11.804,11.803ZM104.942,237.436c-5.405,0-9.803,4.397-9.803,9.804s4.397,9.803,9.803,9.803,9.804-4.397,9.804-9.803-4.397-9.804-9.804-9.804Z" fill="#ccc" stroke-width="0"/><rect x="101.576" y="235.731" width="6.733" height="23.017" rx="3.366" ry="3.366" transform="translate(205.562 -1.791) rotate(45)" fill="#fff" stroke-width="0"/><path d="M99.184,257.362c-1.117,0-2.235-.426-3.087-1.277-1.702-1.702-1.702-4.473,0-6.175l11.515-11.515c1.702-1.703,4.471-1.705,6.175,0,1.702,1.702,1.702,4.473,0,6.175l-11.515,11.515c-.852.852-1.97,1.277-3.088,1.277ZM110.7,239.117c-.606,0-1.213.231-1.674.692l-11.515,11.515c-.923.923-.923,2.424,0,3.347.924.923,2.427.922,3.347,0l11.515-11.515c.923-.923.923-2.424,0-3.347-.461-.461-1.067-.692-1.673-.692Z" fill="#ccc" stroke-width="0"/><circle cx="213.331" cy="247.24" r="10.803" fill="#fff" stroke-width="0"/><path d="M213.331,259.043c-6.509,0-11.804-5.295-11.804-11.803s5.295-11.804,11.804-11.804,11.803,5.295,11.803,11.804-5.295,11.803-11.803,11.803ZM213.331,237.436c-5.406,0-9.804,4.397-9.804,9.804s4.397,9.803,9.804,9.803,9.803-4.397,9.803-9.803-4.397-9.804-9.803-9.804Z" fill="#ccc" stroke-width="0"/><rect x="209.964" y="235.731" width="6.733" height="23.017" rx="3.366" ry="3.366" transform="translate(237.308 -78.433) rotate(45)" fill="#fff" stroke-width="0"/><path d="M207.573,257.362c-1.117,0-2.235-.426-3.087-1.277-1.702-1.702-1.702-4.473,0-6.175l11.515-11.515c1.701-1.703,4.47-1.705,6.175,0s1.702,4.473,0,6.175l-11.515,11.515c-.852.852-1.97,1.277-3.088,1.277ZM219.089,239.117c-.606,0-1.213.231-1.674.692l-11.515,11.515c-.923.923-.923,2.424,0,3.347s2.426.922,3.347,0l11.515-11.515c.923-.923.923-2.424,0-3.347-.461-.461-1.067-.692-1.673-.692Z" fill="#ccc" stroke-width="0"/><circle cx="252.158" cy="247.24" r="10.803" fill="#fff" stroke-width="0"/><path d="M252.158,259.043c-6.509,0-11.804-5.295-11.804-11.803s5.295-11.804,11.804-11.804,11.803,5.295,11.803,11.804-5.295,11.803-11.803,11.803ZM252.158,237.436c-5.406,0-9.804,4.397-9.804,9.804s4.397,9.803,9.804,9.803,9.803-4.397,9.803-9.803-4.397-9.804-9.803-9.804Z" fill="#ccc" stroke-width="0"/><rect x="248.791" y="235.731" width="6.733" height="23.017" rx="3.366" ry="3.366" transform="translate(248.68 -105.888) rotate(45)" fill="#fff" stroke-width="0"/><path d="M246.4,257.362c-1.117,0-2.235-.426-3.087-1.277h0c-.825-.824-1.279-1.921-1.279-3.088s.454-2.263,1.279-3.087l11.515-11.515c1.701-1.701,4.472-1.703,6.175,0s1.702,4.473,0,6.175l-11.515,11.515c-.852.852-1.97,1.277-3.088,1.277ZM257.915,239.118c-.605,0-1.212.23-1.673.691l-11.515,11.515c-.447.447-.693,1.041-.693,1.673s.246,1.227.693,1.674h0c.923.923,2.426.922,3.347,0l11.515-11.515c.923-.923.923-2.424,0-3.347-.462-.461-1.067-.691-1.674-.691Z" fill="#ccc" stroke-width="0"/><rect x="58.293" y="281.588" width="203.694" height="10.429" rx="3.741" ry="3.741" fill="#fff" stroke-width="0"/><path d="M258.246,293.017H62.034c-2.614,0-4.741-2.127-4.741-4.741v-2.946c0-2.614,2.127-4.741,4.741-4.741h196.212c2.614,0,4.741,2.127,4.741,4.741v2.946c0,2.614-2.127,4.741-4.741,4.741ZM62.034,282.588c-1.512,0-2.741,1.229-2.741,2.741v2.946c0,1.512,1.229,2.741,2.741,2.741h196.212c1.512,0,2.741-1.229,2.741-2.741v-2.946c0-1.512-1.229-2.741-2.741-2.741H62.034Z" fill="#ccc" stroke-width="0"/><path d="M279.161,272.993H40.852c-.828,0-1.5-.672-1.5-1.5s.672-1.5,1.5-1.5h238.309c.828,0,1.5.672,1.5,1.5s-.672,1.5-1.5,1.5Z" fill="#ccc" stroke-width="0"/><path d="M44.555,99.015c-.62,0-1.177-.382-1.399-.96-.224-.579-.067-1.235.393-1.651l66.071-59.874c.275-.25.635-.389,1.007-.389h98.749c.372,0,.731.139,1.007.389l66.071,59.874c.46.416.616,1.072.393,1.651-.223.578-.779.96-1.399.96H44.555Z" fill="#eee" stroke-width="0"/><path d="M209.375,37.641l66.071,59.874H44.554l66.071-59.874h98.75M209.375,34.641h-98.75c-.745,0-1.463.277-2.014.777l-66.071,59.874c-.919.833-1.231,2.145-.785,3.303.446,1.157,1.559,1.92,2.799,1.92h230.892c1.24,0,2.353-.763,2.799-1.92.446-1.157.135-2.47-.785-3.303l-66.071-59.874c-.552-.5-1.27-.777-2.014-.777h0Z" fill="#333" stroke-width="0"/><rect x="43.055" y="96.015" width="233.892" height="39.887" rx="1.5" ry="1.5" fill="#ccc" stroke-width="0"/><path d="M275.446,97.515v36.886H44.554v-36.886h230.892M275.446,94.515H44.554c-1.657,0-3,1.343-3,3v36.886c0,1.657,1.343,3,3,3h230.892c1.657,0,3-1.343,3-3v-36.886c0-1.657-1.343-3-3-3h0Z" fill="#333" stroke-width="0"/><path d="M119.135,108.149h81.731c2.187,0,3.963,1.776,3.963,3.963v7.692c0,2.187-1.776,3.963-3.963,3.963h-81.732c-2.187,0-3.962-1.775-3.962-3.962v-7.693c0-2.187,1.776-3.963,3.963-3.963Z" fill="#666" stroke-width="0"/><path d="M200.867,109.649c1.36,0,2.462,1.103,2.462,2.463v7.693c0,1.36-1.103,2.463-2.462,2.463h-81.732c-1.36,0-2.462-1.103-2.462-2.463v-7.693c0-1.36,1.103-2.463,2.462-2.463h81.732M200.867,106.649h-81.732c-3.012,0-5.462,2.45-5.462,5.463v7.693c0,3.012,2.45,5.463,5.462,5.463h81.732c3.012,0,5.462-2.45,5.462-5.463v-7.693c0-3.012-2.45-5.463-5.462-5.463h0Z" fill="#333" stroke-width="0"/><rect x="120.361" y="113.597" width="79.278" height="4.723" rx=".913" ry=".913" fill="#666" stroke-width="0"/><path d="M198.726,113.847c.366,0,.663.297.663.663v2.897c0,.366-.297.663-.663.663h-77.451c-.366,0-.663-.297-.663-.663v-2.897c0-.366.297-.663.663-.663h77.451M198.726,113.347h-77.451c-.641,0-1.163.522-1.163,1.163v2.897c0,.641.522,1.163,1.163,1.163h77.451c.641,0,1.163-.522,1.163-1.163v-2.897c0-.641-.522-1.163-1.163-1.163h0Z" fill="#333" stroke-width="0"/><path d="M272.449,169.552H47.564c-.828,0-1.5-.672-1.5-1.5s.672-1.5,1.5-1.5h224.885c.828,0,1.5.672,1.5,1.5s-.672,1.5-1.5,1.5Z" fill="#f96302" stroke-width="0"/><rect x="42.861" y="163.102" width="9.902" height="9.902" fill="#f96302" stroke-width="0"/><rect x="267.25" y="163.102" width="9.902" height="9.902" fill="#f96302" stroke-width="0"/><path d="M279.161,221.486H40.852c-.828,0-1.5.672-1.5,1.5v97.014h3v-95.514h235.309v95.514h3v-97.014c0-.828-.672-1.5-1.5-1.5Z" fill="#ccc" stroke-width="0"/><path d="M255.023,305.475H64.99c-4.392,0-7.964,3.572-7.964,7.964v6.561h2v-6.561c0-3.288,2.676-5.964,5.964-5.964h190.033c3.288,0,5.964,2.676,5.964,5.964v6.561h2v-6.561c0-4.392-3.572-7.964-7.964-7.964Z" fill="#ccc" stroke-width="0"/><path d="M247.823,316.199H72.19c-2.23,0-4.063,1.657-4.377,3.801h184.387c-.314-2.144-2.148-3.801-4.378-3.801Z" fill="#fff" stroke-width="0"/><path d="M255.023,307.475H64.99c-3.288,0-5.964,2.676-5.964,5.964v6.561h8.287c.318-2.42,2.371-4.301,4.877-4.301h175.633c2.506,0,4.56,1.881,4.878,4.301h8.286v-6.561c0-3.288-2.676-5.964-5.964-5.964Z" fill="#fff" stroke-width="0"/><path d="M247.823,315.699H72.19c-2.505,0-4.559,1.881-4.877,4.301h.5c.314-2.144,2.147-3.801,4.377-3.801h175.633c2.23,0,4.064,1.657,4.378,3.801h.5c-.318-2.42-2.371-4.301-4.878-4.301Z" fill="#ccc" stroke-width="0"/></svg>