<?xml version="1.0" encoding="UTF-8"?><svg id="a" xmlns="http://www.w3.org/2000/svg" viewBox="0 0 320 320"><rect x="108.027" y="0" width="103.947" height="37.917" fill="#ccc" stroke-width="0"/><path d="M108.027,40.916h103.947c1.657,0,3-1.343,3-3V0h-3v37.917h-103.947V0h-3v37.917c0,1.657,1.343,3,3,3Z" fill="#333" stroke-width="0"/><path d="M255.023,307.129H64.99c-3.288,0-5.964,2.676-5.964,5.964v6.907h8.251c.155-2.586,2.288-4.648,4.913-4.648h175.633c2.625,0,4.757,2.062,4.913,4.648h8.251v-6.907c0-3.288-2.676-5.964-5.964-5.964Z" fill="#fff" stroke-width="0"/><path d="M247.823,315.852H72.19c-2.349,0-4.258,1.838-4.413,4.148h184.458c-.154-2.31-2.064-4.148-4.413-4.148Z" fill="#fff" stroke-width="0"/><path d="M42.353,224.14v95.86h14.674v-6.907c0-4.392,3.572-7.964,7.964-7.964h190.033c4.392,0,7.964,3.572,7.964,7.964v6.907h14.674v-95.86H42.353Z" fill="#fff" stroke-width="0"/><path d="M29.516,99.291c-.644,0-1.215-.41-1.421-1.02-.206-.61,0-1.283.512-1.673l78.511-59.874c.261-.199.58-.308.909-.308h103.947c.329,0,.648.108.909.308l78.511,59.874c.512.39.718,1.062.512,1.673-.206.609-.777,1.02-1.421,1.02H29.516Z" fill="#eee" stroke-width="0"/><path d="M211.974,37.916l78.511,59.874H29.516l78.511-59.874h103.947M211.974,34.916h-103.947c-.657,0-1.296.216-1.819.615L27.697,95.405c-1.023.78-1.435,2.126-1.023,3.346s1.555,2.04,2.842,2.04h260.969c1.287,0,2.43-.821,2.842-2.04s0-2.565-1.023-3.346l-78.511-59.874c-.523-.399-1.162-.615-1.819-.615h0Z" fill="#333" stroke-width="0"/><rect x="28.016" y="96.291" width="263.969" height="39.886" rx="1.5" ry="1.5" fill="#ccc" stroke-width="0"/><path d="M290.484,97.79v36.886H29.516v-36.886h260.969M290.484,94.79H29.516c-1.657,0-3,1.343-3,3v36.886c0,1.657,1.343,3,3,3h260.969c1.657,0,3-1.343,3-3v-36.886c0-1.657-1.343-3-3-3h0Z" fill="#333" stroke-width="0"/><rect x="109.527" y="108.424" width="100.945" height="15.618" rx="4.118" ry="4.118" fill="#666" stroke-width="0"/><path d="M206.355,109.924c1.446,0,2.618,1.172,2.618,2.618v7.383c0,1.446-1.172,2.618-2.618,2.618h-92.709c-1.446,0-2.618-1.172-2.618-2.618v-7.383c0-1.446,1.172-2.618,2.618-2.618h92.709M206.355,106.924h-92.709c-3.098,0-5.618,2.52-5.618,5.618v7.383c0,3.098,2.52,5.618,5.618,5.618h92.709c3.098,0,5.618-2.52,5.618-5.618v-7.383c0-3.098-2.52-5.618-5.618-5.618h0Z" fill="#333" stroke-width="0"/><rect x="115.778" y="113.466" width="88.443" height="5.534" rx="1.015" ry="1.015" fill="#666" stroke-width="0"/><path d="M203.207,113.716c.423,0,.765.343.765.765v3.504c0,.422-.343.765-.765.765h-86.414c-.423,0-.765-.343-.765-.765v-3.504c0-.422.343-.765.765-.765h86.414M203.207,113.216h-86.414c-.698,0-1.265.568-1.265,1.265v3.504c0,.698.568,1.265,1.265,1.265h86.414c.698,0,1.265-.568,1.265-1.265v-3.504c0-.698-.568-1.265-1.265-1.265h0Z" fill="#333" stroke-width="0"/><rect x="134.633" y="236.002" width="50.748" height="21.784" rx="2.772" ry="2.772" fill="#fff" stroke-width="0"/><path d="M182.608,258.786h-45.203c-2.08,0-3.772-1.692-3.772-3.772v-16.239c0-2.08,1.692-3.772,3.772-3.772h45.203c2.08,0,3.772,1.692,3.772,3.772v16.239c0,2.08-1.692,3.772-3.772,3.772ZM137.405,237.002c-.978,0-1.772.795-1.772,1.772v16.239c0,.978.795,1.772,1.772,1.772h45.203c.978,0,1.772-.795,1.772-1.772v-16.239c0-.978-.795-1.772-1.772-1.772h-45.203Z" fill="#ccc" stroke-width="0"/><circle cx="66.115" cy="246.893" r="10.803" fill="#fff" stroke-width="0"/><path d="M66.115,258.697c-6.508,0-11.803-5.295-11.803-11.804s5.295-11.803,11.803-11.803,11.804,5.295,11.804,11.803-5.295,11.804-11.804,11.804ZM66.115,237.09c-5.405,0-9.803,4.397-9.803,9.803s4.397,9.804,9.803,9.804,9.804-4.397,9.804-9.804-4.397-9.803-9.804-9.803Z" fill="#ccc" stroke-width="0"/><rect x="62.749" y="235.385" width="6.733" height="23.017" rx="3.366" ry="3.366" transform="translate(193.945 25.563) rotate(45)" fill="#fff" stroke-width="0"/><path d="M60.358,257.017c-1.167,0-2.264-.454-3.088-1.279h0c-1.702-1.702-1.702-4.473,0-6.175l11.515-11.515c1.702-1.703,4.471-1.705,6.175,0,1.702,1.703,1.702,4.473,0,6.175l-11.515,11.515c-.824.825-1.921,1.279-3.087,1.279ZM71.873,238.77c-.606,0-1.212.231-1.674.692l-11.515,11.515c-.923.923-.923,2.424,0,3.347h0c.894.895,2.452.896,3.347,0l11.515-11.515c.922-.923.922-2.424,0-3.347-.462-.461-1.067-.692-1.673-.692Z" fill="#ccc" stroke-width="0"/><circle cx="104.942" cy="246.893" r="10.803" fill="#fff" stroke-width="0"/><path d="M104.942,258.697c-6.509,0-11.804-5.295-11.804-11.804s5.295-11.803,11.804-11.803,11.804,5.295,11.804,11.803-5.295,11.804-11.804,11.804ZM104.942,237.09c-5.406,0-9.804,4.397-9.804,9.803s4.397,9.804,9.804,9.804,9.804-4.397,9.804-9.804-4.397-9.803-9.804-9.803Z" fill="#ccc" stroke-width="0"/><rect x="101.576" y="235.385" width="6.733" height="23.017" rx="3.366" ry="3.366" transform="translate(205.317 -1.892) rotate(45)" fill="#fff" stroke-width="0"/><path d="M99.186,257.017c-1.167,0-2.264-.454-3.088-1.279h0c-1.702-1.702-1.702-4.473,0-6.175l11.515-11.515c1.701-1.703,4.47-1.705,6.175,0,1.702,1.703,1.702,4.473,0,6.175l-11.515,11.515c-.824.825-1.921,1.279-3.087,1.279ZM110.7,238.77c-.606,0-1.212.231-1.674.692l-11.515,11.515c-.923.923-.923,2.424,0,3.347h0c.895.895,2.452.896,3.347,0l11.515-11.515c.922-.923.922-2.424,0-3.347-.462-.461-1.067-.692-1.673-.692Z" fill="#ccc" stroke-width="0"/><circle cx="213.331" cy="246.893" r="10.803" fill="#fff" stroke-width="0"/><path d="M213.331,258.697c-6.509,0-11.804-5.295-11.804-11.804s5.295-11.803,11.804-11.803,11.803,5.295,11.803,11.803-5.295,11.804-11.803,11.804ZM213.331,237.09c-5.406,0-9.804,4.397-9.804,9.803s4.397,9.804,9.804,9.804,9.803-4.397,9.803-9.804-4.397-9.803-9.803-9.803Z" fill="#ccc" stroke-width="0"/><rect x="209.964" y="235.385" width="6.733" height="23.017" rx="3.366" ry="3.366" transform="translate(237.063 -78.534) rotate(45)" fill="#fff" stroke-width="0"/><path d="M207.573,257.017c-1.166,0-2.262-.454-3.087-1.279h0c-.825-.824-1.279-1.921-1.279-3.087s.454-2.264,1.279-3.088l11.514-11.515c1.703-1.701,4.473-1.701,6.176,0,1.702,1.703,1.702,4.473,0,6.175l-11.515,11.515c-.825.825-1.922,1.279-3.088,1.279ZM219.088,238.771c-.606,0-1.212.23-1.674.691l-11.514,11.515c-.447.447-.693,1.041-.693,1.674s.246,1.226.693,1.673h0c.895.895,2.452.895,3.347,0l11.515-11.515c.922-.923.922-2.424,0-3.347-.462-.461-1.067-.691-1.674-.691Z" fill="#ccc" stroke-width="0"/><circle cx="252.158" cy="246.893" r="10.803" fill="#fff" stroke-width="0"/><path d="M252.158,258.697c-6.509,0-11.804-5.295-11.804-11.804s5.295-11.803,11.804-11.803,11.803,5.295,11.803,11.803-5.295,11.804-11.803,11.804ZM252.158,237.09c-5.406,0-9.804,4.397-9.804,9.803s4.397,9.804,9.804,9.804,9.803-4.397,9.803-9.804-4.397-9.803-9.803-9.803Z" fill="#ccc" stroke-width="0"/><rect x="248.791" y="235.385" width="6.733" height="23.017" rx="3.366" ry="3.366" transform="translate(248.436 -105.989) rotate(45)" fill="#fff" stroke-width="0"/><path d="M246.4,257.017c-1.166,0-2.262-.454-3.087-1.279h0c-.825-.825-1.279-1.921-1.279-3.087s.454-2.264,1.279-3.088l11.514-11.515c1.703-1.701,4.473-1.701,6.176,0,1.702,1.703,1.702,4.473,0,6.175l-11.515,11.515c-.825.825-1.922,1.279-3.088,1.279ZM257.915,238.771c-.606,0-1.212.23-1.674.691l-11.514,11.515c-.447.447-.693,1.041-.693,1.674s.246,1.226.693,1.673h0c.895.895,2.452.895,3.347,0l11.515-11.515c.922-.923.922-2.424,0-3.347-.462-.461-1.067-.691-1.674-.691Z" fill="#ccc" stroke-width="0"/><rect x="58.293" y="281.242" width="203.694" height="10.429" rx="3.741" ry="3.741" fill="#fff" stroke-width="0"/><path d="M258.246,292.67H62.034c-2.614,0-4.741-2.127-4.741-4.741v-2.946c0-2.614,2.127-4.741,4.741-4.741h196.212c2.614,0,4.741,2.127,4.741,4.741v2.946c0,2.614-2.127,4.741-4.741,4.741ZM62.034,282.242c-1.512,0-2.741,1.229-2.741,2.741v2.946c0,1.512,1.229,2.741,2.741,2.741h196.212c1.512,0,2.741-1.229,2.741-2.741v-2.946c0-1.512-1.229-2.741-2.741-2.741H62.034Z" fill="#ccc" stroke-width="0"/><path d="M279.161,272.647H40.853c-.828,0-1.5-.672-1.5-1.5s.672-1.5,1.5-1.5h238.309c.828,0,1.5.672,1.5,1.5s-.672,1.5-1.5,1.5Z" fill="#ccc" stroke-width="0"/><path d="M287.298,169.552H32.702c-.828,0-1.5-.672-1.5-1.5s.672-1.5,1.5-1.5h254.596c.828,0,1.5.672,1.5,1.5s-.672,1.5-1.5,1.5Z" fill="#f96302" stroke-width="0"/><rect x="27.998" y="163.102" width="9.902" height="9.902" fill="#f96302" stroke-width="0"/><rect x="282.099" y="163.102" width="9.902" height="9.902" fill="#f96302" stroke-width="0"/><path d="M279.161,221.14H40.853c-.828,0-1.5.672-1.5,1.5v97.36h3v-95.86h235.309v95.86h3v-97.36c0-.828-.672-1.5-1.5-1.5Z" fill="#ccc" stroke-width="0"/><path d="M255.023,305.129H64.99c-4.392,0-7.964,3.572-7.964,7.964v6.907h2v-6.907c0-3.288,2.676-5.964,5.964-5.964h190.033c3.288,0,5.964,2.676,5.964,5.964v6.907h2v-6.907c0-4.392-3.572-7.964-7.964-7.964Z" fill="#ccc" stroke-width="0"/><path d="M247.823,315.352H72.19c-2.625,0-4.757,2.062-4.913,4.648h.5c.154-2.31,2.064-4.148,4.413-4.148h175.633c2.349,0,4.258,1.838,4.413,4.148h.5c-.155-2.586-2.288-4.648-4.913-4.648Z" fill="#ccc" stroke-width="0"/></svg>