<?xml version="1.0" encoding="UTF-8"?><svg id="a" xmlns="http://www.w3.org/2000/svg" viewBox="0 0 320 320"><path d="M52.865,223.745v96.255h9.578v-27.162c0-3.469,2.821-6.291,6.29-6.291h182.532c3.469,0,6.291,2.822,6.291,6.291v27.162h9.578v-96.255H52.865Z" fill="#fff" stroke-width="0"/><path d="M251.266,288.546H68.734c-2.365,0-4.29,1.925-4.29,4.291v27.162h5.946v-21.692c0-2.104,1.711-3.814,3.814-3.814h171.591c2.104,0,3.814,1.711,3.814,3.814v21.692h5.947v-27.162c0-2.366-1.925-4.291-4.291-4.291Z" fill="#fff" stroke-width="0"/><path d="M245.795,294.994H74.204c-1.827,0-3.314,1.487-3.314,3.314v21.692h178.22v-21.692c0-1.827-1.487-3.314-3.314-3.314Z" fill="#fff" stroke-width="0"/><rect x="132.242" y="0" width="55.516" height="72.128" fill="#ccc" stroke-width="0"/><path d="M132.242,75.128h55.516c1.657,0,3-1.343,3-3V0h-3v72.128h-55.516V0h-3v72.128c0,1.657,1.343,3,3,3Z" fill="#333" stroke-width="0"/><circle cx="73.235" cy="240.99" r="8.208" fill="#fff" stroke-width="0"/><path d="M73.235,250.198c-5.077,0-9.208-4.131-9.208-9.208s4.131-9.207,9.208-9.207,9.208,4.13,9.208,9.207-4.131,9.208-9.208,9.208ZM73.235,233.783c-3.975,0-7.208,3.233-7.208,7.207s3.233,7.208,7.208,7.208,7.208-3.233,7.208-7.208-3.233-7.207-7.208-7.207Z" fill="#ccc" stroke-width="0"/><circle cx="107.941" cy="240.99" r="8.208" fill="#fff" stroke-width="0"/><path d="M107.942,250.198c-5.077,0-9.208-4.131-9.208-9.208s4.131-9.207,9.208-9.207,9.207,4.13,9.207,9.207-4.13,9.208-9.207,9.208ZM107.942,233.783c-3.975,0-7.208,3.233-7.208,7.207s3.233,7.208,7.208,7.208,7.207-3.233,7.207-7.208-3.233-7.207-7.207-7.207Z" fill="#ccc" stroke-width="0"/><circle cx="142.647" cy="240.99" r="8.208" fill="#fff" stroke-width="0"/><path d="M142.647,250.198c-5.077,0-9.208-4.131-9.208-9.208s4.131-9.207,9.208-9.207,9.208,4.13,9.208,9.207-4.131,9.208-9.208,9.208ZM142.647,233.783c-3.975,0-7.208,3.233-7.208,7.207s3.233,7.208,7.208,7.208,7.208-3.233,7.208-7.208-3.233-7.207-7.208-7.207Z" fill="#ccc" stroke-width="0"/><circle cx="177.353" cy="240.99" r="8.208" fill="#fff" stroke-width="0"/><path d="M177.353,250.198c-5.077,0-9.208-4.131-9.208-9.208s4.131-9.207,9.208-9.207,9.208,4.13,9.208,9.207-4.131,9.208-9.208,9.208ZM177.353,233.783c-3.975,0-7.208,3.233-7.208,7.207s3.233,7.208,7.208,7.208,7.208-3.233,7.208-7.208-3.233-7.207-7.208-7.207Z" fill="#ccc" stroke-width="0"/><circle cx="212.059" cy="240.99" r="8.208" fill="#fff" stroke-width="0"/><path d="M212.059,250.198c-5.077,0-9.208-4.131-9.208-9.208s4.131-9.207,9.208-9.207,9.208,4.13,9.208,9.207-4.131,9.208-9.208,9.208ZM212.059,233.783c-3.975,0-7.208,3.233-7.208,7.207s3.233,7.208,7.208,7.208,7.208-3.233,7.208-7.208-3.233-7.207-7.208-7.207Z" fill="#ccc" stroke-width="0"/><rect x="70.677" y="232.247" width="5.115" height="17.487" rx="2.558" ry="2.558" transform="translate(191.857 18.8) rotate(45)" fill="#fff" stroke-width="0"/><path d="M68.861,248.922c-.951,0-1.844-.37-2.516-1.042s-1.042-1.565-1.042-2.516.37-1.845,1.042-2.516l8.748-8.749c1.387-1.387,3.645-1.387,5.031,0,1.388,1.387,1.388,3.645,0,5.031l-8.749,8.749c-.672.672-1.564,1.042-2.515,1.042ZM77.609,235.059c-.398,0-.798.151-1.102.455l-8.748,8.749c-.294.294-.456.686-.456,1.102s.162.808.456,1.102c.607.607,1.595.606,2.202,0l8.749-8.749c.607-.607.607-1.596,0-2.203-.304-.304-.703-.455-1.102-.455Z" fill="#ccc" stroke-width="0"/><rect x="105.383" y="232.247" width="5.115" height="17.487" rx="2.558" ry="2.558" transform="translate(202.021 -5.741) rotate(45)" fill="#fff" stroke-width="0"/><path d="M103.567,248.92c-.91,0-1.821-.347-2.516-1.04h0c-1.387-1.388-1.387-3.645,0-5.031l8.749-8.749c1.387-1.387,3.645-1.387,5.031,0,1.386,1.388,1.386,3.644,0,5.031l-8.749,8.749c-.693.693-1.604,1.04-2.516,1.04ZM102.465,246.466c.607.607,1.596.606,2.203,0l8.749-8.749c.606-.607.606-1.596,0-2.203-.607-.607-1.596-.607-2.203,0l-8.749,8.749c-.606.607-.606,1.595,0,2.203Z" fill="#ccc" stroke-width="0"/><rect x="140.089" y="232.247" width="5.115" height="17.487" rx="2.558" ry="2.558" transform="translate(212.186 -30.282) rotate(45)" fill="#fff" stroke-width="0"/><path d="M138.273,248.92c-.911,0-1.822-.347-2.516-1.04h0c-.672-.672-1.042-1.565-1.042-2.516s.37-1.845,1.042-2.516l8.749-8.749c1.342-1.343,3.688-1.344,5.031,0,1.386,1.388,1.386,3.644,0,5.031l-8.749,8.749c-.693.693-1.604,1.04-2.516,1.04ZM137.171,246.466c.607.605,1.596.605,2.203,0l8.749-8.749c.606-.607.606-1.596,0-2.203-.588-.588-1.615-.588-2.203,0l-8.749,8.749c-.294.294-.456.686-.456,1.102s.162.807.456,1.102Z" fill="#ccc" stroke-width="0"/><rect x="174.795" y="232.247" width="5.115" height="17.487" rx="2.558" ry="2.558" transform="translate(222.351 -54.823) rotate(45)" fill="#fff" stroke-width="0"/><path d="M172.979,248.92c-.911,0-1.822-.347-2.516-1.04h0c-.672-.672-1.042-1.565-1.042-2.516s.37-1.845,1.042-2.516l8.749-8.749c1.343-1.344,3.689-1.343,5.03,0,1.388,1.387,1.388,3.645,0,5.031l-8.748,8.749c-.693.693-1.604,1.04-2.516,1.04ZM171.877,246.466c.607.605,1.596.605,2.203,0l8.748-8.749c.607-.607.607-1.596,0-2.203-.587-.587-1.613-.589-2.202,0l-8.749,8.749c-.294.294-.456.686-.456,1.102s.162.807.456,1.102Z" fill="#ccc" stroke-width="0"/><rect x="209.501" y="232.247" width="5.115" height="17.487" rx="2.558" ry="2.558" transform="translate(232.516 -79.364) rotate(45)" fill="#fff" stroke-width="0"/><path d="M207.685,248.92c-.911,0-1.822-.347-2.516-1.04h0c-.672-.672-1.042-1.565-1.042-2.516s.37-1.845,1.042-2.516l8.748-8.749c1.345-1.344,3.69-1.343,5.031,0,1.388,1.387,1.388,3.645,0,5.031l-8.748,8.749c-.693.693-1.604,1.04-2.516,1.04ZM206.583,246.466c.607.605,1.596.605,2.203,0l8.748-8.749c.607-.607.607-1.596,0-2.203-.588-.588-1.615-.588-2.203,0l-8.748,8.749c-.294.294-.456.686-.456,1.102s.162.807.456,1.102Z" fill="#ccc" stroke-width="0"/><circle cx="246.765" cy="240.99" r="8.208" fill="#fff" stroke-width="0"/><path d="M246.765,250.198c-5.077,0-9.208-4.131-9.208-9.208s4.131-9.207,9.208-9.207,9.208,4.13,9.208,9.207-4.131,9.208-9.208,9.208ZM246.765,233.783c-3.975,0-7.208,3.233-7.208,7.207s3.233,7.208,7.208,7.208,7.208-3.233,7.208-7.208-3.233-7.207-7.208-7.207Z" fill="#ccc" stroke-width="0"/><rect x="244.207" y="232.247" width="5.115" height="17.487" rx="2.558" ry="2.558" transform="translate(242.681 -103.905) rotate(45)" fill="#fff" stroke-width="0"/><path d="M242.391,248.92c-.911,0-1.822-.347-2.516-1.04h0c-.672-.672-1.042-1.565-1.042-2.516s.37-1.845,1.042-2.516l8.748-8.749c1.387-1.387,3.645-1.387,5.031,0,1.388,1.387,1.388,3.645,0,5.031l-8.748,8.749c-.693.693-1.604,1.04-2.516,1.04ZM241.289,246.466c.607.605,1.596.605,2.203,0l8.748-8.749c.607-.607.607-1.596,0-2.203s-1.596-.607-2.203,0l-8.748,8.749c-.294.294-.456.686-.456,1.102s.162.807.456,1.102Z" fill="#ccc" stroke-width="0"/><rect x="63.443" y="267.392" width="193.114" height="7.923" rx="2.842" ry="2.842" fill="#fff" stroke-width="0"/><path d="M253.714,276.315H66.285c-2.118,0-3.842-1.724-3.842-3.842v-2.239c0-2.118,1.724-3.842,3.842-3.842h187.429c2.119,0,3.843,1.724,3.843,3.842v2.239c0,2.118-1.724,3.842-3.843,3.842ZM66.285,268.392c-1.016,0-1.842.826-1.842,1.842v2.239c0,1.016.826,1.842,1.842,1.842h187.429c1.016,0,1.843-.826,1.843-1.842v-2.239c0-1.016-.827-1.842-1.843-1.842H66.285Z" fill="#ccc" stroke-width="0"/><path d="M268.635,261.236H51.365c-.828,0-1.5-.672-1.5-1.5s.672-1.5,1.5-1.5h217.27c.828,0,1.5.672,1.5,1.5s-.672,1.5-1.5,1.5Z" fill="#ccc" stroke-width="0"/><path d="M48.525,119.502c-.686,0-1.283-.464-1.453-1.128s.132-1.358.732-1.688l83.718-45.874c.221-.121.469-.185.721-.185h55.516c.252,0,.5.063.721.185l83.718,45.874c.601.329.902,1.023.732,1.688s-.768,1.128-1.453,1.128H48.525Z" fill="#eee" stroke-width="0"/><path d="M187.758,72.128l83.718,45.874H48.524l83.718-45.874h55.516M187.758,69.128h-55.516c-.504,0-1,.127-1.442.369l-83.718,45.874c-1.202.659-1.804,2.048-1.465,3.375.34,1.328,1.536,2.256,2.906,2.256h222.952c1.37,0,2.566-.928,2.906-2.256.34-1.327-.263-2.716-1.465-3.375l-83.718-45.874c-.442-.242-.938-.369-1.442-.369h0Z" fill="#333" stroke-width="0"/><rect x="47.025" y="116.502" width="225.951" height="19.886" rx="1.5" ry="1.5" fill="#ccc" stroke-width="0"/><path d="M271.476,118.001v16.886H48.524v-16.886h222.952M271.476,115.001H48.524c-1.657,0-3,1.343-3,3v16.886c0,1.657,1.343,3,3,3h222.952c1.657,0,3-1.343,3-3v-16.886c0-1.657-1.343-3-3-3h0Z" fill="#333" stroke-width="0"/><path d="M188.629,129.944h-57.258c-.828,0-1.5-.672-1.5-1.5s.672-1.5,1.5-1.5h57.258c.828,0,1.5.672,1.5,1.5s-.672,1.5-1.5,1.5Z" fill="#333" stroke-width="0"/><path d="M268.276,169.552H51.725c-.828,0-1.5-.672-1.5-1.5s.672-1.5,1.5-1.5h216.551c.828,0,1.5.672,1.5,1.5s-.672,1.5-1.5,1.5Z" fill="#f96302" stroke-width="0"/><rect x="47.021" y="163.102" width="9.902" height="9.902" fill="#f96302" stroke-width="0"/><rect x="263.076" y="163.102" width="9.902" height="9.902" fill="#f96302" stroke-width="0"/><path d="M268.635,220.745H51.365c-.828,0-1.5.672-1.5,1.5v97.755h3v-96.255h214.27v96.255h3v-97.755c0-.828-.672-1.5-1.5-1.5Z" fill="#ccc" stroke-width="0"/><path d="M251.266,286.546H68.734c-3.469,0-6.29,2.822-6.29,6.291v27.162h2v-27.162c0-2.366,1.925-4.291,4.29-4.291h182.532c2.366,0,4.291,1.925,4.291,4.291v27.162h2v-27.162c0-3.469-2.822-6.291-6.291-6.291Z" fill="#ccc" stroke-width="0"/><path d="M245.795,294.494H74.204c-2.104,0-3.814,1.711-3.814,3.814v21.692h.5v-21.692c0-1.827,1.487-3.314,3.314-3.314h171.591c1.827,0,3.314,1.487,3.314,3.314v21.692h.5v-21.692c0-2.104-1.711-3.814-3.814-3.814Z" fill="#ccc" stroke-width="0"/></svg>