<?xml version="1.0" encoding="UTF-8"?><svg id="a" xmlns="http://www.w3.org/2000/svg" viewBox="0 0 320 320"><path d="M52.866,224.745v95.255h9.578v-26.162c0-3.469,2.821-6.291,6.29-6.291h182.532c3.469,0,6.291,2.822,6.291,6.291v26.162h9.578v-95.255H52.866Z" fill="#fff" stroke-width="0"/><path d="M251.266,289.546H68.734c-2.365,0-4.29,1.925-4.29,4.291v26.162h5.946v-20.692c0-2.104,1.711-3.814,3.814-3.814h171.591c2.104,0,3.814,1.711,3.814,3.814v20.692h5.947v-26.162c0-2.366-1.925-4.291-4.291-4.291Z" fill="#fff" stroke-width="0"/><path d="M245.795,295.994H74.204c-1.827,0-3.314,1.487-3.314,3.314v20.692h178.22v-20.692c0-1.827-1.487-3.314-3.314-3.314Z" fill="#fff" stroke-width="0"/><rect x="132.242" y="0" width="55.516" height="70.93" fill="#ccc" stroke-width="0"/><path d="M132.242,73.93h55.516c1.657,0,3-1.343,3-3V0h-3v70.93h-55.516V0h-3v70.93c0,1.657,1.343,3,3,3Z" fill="#333" stroke-width="0"/><path d="M38.478,118.303c-.698,0-1.304-.481-1.461-1.162-.158-.68.175-1.379.802-1.686l93.764-45.874c.205-.101.431-.152.659-.152h55.517c.229,0,.454.052.659.152l93.764,45.874c.627.307.96,1.006.802,1.686-.157.681-.763,1.162-1.461,1.162H38.478Z" fill="#eee" stroke-width="0"/><path d="M187.758,70.93l93.764,45.874H38.478l93.764-45.874h55.516M187.758,67.93h-55.516c-.457,0-.908.104-1.318.305l-93.764,45.874c-1.254.614-1.919,2.011-1.604,3.371.315,1.36,1.526,2.323,2.923,2.323h243.044c1.396,0,2.608-.963,2.923-2.323.315-1.36-.35-2.758-1.604-3.371l-93.764-45.874c-.41-.201-.861-.305-1.318-.305h0Z" fill="#333" stroke-width="0"/><rect x="36.978" y="115.303" width="246.044" height="19.887" rx="1.5" ry="1.5" fill="#ccc" stroke-width="0"/><path d="M281.522,116.803v16.886H38.478v-16.886h243.044M281.522,113.803H38.478c-1.657,0-3,1.343-3,3v16.886c0,1.657,1.343,3,3,3h243.044c1.657,0,3-1.343,3-3v-16.886c0-1.657-1.343-3-3-3h0Z" fill="#333" stroke-width="0"/><path d="M188.629,128.747h-57.259c-.828,0-1.5-.672-1.5-1.5s.672-1.5,1.5-1.5h57.259c.828,0,1.5.672,1.5,1.5s-.672,1.5-1.5,1.5Z" fill="#333" stroke-width="0"/><circle cx="73.235" cy="241.99" r="8.208" fill="#fff" stroke-width="0"/><path d="M73.235,251.198c-5.077,0-9.207-4.131-9.207-9.208s4.13-9.207,9.207-9.207,9.208,4.13,9.208,9.207-4.131,9.208-9.208,9.208ZM73.235,234.783c-3.974,0-7.207,3.233-7.207,7.207s3.233,7.208,7.207,7.208,7.208-3.233,7.208-7.208-3.233-7.207-7.208-7.207Z" fill="#ccc" stroke-width="0"/><circle cx="107.941" cy="241.99" r="8.208" fill="#fff" stroke-width="0"/><path d="M107.941,251.198c-5.077,0-9.208-4.131-9.208-9.208s4.131-9.207,9.208-9.207,9.208,4.13,9.208,9.207-4.131,9.208-9.208,9.208ZM107.941,234.783c-3.975,0-7.208,3.233-7.208,7.207s3.233,7.208,7.208,7.208,7.208-3.233,7.208-7.208-3.233-7.207-7.208-7.207Z" fill="#ccc" stroke-width="0"/><circle cx="142.647" cy="241.99" r="8.208" fill="#fff" stroke-width="0"/><path d="M142.647,251.198c-5.077,0-9.208-4.131-9.208-9.208s4.131-9.207,9.208-9.207,9.208,4.13,9.208,9.207-4.131,9.208-9.208,9.208ZM142.647,234.783c-3.975,0-7.208,3.233-7.208,7.207s3.233,7.208,7.208,7.208,7.208-3.233,7.208-7.208-3.233-7.207-7.208-7.207Z" fill="#ccc" stroke-width="0"/><circle cx="177.353" cy="241.99" r="8.208" fill="#fff" stroke-width="0"/><path d="M177.353,251.198c-5.077,0-9.208-4.131-9.208-9.208s4.131-9.207,9.208-9.207,9.208,4.13,9.208,9.207-4.131,9.208-9.208,9.208ZM177.353,234.783c-3.975,0-7.208,3.233-7.208,7.207s3.233,7.208,7.208,7.208,7.208-3.233,7.208-7.208-3.233-7.207-7.208-7.207Z" fill="#ccc" stroke-width="0"/><circle cx="212.059" cy="241.99" r="8.208" fill="#fff" stroke-width="0"/><path d="M212.059,251.198c-5.077,0-9.208-4.131-9.208-9.208s4.131-9.207,9.208-9.207,9.208,4.13,9.208,9.207-4.131,9.208-9.208,9.208ZM212.059,234.783c-3.975,0-7.208,3.233-7.208,7.207s3.233,7.208,7.208,7.208,7.208-3.233,7.208-7.208-3.233-7.207-7.208-7.207Z" fill="#ccc" stroke-width="0"/><rect x="70.677" y="233.247" width="5.115" height="17.487" rx="2.558" ry="2.558" transform="translate(192.564 19.093) rotate(45)" fill="#fff" stroke-width="0"/><path d="M68.861,249.92c-.911,0-1.822-.347-2.516-1.04h0c-1.387-1.388-1.387-3.645,0-5.031l8.749-8.749c1.387-1.387,3.645-1.387,5.031,0,1.386,1.388,1.386,3.644,0,5.031l-8.749,8.749c-.693.693-1.604,1.04-2.516,1.04ZM67.759,247.466c.607.605,1.596.604,2.203,0l8.749-8.749c.606-.607.606-1.596,0-2.203-.607-.607-1.596-.607-2.203,0l-8.749,8.749c-.606.607-.606,1.595,0,2.203Z" fill="#ccc" stroke-width="0"/><rect x="105.383" y="233.247" width="5.115" height="17.487" rx="2.558" ry="2.558" transform="translate(202.729 -5.448) rotate(45)" fill="#fff" stroke-width="0"/><path d="M103.567,249.92c-.911,0-1.822-.347-2.516-1.04h0c-.672-.672-1.042-1.565-1.042-2.516s.37-1.845,1.042-2.516l8.749-8.749c1.342-1.342,3.688-1.344,5.031,0,1.386,1.388,1.386,3.644,0,5.031l-8.749,8.749c-.693.693-1.604,1.04-2.516,1.04ZM102.465,247.466c.607.605,1.596.605,2.203,0l8.749-8.749c.606-.607.606-1.596,0-2.203-.588-.588-1.615-.588-2.203,0l-8.749,8.749c-.294.294-.456.686-.456,1.102s.162.807.456,1.102Z" fill="#ccc" stroke-width="0"/><rect x="140.089" y="233.247" width="5.115" height="17.487" rx="2.558" ry="2.558" transform="translate(212.893 -29.989) rotate(45)" fill="#fff" stroke-width="0"/><path d="M138.273,249.92c-.911,0-1.822-.347-2.516-1.04h0c-.672-.672-1.042-1.565-1.042-2.516s.37-1.845,1.042-2.516l8.748-8.749c1.345-1.344,3.69-1.342,5.031,0,1.388,1.387,1.388,3.645,0,5.031l-8.748,8.749c-.693.693-1.604,1.04-2.516,1.04ZM137.171,247.466c.607.605,1.596.605,2.203,0l8.748-8.749c.607-.607.607-1.596,0-2.203-.588-.588-1.615-.588-2.203,0l-8.748,8.749c-.294.294-.456.686-.456,1.102s.162.807.456,1.102Z" fill="#ccc" stroke-width="0"/><rect x="174.795" y="233.247" width="5.115" height="17.487" rx="2.558" ry="2.558" transform="translate(223.058 -54.53) rotate(45)" fill="#fff" stroke-width="0"/><path d="M172.979,249.92c-.911,0-1.822-.347-2.516-1.04h0c-.672-.672-1.042-1.565-1.042-2.516s.37-1.845,1.042-2.516l8.748-8.749c1.387-1.387,3.645-1.387,5.031,0,1.388,1.387,1.388,3.645,0,5.031l-8.748,8.749c-.693.693-1.604,1.04-2.516,1.04ZM171.877,247.466c.607.605,1.596.605,2.203,0l8.748-8.749c.607-.607.607-1.596,0-2.203s-1.596-.607-2.203,0l-8.748,8.749c-.294.294-.456.686-.456,1.102s.162.807.456,1.102Z" fill="#ccc" stroke-width="0"/><rect x="209.501" y="233.247" width="5.115" height="17.487" rx="2.558" ry="2.558" transform="translate(233.223 -79.071) rotate(45)" fill="#fff" stroke-width="0"/><path d="M207.685,249.92c-.911,0-1.822-.347-2.516-1.04h0c-.672-.672-1.042-1.565-1.042-2.516s.37-1.845,1.042-2.516l8.748-8.749c1.387-1.387,3.645-1.387,5.031,0,1.388,1.387,1.388,3.645,0,5.031l-8.748,8.749c-.693.693-1.604,1.04-2.516,1.04ZM206.583,247.466c.607.605,1.596.605,2.203,0l8.748-8.749c.607-.607.607-1.596,0-2.203s-1.596-.607-2.203,0l-8.748,8.749c-.294.294-.456.686-.456,1.102s.162.807.456,1.102Z" fill="#ccc" stroke-width="0"/><circle cx="246.765" cy="241.99" r="8.208" fill="#fff" stroke-width="0"/><path d="M246.765,251.198c-5.077,0-9.208-4.131-9.208-9.208s4.131-9.207,9.208-9.207,9.208,4.13,9.208,9.207-4.131,9.208-9.208,9.208ZM246.765,234.783c-3.975,0-7.208,3.233-7.208,7.207s3.233,7.208,7.208,7.208,7.208-3.233,7.208-7.208-3.233-7.207-7.208-7.207Z" fill="#ccc" stroke-width="0"/><rect x="244.207" y="233.247" width="5.115" height="17.487" rx="2.558" ry="2.558" transform="translate(243.389 -103.612) rotate(45)" fill="#fff" stroke-width="0"/><path d="M242.391,249.92c-.911,0-1.822-.347-2.516-1.04h0c-.672-.672-1.042-1.565-1.042-2.516s.37-1.845,1.042-2.516l8.748-8.749c1.387-1.387,3.645-1.387,5.031,0,1.388,1.387,1.388,3.645,0,5.031l-8.748,8.749c-.693.693-1.604,1.04-2.516,1.04ZM241.289,247.466c.607.605,1.596.605,2.203,0l8.748-8.749c.607-.607.607-1.596,0-2.203s-1.596-.607-2.203,0l-8.748,8.749c-.294.294-.456.686-.456,1.102s.162.807.456,1.102Z" fill="#ccc" stroke-width="0"/><rect x="63.443" y="268.392" width="193.114" height="7.923" rx="2.842" ry="2.842" fill="#fff" stroke-width="0"/><path d="M253.714,277.315H66.285c-2.118,0-3.842-1.724-3.842-3.842v-2.239c0-2.118,1.724-3.842,3.842-3.842h187.429c2.119,0,3.843,1.724,3.843,3.842v2.239c0,2.118-1.724,3.842-3.843,3.842ZM66.285,269.392c-1.016,0-1.842.826-1.842,1.842v2.239c0,1.016.826,1.842,1.842,1.842h187.429c1.016,0,1.843-.826,1.843-1.842v-2.239c0-1.016-.827-1.842-1.843-1.842H66.285Z" fill="#ccc" stroke-width="0"/><path d="M268.635,262.236H51.366c-.828,0-1.5-.672-1.5-1.5s.672-1.5,1.5-1.5h217.27c.828,0,1.5.672,1.5,1.5s-.672,1.5-1.5,1.5Z" fill="#ccc" stroke-width="0"/><path d="M278.492,169.552H41.508c-.828,0-1.5-.672-1.5-1.5s.672-1.5,1.5-1.5h236.984c.828,0,1.5.672,1.5,1.5s-.672,1.5-1.5,1.5Z" fill="#f96302" stroke-width="0"/><rect x="36.804" y="163.102" width="9.902" height="9.902" fill="#f96302" stroke-width="0"/><rect x="273.293" y="163.102" width="9.902" height="9.902" fill="#f96302" stroke-width="0"/><path d="M268.635,221.745H51.366c-.828,0-1.5.672-1.5,1.5v96.755h3v-95.255h214.27v95.255h3v-96.755c0-.828-.672-1.5-1.5-1.5Z" fill="#ccc" stroke-width="0"/><path d="M251.266,287.546H68.734c-3.469,0-6.29,2.822-6.29,6.291v26.162h2v-26.162c0-2.366,1.925-4.291,4.29-4.291h182.532c2.366,0,4.291,1.925,4.291,4.291v26.162h2v-26.162c0-3.469-2.822-6.291-6.291-6.291Z" fill="#ccc" stroke-width="0"/><path d="M245.795,295.494H74.204c-2.104,0-3.814,1.711-3.814,3.814v20.692h.5v-20.692c0-1.827,1.487-3.314,3.314-3.314h171.591c1.827,0,3.314,1.487,3.314,3.314v20.692h.5v-20.692c0-2.104-1.711-3.814-3.814-3.814Z" fill="#ccc" stroke-width="0"/></svg>