<svg width="100" height="100" xmlns="http://www.w3.org/2000/svg"><g fill="none" fill-rule="evenodd"><path d="M86.257 55.351c0-3.527-5.318-6.678-13.655-8.758v1.618c5.666 1.65 9.154 3.842 9.154 6.163 0 3.725-8.985 6.899-21.581 8.115v3.674c15.127-1.456 26.082-5.744 26.082-10.812M50.066 63.005c-.409.003-.817.01-1.23.01-18.183 0-32.92-3.872-32.92-8.642 0-2.527 4.134-4.91 10.73-6.595V46.22c-9.239 2.065-15.232 5.385-15.232 9.131 0 6.264 16.756 11.341 37.423 11.341.412 0 .82-.004 1.23-.008v4.924l7.112-6.923-7.113-6.925v5.244z"/><path d="M31.21 49.623c.061 2.572.513 3.987 2.546 3.987 2.254 0 2.547-1.635 2.547-3.578 0-1.977-.452-3.8-3-3.8h-1.549v-2.949h1.516c1.936 0 2.646-1.696 2.646-3.517 0-2.071-.71-2.919-2.225-2.919-2 0-2.355 1.508-2.355 3.61h-4.254c0-4.362 2.386-6.56 6.706-6.56 4.125 0 6.574 1.789 6.574 5.713 0 2.667-1.32 4.425-3.479 4.896v.063c2.932.44 4.06 2.447 4.06 5.243 0 2.978-1.254 6.745-7.573 6.745-4.419 0-6.613-2.604-6.613-6.842v-.092h4.453zM48.972 53.61c2.255 0 2.514-1.883 2.514-4.395 0-3.014-.712-4.207-2.514-4.207-1.84 0-2.548 1.193-2.548 4.207.032 2.543.388 4.395 2.548 4.395zm2.16-14.063c0-1.696-.547-2.699-2.096-2.699-2.453 0-2.838 2.386-2.838 5.649v1.098h.063c.774-1.161 2.29-1.914 4.29-1.914 4.062 0 5.578 2.95 5.578 6.939 0 5.081-2.29 7.937-7.382 7.937-6.388 0-7.192-4.957-7.192-10.387 0-6.278.13-12.273 7.674-12.273 3.29 0 6.288 1.351 6.35 5.65h-4.447zM61.318 46.735c0 5.587.513 6.875 2.514 6.875 2.03 0 2.514-1.76 2.514-7.47V43.72c0-5.586-.517-6.873-2.514-6.873-2.031 0-2.514 1.756-2.514 7.47v2.417zm2.514-12.838c5.513 0 7.158 2.92 7.158 10.797 0 6.181-.354 11.863-7.158 11.863-5.515 0-7.16-2.916-7.16-10.796 0-6.151.355-11.864 7.16-11.864zM76.165 40.188c1.115 0 1.576-1.18 1.576-2.218 0-1.086-.46-2.245-1.576-2.245-1.089 0-1.551 1.159-1.551 2.245 0 1.038.462 2.218 1.55 2.218m0-6.233c2.525 0 4.173 1.536 4.173 4.015 0 2.477-1.648 3.987-4.172 3.987-2.498 0-4.147-1.51-4.147-3.987 0-2.479 1.65-4.015 4.147-4.015" fill="#FFF"/><path d="M86.257 55.351c0-3.527-5.318-6.678-13.655-8.758v1.618c5.666 1.65 9.154 3.842 9.154 6.163 0 3.725-8.985 6.899-21.581 8.115v3.674c15.127-1.456 26.082-5.744 26.082-10.812M50.066 63.005c-.409.003-.817.01-1.23.01-18.183 0-32.92-3.872-32.92-8.642 0-2.527 4.134-4.91 10.73-6.595V46.22c-9.239 2.065-15.232 5.385-15.232 9.131 0 6.264 16.756 11.341 37.423 11.341.412 0 .82-.004 1.23-.008v4.924l7.112-6.923-7.113-6.925v5.244z" fill="#FFF"/></g></svg>