<svg width="86" height="32" viewBox="0 0 86 32" fill="none" xmlns="http://www.w3.org/2000/svg">
<mask id="path-1-inside-1_5551_3688" fill="white">
<path d="M0 0.5H86V31.5H0V0.5Z"/>
</mask>
<path d="M86 29.5H0V33.5H86V29.5Z" fill="#121111" mask="url(#path-1-inside-1_5551_3688)"/>
<path d="M3.248 8.076H4.768V18.22H10.816V19.5H3.248V8.076ZM15.3546 11.036C16.5386 11.036 17.4666 11.468 18.1226 12.316C18.7786 13.164 19.0986 14.268 19.0986 15.612V15.772H12.9066V15.868C12.9066 17.452 13.8826 18.492 15.4826 18.492C16.6986 18.492 17.4026 17.9 17.6266 16.876H18.9706C18.6026 18.716 17.3066 19.692 15.4346 19.692C14.5706 19.692 13.8346 19.5 13.2426 19.116C12.0266 18.316 11.4666 16.748 11.4666 15.308C11.4666 14.092 11.8186 13.084 12.5546 12.268C13.2906 11.452 14.2346 11.036 15.3546 11.036ZM12.9066 14.572H17.6586C17.5786 13.244 16.6026 12.236 15.2586 12.236C13.9786 12.236 13.0186 13.164 12.9066 14.572ZM23.9004 11.036C26.2364 11.036 26.9884 11.964 26.9884 13.26V18.028C26.9884 18.332 27.1324 18.492 27.4204 18.492C27.5484 18.492 27.7084 18.46 27.8364 18.412V19.468C27.5804 19.612 27.2444 19.692 26.8604 19.692C26.1244 19.692 25.7084 19.276 25.7084 18.412C24.9884 19.26 24.0124 19.692 22.7964 19.692C21.1004 19.692 20.0604 18.86 20.0604 17.372C20.0604 16.636 20.3004 16.044 20.7804 15.612C21.2444 15.164 22.3484 14.844 24.1244 14.62C25.3244 14.476 25.6444 14.188 25.6444 13.596C25.6444 12.684 25.0844 12.236 23.8044 12.236C22.4604 12.236 21.8044 12.732 21.7404 13.804H20.3804C20.4764 11.964 21.7244 11.036 23.9004 11.036ZM21.5004 17.276C21.5004 18.044 22.0924 18.492 23.1004 18.492C24.6844 18.492 25.6284 17.564 25.6284 16.652V15.228C25.4044 15.388 25.0364 15.516 24.6684 15.564L23.2764 15.772C22.0764 15.948 21.5004 16.412 21.5004 17.276ZM33.2141 11.036C33.2781 11.036 33.3261 11.036 33.4061 11.036V12.476C31.3741 12.476 30.4141 13.532 30.4141 15.804V19.5H29.0541V11.228H30.3341V12.972H30.3661C31.0061 11.66 31.9181 11.036 33.2141 11.036ZM38.7115 11.036C40.7115 11.036 41.5595 12.092 41.5595 13.996V19.5H40.1995V13.852C40.1995 12.94 39.6075 12.236 38.5035 12.236C36.9515 12.236 36.0715 13.276 36.0715 14.78V19.5H34.7115V11.228H35.9915V12.54H36.0235C36.6315 11.5 37.4955 11.036 38.7115 11.036ZM48.3113 8.076H50.3913L53.9913 17.676L57.6073 8.076H59.6873V19.5H58.2473V9.996H58.2153L54.6473 19.5H53.3513L49.7833 9.996H49.7513V19.5H48.3113V8.076ZM65.5608 11.036C68.1048 11.036 69.5768 12.844 69.5768 15.372C69.5768 17.932 67.9928 19.692 65.5608 19.692C63.1608 19.692 61.5448 18.012 61.5448 15.372C61.5448 12.732 63.0807 11.036 65.5608 11.036ZM62.9848 15.372C62.9848 17.244 64.0568 18.492 65.5608 18.492C67.0488 18.492 68.1368 17.244 68.1368 15.372C68.1368 13.5 67.0488 12.236 65.5448 12.236C64.1048 12.236 62.9848 13.452 62.9848 15.372ZM75.2923 11.036C75.3563 11.036 75.4043 11.036 75.4843 11.036V12.476C73.4523 12.476 72.4923 13.532 72.4923 15.804V19.5H71.1323V11.228H72.4123V12.972H72.4443C73.0843 11.66 73.9963 11.036 75.2923 11.036ZM79.6671 11.036C80.8511 11.036 81.7791 11.468 82.4351 12.316C83.0911 13.164 83.4111 14.268 83.4111 15.612V15.772H77.2191V15.868C77.2191 17.452 78.1951 18.492 79.7951 18.492C81.0111 18.492 81.7151 17.9 81.9391 16.876H83.2831C82.9151 18.716 81.6191 19.692 79.7471 19.692C78.8831 19.692 78.1471 19.5 77.5551 19.116C76.3391 18.316 75.7791 16.748 75.7791 15.308C75.7791 14.092 76.1311 13.084 76.8671 12.268C77.6031 11.452 78.5471 11.036 79.6671 11.036ZM77.2191 14.572H81.9711C81.8911 13.244 80.9151 12.236 79.5711 12.236C78.2911 12.236 77.3311 13.164 77.2191 14.572Z" fill="#212120"/>
</svg>
