<svg width="80" height="32" viewBox="0 0 80 32" fill="none" xmlns="http://www.w3.org/2000/svg">
<mask id="path-1-inside-1_5551_3688" fill="white">
<path d="M0 0.5H80V31.5H0V0.5Z"/>
</mask>
<path d="M80 29.5H0V33.5H80V29.5Z" fill="#121111" mask="url(#path-1-inside-1_5551_3688)"/>
<path d="M7.088 7.804C9.616 7.804 11.28 9.1 11.296 11.42H9.856C9.68 9.852 8.736 9.084 7.024 9.084C5.392 9.084 4.464 9.788 4.464 11.036C4.464 11.484 4.672 11.836 5.04 12.14C5.424 12.428 6.448 12.732 8.128 13.068C10.576 13.564 11.776 14.54 11.776 16.364C11.776 17.436 11.328 18.268 10.464 18.86C9.6 19.468 8.544 19.772 7.312 19.772C4.576 19.772 2.608 18.364 2.592 15.74H4.032C4.048 17.5 5.408 18.492 7.36 18.492C9.2 18.492 10.256 17.756 10.256 16.412C10.256 15.34 9.504 14.732 7.04 14.268C5.408 13.948 4.336 13.564 3.776 13.084C3.216 12.588 2.944 11.948 2.944 11.148C2.944 9.036 4.72 7.804 7.088 7.804ZM13.399 8.076H14.759V12.444H14.791C15.175 11.564 16.231 11.036 17.399 11.036C19.399 11.036 20.247 12.092 20.247 13.996V19.5H18.887V13.852C18.887 12.94 18.295 12.236 17.191 12.236C15.655 12.236 14.759 13.276 14.759 14.78V19.5H13.399V8.076ZM25.8576 11.036C28.4016 11.036 29.8736 12.844 29.8736 15.372C29.8736 17.932 28.2896 19.692 25.8576 19.692C23.4576 19.692 21.8416 18.012 21.8416 15.372C21.8416 12.732 23.3776 11.036 25.8576 11.036ZM23.2816 15.372C23.2816 17.244 24.3536 18.492 25.8576 18.492C27.3456 18.492 28.4336 17.244 28.4336 15.372C28.4336 13.5 27.3456 12.236 25.8416 12.236C24.4016 12.236 23.2816 13.452 23.2816 15.372ZM35.5571 11.036C37.9571 11.036 39.3651 12.844 39.3651 15.388C39.3651 17.916 37.9251 19.692 35.5891 19.692C34.5651 19.692 33.4931 19.276 32.9171 18.396H32.8851V22.668H31.5251V11.228H32.8851V12.348H32.9171C33.3491 11.5 34.2931 11.036 35.5571 11.036ZM32.8371 15.356C32.8371 17.26 33.7971 18.492 35.4451 18.492C37.0131 18.492 37.9251 17.308 37.9251 15.292C37.9251 13.548 36.9651 12.236 35.3491 12.236C33.7171 12.236 32.8371 13.548 32.8371 15.356ZM45.6226 8.076H47.2386L53.2546 17.34H53.2866V8.076H54.7266V19.5H53.0626L47.0946 10.332H47.0626V19.5H45.6226V8.076ZM60.5295 11.036C63.0735 11.036 64.5455 12.844 64.5455 15.372C64.5455 17.932 62.9615 19.692 60.5295 19.692C58.1295 19.692 56.5135 18.012 56.5135 15.372C56.5135 12.732 58.0495 11.036 60.5295 11.036ZM57.9535 15.372C57.9535 17.244 59.0255 18.492 60.5295 18.492C62.0175 18.492 63.1055 17.244 63.1055 15.372C63.1055 13.5 62.0175 12.236 60.5135 12.236C59.0735 12.236 57.9535 13.452 57.9535 15.372ZM65.397 11.228H66.901L68.773 17.996H68.805L70.469 11.228H71.957L73.701 17.996H73.717L75.573 11.228H76.981L74.357 19.484L74.341 19.5H72.901L71.205 12.924H71.189L69.525 19.5H68.053L65.397 11.228Z" fill="#212120"/>
</svg>
