<?xml version="1.0" encoding="UTF-8"?><svg id="Layer_2" xmlns="http://www.w3.org/2000/svg" viewBox="0 0 220.5 50"><defs><style>.cls-1{fill:#fff;}.cls-2{fill:none;stroke:#fff;stroke-miterlimit:10;stroke-width:4px;}.cls-3{isolation:isolate;}</style></defs><g id="Layer_2-2"><g id="Layer_1_copy"><g><line class="cls-2" y1="48" x2="220.5" y2="48"/><g class="cls-3"><path class="cls-1" d="M48.3,0c2.6,0,4.6,.6,6.1,1.9,1.5,1.3,2.3,3.1,2.3,5.3h-2.9c-.3-3.1-2.2-4.7-5.7-4.7-1.6,0-2.9,.3-3.8,1s-1.3,1.7-1.3,3c0,.8,.3,1.5,1,2.1s2.8,1.3,6.3,2c2.5,.5,4.3,1.3,5.5,2.3,1.2,1,1.8,2.5,1.8,4.3,0,2.1-.9,3.8-2.6,5-1.7,1.2-3.9,1.8-6.3,1.8-2.9,0-5.2-.7-6.9-2.2-1.7-1.4-2.6-3.4-2.6-5.9h2.9c0,1.8,.6,3.1,1.9,4.1,1.2,1,2.8,1.4,4.8,1.4s3.3-.4,4.3-1.1,1.5-1.7,1.5-3.1c0-1.1-.5-2-1.5-2.6-1-.7-2.6-1.2-5-1.6-3.3-.7-5.6-1.5-6.6-2.4-1.1-1-1.6-2.2-1.6-3.8,0-2,.8-3.6,2.3-4.9,1.6-1.3,3.6-1.9,6.1-1.9Z"/><path class="cls-1" d="M63.6,.6V9.3h.1c.4-.9,1.1-1.6,2-2.1,1-.5,2-.7,3.2-.7,3.8,0,5.7,2,5.7,5.9v11h-2.7V12.1c0-.9-.3-1.7-.9-2.3s-1.4-.9-2.5-.9c-1.5,0-2.7,.5-3.6,1.4s-1.3,2.2-1.3,3.7v9.4h-2.7V.6h2.7Z"/><path class="cls-1" d="M85.8,6.5c2.5,0,4.4,.8,5.9,2.4,1.4,1.6,2.2,3.7,2.2,6.3s-.7,4.6-2.2,6.2-3.4,2.4-5.9,2.4-4.4-.8-5.8-2.4c-1.5-1.6-2.2-3.7-2.2-6.3s.7-4.8,2.2-6.3c1.4-1.5,3.3-2.3,5.8-2.3Zm-5.1,8.7c0,1.9,.5,3.4,1.4,4.5s2.2,1.7,3.7,1.7,2.7-.6,3.7-1.7,1.5-2.7,1.5-4.5c0-1.9-.5-3.4-1.4-4.5-1-1.2-2.2-1.7-3.7-1.7s-2.7,.6-3.7,1.8c-1,1-1.5,2.5-1.5,4.4Z"/><path class="cls-1" d="M105.2,6.5c2.3,0,4.2,.8,5.6,2.4,1.4,1.6,2,3.7,2,6.3s-.7,4.7-2.1,6.2c-1.4,1.6-3.2,2.4-5.5,2.4-1,0-2-.2-3-.6s-1.8-1.1-2.3-2h-.1v8.5h-2.7V6.9h2.7v2.2h.1c.9-1.7,2.7-2.6,5.3-2.6Zm-5.4,8.6c0,1.9,.5,3.4,1.4,4.6s2.2,1.7,3.9,1.7c1.6,0,2.8-.6,3.7-1.7,.9-1.1,1.3-2.7,1.3-4.7,0-1.8-.5-3.3-1.4-4.4-.9-1.1-2.2-1.7-3.8-1.7-1.5,0-2.8,.6-3.7,1.7-1,1.1-1.4,2.6-1.4,4.5Z"/><path class="cls-1" d="M128.6,.6l12,18.5h.1V.6h2.9V23.4h-3.3l-12-18.3h-.1V23.4h-2.9V.6h3.3Z"/><path class="cls-1" d="M155.2,6.5c2.5,0,4.4,.8,5.9,2.4,1.4,1.6,2.2,3.7,2.2,6.3s-.7,4.6-2.2,6.2c-1.4,1.6-3.4,2.4-5.9,2.4s-4.4-.8-5.8-2.4c-1.5-1.6-2.2-3.7-2.2-6.3s.7-4.8,2.2-6.3c1.3-1.5,3.3-2.3,5.8-2.3Zm-5.2,8.7c0,1.9,.5,3.4,1.4,4.5s2.2,1.7,3.7,1.7,2.7-.6,3.7-1.7,1.5-2.7,1.5-4.5c0-1.9-.5-3.4-1.4-4.5-1-1.2-2.2-1.7-3.7-1.7s-2.7,.6-3.7,1.8c-1,1-1.5,2.5-1.5,4.4Z"/><path class="cls-1" d="M167.9,6.9l3.7,13.5h.1l3.3-13.5h3l3.5,13.5h0l3.7-13.5h2.8l-5.2,16.5h-2.9l-3.4-13.2h0l-3.3,13.2h-2.9l-5.3-16.5h2.9Z"/></g></g></g></g></svg>