<svg width="41" height="39" viewBox="0 0 41 39" xmlns="http://www.w3.org/2000/svg"><title>New Lower Price 40x38</title><g fill="none" fill-rule="evenodd"><path fill="#00A349" d="M38.692 11.18H2.506l2.39 16.156H.866L20.6 38.389l19.734-11.053h-4.039l2.397-16.155"/><path fill="#F6BC25" d="M40.334.106H.866l1.64 11.075h36.185L40.334.106"/><path fill="#1A1919" d="M9.462 1.898h1.06l3.942 6.07h.021v-6.07h.943v7.486h-1.09l-3.912-6.008h-.02v6.008h-.944V1.898M16.942 1.898h5.17v.84h-4.174v2.38h3.89v.838h-3.89v2.59h4.206v.838h-5.202V1.898M30.01 9.384h-1.037l-1.709-6.29h-.02l-1.732 6.29h-1.038l-1.918-7.486h1.017l1.467 6.229h.02l1.68-6.229h1.077l1.658 6.229h.02l1.521-6.229h.995l-2 7.486"/><path fill="#FFFFFE" d="M5.376 13.911h1.407v5.217h3.12v1.184H5.375v-6.4M13.026 13.76c1.98 0 3.146 1.478 3.146 3.378 0 1.846-1.166 3.326-3.146 3.326-1.981 0-3.146-1.48-3.146-3.326 0-1.9 1.165-3.379 3.146-3.379zm0 5.52c1.263 0 1.74-1.075 1.74-2.142 0-1.12-.477-2.196-1.74-2.196-1.264 0-1.738 1.076-1.738 2.196 0 1.067.474 2.142 1.738 2.142zM22.8 20.312h-1.4l-1.085-4.356h-.018l-1.067 4.356h-1.425l-1.695-6.4h1.408l1.013 4.355h.018l1.111-4.356h1.317l1.096 4.41h.019l1.047-4.41h1.38l-1.72 6.401M24.944 13.911h4.787v1.184h-3.38v1.37h3.101v1.095h-3.1v1.568h3.45v1.184h-4.858v-6.4M30.53 13.911h3.451c1.149 0 1.873.798 1.873 1.766 0 .753-.303 1.318-1.012 1.605v.018c.69.178.886.85.93 1.497.029.403.02 1.155.27 1.515h-1.406c-.169-.404-.154-1.023-.224-1.534-.098-.672-.359-.968-1.067-.968h-1.407v2.502H30.53v-6.4zm1.408 2.896h1.54c.63 0 .968-.27.968-.915 0-.618-.338-.888-.967-.888h-1.54v1.803zM7.6 22.172h2.887c1.595 0 2.214 1.013 2.214 2.052 0 1.038-.619 2.053-2.214 2.053h-1.48v2.296H7.602v-6.4zm1.408 3.011H10.1c.655 0 1.238-.142 1.238-.96 0-.816-.583-.959-1.238-.959H9.008v1.92zM13.359 22.172h3.45c1.147 0 1.872.797 1.872 1.766 0 .752-.303 1.317-1.013 1.604v.018c.691.18.888.85.934 1.498.026.402.017 1.154.269 1.515h-1.409c-.169-.405-.15-1.024-.223-1.534-.099-.672-.359-.97-1.067-.97h-1.407v2.504H13.36v-6.4zm1.406 2.895h1.541c.628 0 .969-.27.969-.914 0-.617-.341-.889-.969-.889h-1.54v1.803zM19.609 22.172h1.408v6.4H19.61zM26.297 24.321c-.09-.633-.699-1.119-1.398-1.119-1.265 0-1.737 1.077-1.737 2.198 0 1.064.472 2.14 1.737 2.14.86 0 1.345-.59 1.453-1.434h1.362c-.145 1.595-1.248 2.617-2.815 2.617-1.98 0-3.146-1.48-3.146-3.323 0-1.902 1.167-3.382 3.146-3.382 1.407 0 2.59.826 2.76 2.303h-1.362M28.452 22.172h4.785v1.182h-3.38v1.372h3.102v1.094h-3.102v1.568h3.453v1.185h-4.858v-6.4"/></g></svg>