<svg xmlns="http://www.w3.org/2000/svg" viewBox="0 0 179.99 57.08"><defs><style>.cls-1{fill:#231f20;}.cls-2{fill:#eeb111;}</style></defs><g id="Layer_2" data-name="Layer 2"><g id="_4C" data-name="4C"><path class="cls-1" d="M176.91,12a3,3,0,0,1-3.1-3.14,3.09,3.09,0,1,1,6.18,0A3,3,0,0,1,176.91,12Zm0-5.75a2.45,2.45,0,0,0-2.42,2.61,2.42,2.42,0,1,0,4.83,0A2.44,2.44,0,0,0,176.91,6.27Zm-.62,4.41h-.58V7.19H177c.84,0,1.27.3,1.27,1a.89.89,0,0,1-.91,1l1,1.54h-.64l-.9-1.49h-.54Zm.64-2c.43,0,.8,0,.8-.55s-.41-.47-.75-.47h-.69v1Z"/><path class="cls-1" d="M40.41,6.18,31.6,38.38H26.48L20.25,15,13.93,38.38H8.81L0,6.18H5.07l6.28,23.39L17.67,6.18h5l6.36,23.39L35.34,6.18Z"/><path class="cls-1" d="M42.76,6.27l5.08-.41v7.89l-.09,2.95h.18a17.51,17.51,0,0,1,6.55-1.29c4.11,0,6.88,1.84,6.88,8.9V38.38H56.28V24.73c0-4.25-2.07-4.8-4.43-4.8a14,14,0,0,0-4,.69V38.38H42.76Z"/><path class="cls-1" d="M68.32,6.6c2.63,0,3.05,1.52,3.05,3.23s-.56,3.27-3.05,3.27-3-1.57-3-3.27S65.78,6.6,68.32,6.6Zm-2.54,9.13h5.08V38.38H65.78Z"/><path class="cls-1" d="M75.15,15.73h3.46l.69,1.85h.32a9.45,9.45,0,0,1,6.23-2.17,9.84,9.84,0,0,1,1.06,0v5a19.11,19.11,0,0,0-2.86-.28,8.83,8.83,0,0,0-3.83.92v17.3H75.15Z"/><path class="cls-1" d="M89.08,38.38V6.27l5.07-.41V38.38Z"/><path class="cls-1" d="M130.23,15.41c7.2,0,10,4.24,10,11.76,0,7.06-2.58,11.68-10.05,11.68S120,34.23,120,27.17C120,19.65,123,15.41,130.23,15.41ZM135,27.17c0-4.29-.7-7.79-4.76-7.79s-5.12,3.36-5.12,7.79c0,4.11.83,7.66,4.89,7.66S135,31.46,135,27.17Z"/><path class="cls-1" d="M153,15.41c7.2,0,10,4.24,10,11.76,0,7.06-2.58,11.68-10.06,11.68s-10.1-4.62-10.1-11.68C142.79,19.65,145.79,15.41,153,15.41Zm4.8,11.76c0-4.29-.69-7.79-4.75-7.79s-5.12,3.36-5.12,7.79c0,4.11.83,7.66,4.89,7.66S157.78,31.46,157.78,27.17Z"/><path class="cls-1" d="M166.24,38.38V6.27l5.07-.41V38.38Z"/><path class="cls-1" d="M98.31,15.73h3.82l.42,1.66a15.93,15.93,0,0,1,6.87-2c4.62,0,8,3.37,8,11.44S113.85,38.71,108,38.71a28.22,28.22,0,0,1-4.57-.46V48.63l-5.07.55Zm5.07,18.46c1.43,0,2.22.09,3.69.09,3.14,0,5.22-1.66,5.22-8.26,0-4.52-1.85-5.72-5.17-5.72a11.76,11.76,0,0,0-3.74.64Z"/><path class="cls-2" d="M123.43,1.81c-3.8-4.39-15.84-.53-29.28,8.77v2.34C106,4.51,116.42.63,119.41,4.09c3.73,4.33-5.55,18.47-20.73,31.57S68.16,55.86,64.43,51.54c-1.94-2.25-.36-7.14,3.73-13.16H65.78c-5.06,7.55-7,13.89-4.36,16.91,4.74,5.49,22.46-2,39.58-16.8S128.17,7.3,123.43,1.81Z"/></g></g></svg>