<?xml version="1.0" encoding="UTF-8" standalone="no"?>
<svg width="70px" height="33px" viewBox="0 0 70 33" version="1.1" xmlns="http://www.w3.org/2000/svg" xmlns:xlink="http://www.w3.org/1999/xlink">
    <title>services_logo_black</title>
    <g id="Page-1" stroke="none" stroke-width="1" fill="none" fill-rule="evenodd">
        <g id="windows_3-copy-19" transform="translate(-16.000000, -33.000000)">
            <g id="services_logo-copy" transform="translate(16.000000, 29.000000)">
                <g id="services_logo_black" transform="translate(0.000000, 4.000000)">
                    <g id="Layer_1">
                        <rect id="Rectangle-path" fill="#FFFFFF" x="0.0124260355" y="0" width="22.0313609" height="21.891375"></rect>
                        <rect id="Rectangle-path" fill="#f96302" x="0.368639053" y="0.367125" width="21.2568047" height="21.1695"></rect>
                        <path d="M20.5485207,20.46 C20.635503,20.46 20.7142012,20.46 20.7142012,20.348625 C20.7142012,20.23725 20.635503,20.249625 20.5650888,20.249625 L20.4201183,20.249625 L20.4201183,20.46 L20.5443787,20.46 L20.5485207,20.46 Z M20.4242604,20.84775 L20.316568,20.84775 L20.316568,20.158875 L20.5775148,20.158875 C20.6370235,20.1431886 20.7004758,20.1564568 20.7486241,20.1946546 C20.7967723,20.2328524 20.8239427,20.2914788 20.8218935,20.35275 C20.8253451,20.4018976 20.8081155,20.4502607 20.7743326,20.4862521 C20.7405498,20.5222434 20.6932577,20.5426201 20.643787,20.5425 L20.8384615,20.843625 L20.7100592,20.843625 L20.5278107,20.546625 L20.4201183,20.546625 L20.4201183,20.843625 L20.4242604,20.84775 Z M20.5485207,21.000375 C20.7498965,21.0037107 20.9333884,20.8856932 21.013169,20.7015244 C21.0929497,20.5173556 21.053247,20.3034443 20.9126319,20.1598464 C20.7720167,20.0162484 20.5582874,19.971352 20.3714148,20.0461572 C20.1845423,20.1209623 20.0614695,20.3006808 20.0597633,20.50125 C20.055239,20.6328035 20.1048655,20.7604895 20.1971459,20.8547273 C20.2894262,20.9489651 20.4163527,21.0015772 20.5485207,21.000375 L20.5485207,21.000375 Z M19.939645,20.50125 C19.9373653,20.1686479 20.2062537,19.8971788 20.5402274,19.8949033 C20.8742011,19.8926278 21.146794,20.1604076 21.1490841,20.4930096 C21.1513742,20.8256116 20.8824943,21.0970891 20.5485207,21.099375 C20.3874695,21.1027213 20.2319069,21.0410503 20.1172243,20.9283926 C20.0025417,20.8157349 19.9384913,20.6616705 19.939645,20.50125 L19.939645,20.50125 Z" id="Shape" fill="#FFFFFF"></path>
                        <path d="M11.208284,14.878875 C11.3620052,14.625917 11.3055082,14.2988772 11.0757396,14.111625 L7.82426036,10.8735 C7.63967387,10.6321826 7.30215924,10.5681581 7.04142012,10.725 L6.67692308,10.362 C8.12248521,9.1575 9.81656805,9.607125 11.0674556,10.852875 C12.3183432,12.098625 12.7698225,13.781625 11.560355,15.225375 L11.208284,14.878875 Z M6.77218935,11.022 C6.6165713,11.2745977 6.67329821,11.6029686 6.90473373,11.78925 L10.156213,15.027375 C10.3442375,15.2561999 10.672626,15.3124648 10.9266272,15.159375 L11.2911243,15.522375 C9.84556213,16.726875 8.15147929,16.273125 6.90059172,15.0315 C5.64970414,13.789875 5.19822485,12.10275 6.40769231,10.659 L6.77218935,11.022 Z" id="Shape" fill="#FFFFFF"></path>
                        <path d="M18.1254438,8.1345 C18.0417341,8.0494803 17.9085461,8.03726337 17.8106509,8.105625 C17.5207101,8.254125 17.491716,8.212875 17.2597633,7.981875 L13.9792899,4.7025 C13.7473373,4.4715 13.7017751,4.4385 13.8550296,4.153875 C13.9163475,4.05677192 13.902633,3.93043359 13.8218935,3.848625 C13.695224,3.75155944 13.5149233,3.76771985 13.4076923,3.88575 L11.7508876,5.53575 L13.1011834,8.01075 L13.1011834,8.01075 L10.504142,6.77325 L8.91360947,8.35725 C8.80135306,8.40216616 8.73209021,8.51522065 8.7433356,8.63517997 C8.754581,8.7551393 8.84366002,8.85347195 8.96232495,8.8769182 C9.08098988,8.90036446 9.20101708,8.84334778 9.25739645,8.73675 C9.36889651,8.66732654 9.51039343,8.66732654 9.62189349,8.73675 C9.75451924,8.77430701 9.8823778,8.82690125 10.0029586,8.8935 L15.1970414,11.45925 L15.3792899,11.27775 L12.8195266,6.6 L15.7189349,9.4875 C15.9508876,9.7185 15.9964497,9.7515 15.8431953,10.036125 C15.7802719,10.1328533 15.7941039,10.2602742 15.8763314,10.341375 C16.0030008,10.4384406 16.1833015,10.4222801 16.2905325,10.30425 L18.0633136,8.53875 C18.1818305,8.43195938 18.1980576,8.25239923 18.1005917,8.12625" id="Shape" fill="#FFFFFF"></path>
                        <path d="M13.2213018,11.4345 L12.1402367,10.357875 L10.7692308,9.67725 L10.7692308,9.67725 L12.8402367,11.793375 C13.5236686,12.676125 12.8775148,12.82875 13.1508876,13.096875 C13.3455621,13.29075 13.5899408,13.022625 13.656213,12.9525 L14.3686391,12.243 C14.4390533,12.172875 14.704142,11.933625 14.5094675,11.73975 C14.2402367,11.471625 14.0952663,12.115125 13.2005917,11.430375" id="Shape" fill="#FFFFFF"></path>
                        <path d="M9.81242604,17.97675 C10.4047337,17.370375 11.3242604,17.287875 12.2769231,18.154125 C12.6559215,18.441086 12.892648,18.8765497 12.9267375,19.3494729 C12.9608269,19.822396 12.7889843,20.287069 12.4550296,20.625 L12.252071,20.422875 C12.3285762,20.3254118 12.3571195,20.1988988 12.3298326,20.0782104 C12.3025457,19.9575221 12.2223097,19.8554018 12.1112426,19.8 L10.6076923,18.302625 C10.5503036,18.2041144 10.4545721,18.1336167 10.3431814,18.1078364 C10.2317906,18.0820562 10.1146538,18.1032876 10.0195266,18.1665 L9.81242604,17.97675 Z" id="Shape" fill="#FFFFFF"></path>
                        <path d="M13.3994083,16.75575 C13.4847321,16.5745266 13.4607256,16.3609495 13.3372781,16.203 C13.2806434,16.1378913 13.2806434,16.0412337 13.3372781,15.976125 C13.4449704,15.868875 13.5568047,16.01325 13.5857988,16.042125 L14.347929,16.801125 C14.3769231,16.83 14.5218935,16.93725 14.4100592,17.048625 C14.344682,17.1050271 14.2476257,17.1050271 14.1822485,17.048625 C14.0236477,16.9256845 13.8091897,16.9017766 13.6272189,16.98675 L13.3994083,16.75575 Z M14.6420118,17.99325 C14.8810753,17.6820114 14.9197254,17.2618139 14.7414201,16.9125 C14.6950289,16.8469475 14.6950289,16.7594275 14.7414201,16.693875 C14.7680671,16.6592005 14.8094101,16.6388639 14.8532544,16.6388639 C14.8970987,16.6388639 14.9384418,16.6592005 14.9650888,16.693875 L15.6692308,17.395125 L14.8408284,18.220125 L14.6420118,17.99325 Z M12.2189349,15.58425 L13.0059172,14.8005 L13.7224852,15.514125 C13.7224852,15.514125 13.8053254,15.60075 13.6976331,15.708 C13.6457469,15.7542179 13.5672709,15.7542179 13.5153846,15.708 C13.1720477,15.5049377 12.7383908,15.5344957 12.4260355,15.78225 L12.2189349,15.58425 Z M11.1295858,16.669125 L12.0615385,15.741 L14.7,18.368625 L13.7680473,19.29675 C13.7065159,19.3667434 13.6004624,19.3758484 13.5278107,19.317375 C13.4877131,19.2665282 13.4877131,19.1949718 13.5278107,19.144125 C13.6106509,18.98325 13.5899408,18.96675 13.4573964,18.83475 L11.5976331,16.995 C11.4692308,16.863 11.4485207,16.83825 11.2869822,16.924875 C11.2364779,16.9663679 11.1635221,16.9663679 11.1130178,16.924875 C11.0543032,16.8525216 11.0634457,16.7469037 11.1337278,16.685625 L11.1295858,16.669125 Z" id="Shape" fill="#FFFFFF"></path>
                        <path d="M13.7390533,14.85 C13.6065089,14.718 13.5899408,14.697375 13.4284024,14.779875 C13.377898,14.8213679 13.3049422,14.8213679 13.2544379,14.779875 C13.1957233,14.7075216 13.2048658,14.6019037 13.2751479,14.540625 L14.2112426,13.6125 L16.456213,15.84825 C16.5846154,15.976125 16.6053254,16.005 16.7668639,15.918375 C16.8179204,15.8784422 16.8897719,15.8784422 16.9408284,15.918375 C16.999543,15.9907284 16.9904004,16.0963463 16.9201183,16.157625 L15.9218935,17.15175 C15.8951596,17.1819389 15.85669,17.1992333 15.8162722,17.1992333 C15.7758544,17.1992333 15.7373848,17.1819389 15.7106509,17.15175 C15.6625169,17.1104483 15.651951,17.0402985 15.6857988,16.98675 C15.7686391,16.825875 15.7272189,16.825875 15.5946746,16.698 L13.7390533,14.85 Z M14.3686391,13.435125 C14.5887923,13.1760684 14.8749512,12.9808547 15.1970414,12.87 C15.5796235,12.7949819 15.9745638,12.9150354 16.2498678,13.1900371 C16.5251718,13.4650387 16.6445286,13.8587173 16.5680473,14.2395 C16.4567355,14.5602674 16.2607167,14.8452509 16.0005917,15.0645 L15.7934911,14.85 C15.8528662,14.7562174 15.8718347,14.64258 15.8461198,14.5347105 C15.8204049,14.426841 15.7521715,14.3338212 15.6568047,14.276625 L15.1224852,13.7445 C15.0657601,13.6551894 14.9748898,13.5928054 14.8708977,13.5717809 C14.7669056,13.5507564 14.6588021,13.5729131 14.5715976,13.633125 L14.3686391,13.435125 Z" id="Shape" fill="#FFFFFF"></path>
                        <path d="M19.0988166,13.68675 C19.1744159,13.5488907 19.1433846,13.377203 19.0242604,13.27425 L17.1976331,11.455125 C17.0942555,11.33649 16.9218598,11.3055862 16.783432,11.380875 L16.5680473,11.1375 C17.3964497,10.461 18.3366864,10.725 19.0532544,11.40975 C19.7698225,12.0945 20.0100592,13.05975 19.3307692,13.88475 L19.0988166,13.68675 Z M16.6136095,11.517 C16.5380102,11.6548593 16.5690414,11.826547 16.6881657,11.9295 L18.5147929,13.748625 C18.6181705,13.86726 18.7905662,13.8981638 18.9289941,13.822875 L19.1319527,14.025 C18.3035503,14.7015 17.3633136,14.4375 16.6467456,13.75275 C15.9301775,13.068 15.6899408,12.10275 16.3733728,11.27775 L16.6136095,11.517 Z" id="Shape" fill="#FFFFFF"></path>
                        <path d="M2.28639053,9.004875 L2.76272189,8.5305 L2.95325444,8.72025 C2.93821054,9.00204135 3.03659843,9.27817751 3.22662722,9.4875 C3.31448911,9.55255317 3.33300596,9.67610648 3.26804734,9.763875 C3.24138446,9.79268295 3.20383744,9.80907082 3.16449704,9.80907082 C3.12515665,9.80907082 3.08760962,9.79268295 3.06094675,9.763875 L2.28639053,9.004875 Z M5.12366864,7.717875 C5.1525954,7.74442837 5.16905085,7.78182118 5.16905085,7.821 C5.16905085,7.86017882 5.1525954,7.89757163 5.12366864,7.924125 C5.03553815,7.98881683 4.9114753,7.97037603 4.84615385,7.882875 C4.63634986,7.69615675 4.36084949,7.59975688 4.07988166,7.61475 L3.87692308,7.425 L4.35325444,6.950625 L5.12366864,7.717875 Z M2.89940828,8.382 L3.72781065,7.557 L5.83609467,9.656625 C5.96035503,9.780375 5.97692308,9.801 6.13017751,9.722625 C6.17727931,9.68466815 6.24461418,9.68466815 6.29171598,9.722625 C6.35167853,9.78486815 6.35167853,9.88313185 6.29171598,9.945375 L5.35147929,10.88175 C5.28846841,10.9441524 5.18667952,10.9441524 5.12366864,10.88175 C5.08706556,10.8343199 5.08706556,10.7683051 5.12366864,10.720875 C5.20236686,10.56825 5.1816568,10.55175 5.05739645,10.432125 L2.89940828,8.382 Z" id="Shape" fill="#FFFFFF"></path>
                        <path d="M7.2112426,6.727875 L6.91715976,7.0125 L6.72662722,6.82275 L7.01656805,6.534 L6.26686391,5.775 C6.14260355,5.65125 6.1260355,5.630625 5.97692308,5.709 C5.92929735,5.74545274 5.86301034,5.74545274 5.81538462,5.709 C5.75542206,5.64675685 5.75542206,5.54849315 5.81538462,5.48625 L6.76804734,4.5375 C6.83105822,4.47509762 6.93284711,4.47509762 6.99585799,4.5375 C7.03246106,4.58493012 7.03246106,4.65094488 6.99585799,4.698375 C6.91715976,4.851 6.93786982,4.8675 7.06213018,4.987125 L8.79763314,6.719625 C8.92189349,6.843375 8.93846154,6.864 9.09171598,6.785625 C9.13881778,6.74766815 9.20615264,6.74766815 9.25325444,6.785625 C9.31321699,6.84786815 9.31321699,6.94613185 9.25325444,7.008375 L8.31301775,7.94475 C8.2505179,8.00446628 8.15184896,8.00446628 8.08934911,7.94475 C8.05123573,7.89784165 8.05123573,7.83078335 8.08934911,7.783875 C8.16804734,7.63125 8.14733728,7.61475 8.02307692,7.495125 L7.2112426,6.727875 Z M7.56331361,7.965375 C7.68757396,8.089125 7.70414201,8.10975 7.85325444,8.031375 C7.90035624,7.99341815 7.9676911,7.99341815 8.0147929,8.031375 C8.07745263,8.09412709 8.07745263,8.19549791 8.0147929,8.25825 L7.04142012,9.19875 C6.97892027,9.25846628 6.88025133,9.25846628 6.81775148,9.19875 C6.7796381,9.15184165 6.7796381,9.08478335 6.81775148,9.037875 C6.8964497,8.88525 6.87573964,8.86875 6.75147929,8.749125 L5.01183432,7.016625 C4.88757396,6.892875 4.87100592,6.87225 4.72189349,6.950625 C4.67426777,6.98707774 4.60798075,6.98707774 4.56035503,6.950625 C4.50039247,6.88838185 4.50039247,6.79011815 4.56035503,6.727875 L5.51715976,5.775 C5.57965961,5.71528372 5.67832856,5.71528372 5.7408284,5.775 C5.77894179,5.82190835 5.77894179,5.88896665 5.7408284,5.935875 C5.66213018,6.0885 5.68284024,6.105 5.80710059,6.224625 L7.56331361,7.965375 Z" id="Shape" fill="#FFFFFF"></path>
                        <path d="M9.21597633,4.31475 C9.2954588,4.14371273 9.27142688,3.94267372 9.15384615,3.795 C9.09899975,3.73393171 9.09899975,3.64156829 9.15384615,3.5805 C9.25739645,3.477375 9.36094675,3.6135 9.38579882,3.63825 L10.1023669,4.351875 C10.1272189,4.376625 10.2639053,4.47975 10.160355,4.582875 C10.0990349,4.63749614 10.0062906,4.63749614 9.94497041,4.582875 C9.79248953,4.46953362 9.58871312,4.45195619 9.41893491,4.5375 L9.21597633,4.31475 Z M10.3964497,5.490375 C10.6278387,5.19059857 10.6603015,4.7832472 10.4792899,4.450875 C10.4350296,4.38919017 10.4350296,4.30630983 10.4792899,4.244625 C10.5044417,4.21327523 10.542547,4.19502181 10.5828402,4.19502181 C10.6231334,4.19502181 10.6612388,4.21327523 10.6863905,4.244625 L11.3491124,4.904625 L10.5869822,5.663625 L10.3964497,5.490375 Z M8.10591716,3.213375 L8.84733728,2.475 L9.52662722,3.147375 C9.55197153,3.17288069 9.56397282,3.20866881 9.55910452,3.24422303 C9.55423622,3.27977726 9.53305138,3.31105858 9.50177515,3.328875 C9.45262097,3.3739557 9.37696483,3.3739557 9.32781065,3.328875 C8.99947605,3.12985677 8.58062141,3.15965208 8.28402367,3.403125 L8.10591716,3.213375 Z M7.08284024,4.23225 L7.95680473,3.361875 L10.4420118,5.836875 L9.56804734,6.70725 C9.50554749,6.76696628 9.40687855,6.76696628 9.3443787,6.70725 C9.30626531,6.66034165 9.30626531,6.59328335 9.3443787,6.546375 C9.42307692,6.39375 9.40236686,6.37725 9.27810651,6.2535 L7.51775148,4.5375 C7.39349112,4.41375 7.37692308,4.393125 7.22781065,4.4715 C7.18070885,4.50945685 7.11337399,4.50945685 7.06627219,4.4715 C7.00630963,4.40925685 7.00630963,4.31099315 7.06627219,4.24875 L7.08284024,4.23225 Z" id="Shape" fill="#FFFFFF"></path>
                        <path d="M8.97573964,17.246625 C8.89359367,17.1662171 8.76673431,17.1525589 8.66923077,17.213625 C8.37928994,17.362125 8.35029586,17.320875 8.1183432,17.089875 L4.8295858,13.814625 C4.59763314,13.583625 4.55207101,13.550625 4.70532544,13.266 C4.76824884,13.1692717 4.75441681,13.0418508 4.67218935,12.96075 C4.54551987,12.8636844 4.3652192,12.8798449 4.25798817,12.997875 L2.4852071,14.763375 C2.36669019,14.8701656 2.35046312,15.0497258 2.44792899,15.175875 C2.52936427,15.2577647 2.65731061,15.27154 2.75443787,15.208875 C3.0443787,15.060375 3.07337278,15.101625 3.30532544,15.332625 L4.73017751,16.751625 L4.17100592,17.325 L4.53550296,17.688 L5.08639053,17.139375 L6.58579882,18.632625 C6.81775148,18.863625 6.86331361,18.896625 6.71005917,19.18125 C6.64874122,19.2783531 6.66245575,19.4046914 6.74319527,19.4865 C6.86986475,19.5835656 7.05016542,19.5674051 7.15739645,19.449375 L8.93017751,17.683875 C9.04869443,17.5770844 9.06492149,17.3975242 8.96745562,17.271375" id="Shape" fill="#FFFFFF"></path>
                        <path d="M6.62721893,19.606125 C6.54578366,19.5242353 6.41783732,19.51046 6.32071006,19.573125 C6.03076923,19.721625 6.00177515,19.680375 5.76982249,19.449375 L2.46035503,16.174125 C2.22840237,15.943125 2.18284024,15.910125 2.33609467,15.621375 C2.39901807,15.5246467 2.38518604,15.3972258 2.30295858,15.316125 C2.1762891,15.2190594 1.99598843,15.2352199 1.8887574,15.35325 L0.368639053,16.858875 L0.368639053,17.58075 L0.368639053,17.58075 C0.658579882,17.43225 0.687573964,17.4735 0.919526627,17.708625 L4.20828402,20.983875 C4.44023669,21.214875 4.48579882,21.247875 4.33254438,21.5325 L4.33254438,21.5325 L5.05325444,21.5325 L6.56508876,20.02275 C6.68360567,19.9159594 6.69983273,19.7363992 6.60236686,19.61025" id="Shape" fill="#FFFFFF"></path>
                        <path d="M11.1420118,21.45 L11.1047337,21.528375 L11.5189349,21.528375 L12.2934911,20.757 L9.65502959,18.15 L8.75207101,19.04925 C8.6816568,19.119375 8.60295858,19.218375 8.69408284,19.309125 C8.7852071,19.399875 8.85976331,19.342125 8.95502959,19.309125 C9.04571489,19.2959895 9.13547541,19.3382474 9.18284024,19.416375 L11.0301775,21.256125 C11.1095041,21.3025016 11.1522319,21.3925161 11.1378698,21.483" id="Shape" fill="#FFFFFF"></path>
                        <path d="M18.2538462,9.9825 L18.0508876,9.780375 L17.5414201,10.28775 L18.3698225,11.11275 C18.3980592,11.1433323 18.4378687,11.1607362 18.4795858,11.1607362 C18.5213029,11.1607362 18.5611124,11.1433323 18.5893491,11.11275 C18.6238412,11.0680555 18.6388797,11.0114452 18.631093,10.9556115 C18.6233064,10.8997777 18.5933459,10.8493916 18.547929,10.81575 C18.3455974,10.5899464 18.2426471,10.2927653 18.2621302,9.99075" id="Shape" fill="#FFFFFF"></path>
                        <path d="M20.2502959,9.075 C20.3204389,9.16663519 20.4515494,9.18502561 20.5443787,9.11625 C20.5750871,9.08812929 20.5925628,9.04848329 20.5925628,9.0069375 C20.5925628,8.96539171 20.5750871,8.92574571 20.5443787,8.897625 L19.7159763,8.072625 L19.2065089,8.58 L19.4136095,8.782125 C19.7168703,8.76272195 20.015277,8.86524943 20.2420118,9.06675" id="Shape" fill="#FFFFFF"></path>
                        <path d="M21.6254438,11.06325 C21.4639053,11.14575 21.4473373,11.121 21.3147929,10.993125 L19.0532544,8.757375 L18.2248521,9.6195 L20.4698225,11.85525 C20.5982249,11.983125 20.6230769,12.00375 20.5402367,12.164625 C20.4985727,12.2149219 20.4985727,12.2875781 20.5402367,12.337875 C20.6128885,12.3963484 20.718942,12.3872434 20.7804734,12.31725 L21.6088757,11.49225 L21.6088757,11.07975 L21.6254438,11.06325 Z" id="Shape" fill="#FFFFFF"></path>
                        <path d="M18.0011834,1.9635 C17.8937823,2.0801992 17.8937823,2.2593008 18.0011834,2.376 C18.2240704,2.65628552 18.2689596,3.0378734 18.1171598,3.361875 L18.5065089,3.749625 C18.8320054,3.5994324 19.2146255,3.64407408 19.4964497,3.865125 C19.6136302,3.972085 19.7934704,3.972085 19.9106509,3.865125 C20.1053254,3.67125 19.8485207,3.477375 19.7988166,3.427875 L18.4402367,2.0625 C18.3905325,2.013 18.195858,1.75725 18.0011834,1.951125" id="Shape" fill="#FFFFFF"></path>
                        <path d="M14.0828402,3.19275 C13.9643233,3.29954062 13.9480963,3.47910077 14.0455621,3.60525 C14.1269974,3.68713974 14.2549437,3.70091496 14.352071,3.63825 C14.6420118,3.48975 14.6710059,3.531 14.9029586,3.762 L18.191716,7.03725 C18.4236686,7.26825 18.4692308,7.30125 18.3159763,7.585875 C18.2546584,7.68297808 18.2683729,7.80931641 18.3491124,7.891125 C18.4757819,7.98819056 18.6560826,7.97203015 18.7633136,7.854 L20.4201183,6.204 L15.739645,1.546875 L14.0828402,3.19275 Z" id="Shape" fill="#FFFFFF"></path>
                        <path d="M21.6254438,3.9765 L20.9047337,3.25875 C20.8631316,3.18730973 20.7889772,3.14074766 20.7063158,3.13416191 C20.6236545,3.12757616 20.5430102,3.1618052 20.4905325,3.22575 C20.4087623,3.342173 20.4087623,3.497077 20.4905325,3.6135 C20.8354174,4.24168359 20.7753083,5.01342125 20.3372781,5.581125 L20.7100592,5.94 L21.6171598,5.036625 L21.6171598,3.9765 L21.6254438,3.9765 Z" id="Shape" fill="#FFFFFF"></path>
                        <path d="M18.6970414,1.142625 L17.9142012,0.367125 L16.9284024,0.367125 L16.0254438,1.266375 L16.3899408,1.629375 C16.9458518,1.18771826 17.7188536,1.13672544 18.3284024,1.5015 C18.4206163,1.58691182 18.5634074,1.58691182 18.6556213,1.5015 C18.8420118,1.315875 18.7301775,1.188 18.6970414,1.159125" id="Shape" fill="#FFFFFF"></path>
                        <path d="M64.404142,16.347375 C64.404142,17.172375 64.8183432,18.5625 67.2455621,18.5625 C67.8295858,18.5625 69.8674556,18.38925 69.8674556,16.396875 C69.8674556,15.208875 69.0390533,14.837625 68.1278107,14.619 L66.508284,14.2065 C66.1261932,14.1979733 65.8172249,13.8938939 65.804142,13.5135 C65.804142,12.915375 66.4337278,12.7215 66.9597633,12.7215 C68.1733728,12.7215 68.2852071,13.42275 68.3224852,13.715625 L69.656213,13.715625 C69.656213,12.890625 69.1011834,11.57475 67.0633136,11.57475 C64.9053254,11.57475 64.5076923,12.874125 64.5076923,13.6125 C64.5076923,15.068625 65.5431953,15.307875 66.6201183,15.5595 L67.3325444,15.7245 C68.0366864,15.8895 68.5378698,16.02975 68.5378698,16.5495 C68.5378698,17.25075 67.8047337,17.4075 67.1502959,17.4075 C65.9366864,17.4075 65.7502959,16.70625 65.7420118,16.339125 L64.408284,16.339125 L64.404142,16.347375 Z M63.5508876,11.7645 L58.6633136,11.7645 L58.6633136,18.385125 L63.708284,18.385125 L63.708284,17.213625 L60.0218935,17.213625 L60.0218935,15.497625 L63.2609467,15.497625 L63.2609467,14.326125 L60.0218935,14.326125 L60.0218935,12.931875 L63.5508876,12.931875 L63.5508876,11.7645 L63.5508876,11.7645 Z M57.6982249,13.930125 C57.6236686,12.9525 56.8201183,11.587125 54.8278107,11.587125 C53.1130178,11.587125 51.7710059,12.766875 51.7710059,15.081 C51.7710059,17.395125 53.0426036,18.5625 54.8112426,18.5625 C56.4680473,18.5625 57.4207101,17.556 57.7106509,16.1205 L56.3230769,16.1205 C56.2310441,16.8512547 55.5915038,17.3894915 54.8526627,17.358 C53.6763314,17.358 53.195858,16.289625 53.195858,15.0975 C53.195858,13.22475 54.1775148,12.783375 54.8526627,12.783375 C55.5706224,12.7118223 56.2182098,13.2150475 56.3230769,13.926 L57.7106509,13.926 L57.6982249,13.930125 Z M50.8639053,11.7645 L49.4763314,11.7645 L49.4763314,18.385125 L50.8639053,18.385125 L50.8639053,11.7645 L50.8639053,11.7645 Z M45.8934911,16.7805 L45.8934911,16.7805 L44.4686391,11.7645 L42.9775148,11.7645 L45.2183432,18.385125 L46.543787,18.385125 L48.8011834,11.7645 L47.3556213,11.7645 L45.8934911,16.7805 Z M38.4378698,14.67675 L38.4378698,12.907125 L40.1775148,12.907125 C41.0059172,12.907125 41.1508876,13.42275 41.1508876,13.773375 C41.1508876,14.42925 40.7988166,14.67675 40.0781065,14.67675 L38.4378698,14.67675 L38.4378698,14.67675 Z M37.0751479,18.38925 L38.4378698,18.38925 L38.4378698,15.794625 L39.8710059,15.794625 C40.8982249,15.794625 40.956213,16.14525 40.956213,17.032125 C40.9370809,17.4825948 40.9873686,17.9333247 41.1053254,18.368625 L42.6420118,18.368625 L42.6420118,18.20775 C42.343787,18.096375 42.343787,17.857125 42.343787,16.88775 C42.343787,15.65025 42.0455621,15.448125 41.5153846,15.208875 C42.1682478,14.9654508 42.5850396,14.3260937 42.5426036,13.633125 C42.5426036,13.05975 42.2195266,11.760375 40.4508876,11.760375 L37.0751479,11.760375 L37.0751479,18.385125 L37.0751479,18.38925 Z M35.8822485,11.7645 L30.9946746,11.7645 L30.9946746,18.385125 L36.035503,18.385125 L36.035503,17.213625 L32.3491124,17.213625 L32.3491124,15.497625 L35.5881657,15.497625 L35.5881657,14.326125 L32.3532544,14.326125 L32.3532544,12.931875 L35.8822485,12.931875 L35.8822485,11.7645 L35.8822485,11.7645 Z M24.5662722,16.347375 C24.5662722,17.172375 24.9804734,18.5625 27.4076923,18.5625 C27.991716,18.5625 30.0295858,18.38925 30.0295858,16.396875 C30.0295858,15.208875 29.2011834,14.837625 28.2899408,14.619 L26.6704142,14.2065 C26.2883234,14.1979733 25.9793551,13.8938939 25.9662722,13.5135 C25.9662722,12.915375 26.595858,12.7215 27.1218935,12.7215 C28.335503,12.7215 28.4473373,13.42275 28.4846154,13.715625 L29.8224852,13.715625 C29.8224852,12.890625 29.2674556,11.57475 27.2295858,11.57475 C25.0715976,11.57475 24.6739645,12.874125 24.6739645,13.6125 C24.6739645,15.068625 25.7094675,15.307875 26.7863905,15.5595 L27.4988166,15.7245 C28.2029586,15.8895 28.704142,16.02975 28.704142,16.5495 C28.704142,17.25075 27.9710059,17.4075 27.316568,17.4075 C26.1029586,17.4075 25.916568,16.70625 25.908284,16.339125 L24.5662722,16.339125 L24.5662722,16.347375 Z" id="Shape" fill="#333333"></path>
                        <path d="M50.8142012,3.337125 L45.9266272,3.337125 L45.9266272,9.95775 L50.9715976,9.95775 L50.9715976,8.78625 L47.2852071,8.78625 L47.2852071,7.07025 L50.5325444,7.07025 L50.5325444,5.902875 L47.2934911,5.902875 L47.2934911,4.508625 L50.8224852,4.508625 L50.8224852,3.337125 L50.8142012,3.337125 Z M44.6840237,3.337125 L42.6627219,3.337125 L41.4781065,8.55525 L41.4781065,8.55525 L40.2686391,3.337125 L38.2390533,3.337125 L38.2390533,9.95775 L39.535503,9.95775 L39.535503,4.426125 L39.535503,4.426125 L40.7491124,9.95775 L42.1118343,9.95775 L43.3544379,4.426125 L43.3544379,4.426125 L43.3544379,9.95775 L44.6508876,9.95775 L44.6508876,3.337125 L44.6840237,3.337125 Z M32.2869822,6.637125 C32.2869822,4.785 33.3431953,4.323 34.0928994,4.323 C34.8426036,4.323 35.8988166,4.785 35.8988166,6.637125 C35.8988166,8.48925 34.8426036,8.95125 34.0928994,8.95125 C33.3431953,8.95125 32.2869822,8.48925 32.2869822,6.637125 L32.2869822,6.637125 Z M30.8994083,6.637125 C30.8994083,9.74325 33.2147929,10.12275 34.0928994,10.12275 C34.9710059,10.12275 37.2781065,9.755625 37.2781065,6.6495 C37.2781065,3.543375 34.9627219,3.163875 34.0846154,3.163875 C33.2065089,3.163875 30.8911243,3.543375 30.8911243,6.6495 L30.8994083,6.637125 Z M28.5301775,6.991875 L28.5301775,9.961875 L29.9177515,9.961875 L29.9177515,3.337125 L28.5384615,3.337125 L28.5384615,5.845125 L25.9455621,5.845125 L25.9455621,3.337125 L24.5538462,3.337125 L24.5538462,9.95775 L25.9414201,9.95775 L25.9414201,6.98775 L28.5384615,6.98775 L28.5301775,6.991875 Z" id="Shape" fill="#333333"></path>
                        <rect id="Rectangle-path" fill="#333333" x="24.5289941" y="20.917875" width="45.3384615" height="0.9735"></rect>
                        <rect id="Rectangle-path" fill="#333333" x="24.5289941" y="0" width="45.3384615" height="0.9735"></rect>
                        <path d="M69.8798817,31.131375 L68.6372781,31.131375 L68.6372781,29.654625 L69.8798817,29.654625 L69.8798817,31.131375 L69.8798817,31.131375 Z M66.495858,30.525 C66.3767648,30.7576241 66.1868379,30.946771 65.9532544,31.065375 C65.714922,31.1763816 65.4541826,31.2314201 65.1911243,31.22625 C64.8387371,31.2495832 64.4915066,31.1323363 64.2260355,30.900375 C63.9718118,30.5953997 63.8509639,30.2016572 63.8905325,29.80725 L63.8905325,26.037 L65.2035503,26.037 L65.2035503,29.547375 C65.1843869,29.7412043 65.2310573,29.9358338 65.3360947,30.100125 C65.4445674,30.2100828 65.5958727,30.2673427 65.7502959,30.256875 C66.2142012,30.256875 66.4461538,29.981875 66.4461538,29.431875 L66.4461538,26.037 L67.7591716,26.037 L67.7591716,31.131375 L66.516568,31.131375 L66.516568,30.525 L66.516568,30.525 L66.495858,30.525 Z M59.3550296,27.427125 C59.4125174,27.1318291 59.5294639,26.8511877 59.6988166,26.602125 C59.8559223,26.3790489 60.0705704,26.2023352 60.3201183,26.090625 C60.6189023,25.9664625 60.9409,25.9073908 61.264497,25.917375 C61.5977227,25.9015844 61.9306053,25.954964 62.2420118,26.074125 C62.4938207,26.1783614 62.7086966,26.3550137 62.8591716,26.5815 C63.0203281,26.8326477 63.130119,27.1130065 63.1822485,27.4065 C63.2501202,27.7946385 63.2820099,28.1881703 63.2775148,28.582125 C63.2821937,28.9696174 63.2475004,29.3565874 63.1739645,29.737125 C63.1164767,30.0324209 62.9995302,30.3130623 62.8301775,30.562125 C62.6754023,30.7843734 62.4597378,30.9576282 62.2088757,31.06125 C61.9077961,31.1763008 61.5868572,31.2309728 61.264497,31.222125 C60.9320238,31.2371176 60.5998461,31.1866545 60.2869822,31.073625 C60.0359519,30.9762632 59.8206714,30.8050339 59.6698225,30.58275 C59.507573,30.332157 59.3976937,30.0515723 59.3467456,29.75775 C59.2793325,29.3723296 59.2474444,28.9815782 59.2514793,28.590375 C59.2465436,28.2028728 59.2812393,27.815877 59.3550296,27.435375 L59.3550296,27.427125 Z M60.5976331,29.308125 C60.6056405,29.500762 60.6362227,29.6918074 60.6887574,29.877375 C60.7271098,30.0163896 60.8013711,30.1429686 60.904142,30.2445 C61.0089613,30.3364038 61.1457449,30.3837853 61.2852071,30.3765 C61.5427012,30.382959 61.7708213,30.2121445 61.8360947,29.964 C61.9591564,29.5169547 62.0108727,29.0534194 61.9893491,28.590375 C62.0108727,28.1273306 61.9591564,27.6637953 61.8360947,27.21675 C61.7708213,26.9686055 61.5427012,26.797791 61.2852071,26.80425 C61.1457449,26.7969647 61.0089613,26.8443462 60.904142,26.93625 C60.8007478,27.0389329 60.7264435,27.1670083 60.6887574,27.3075 C60.6362227,27.4930676 60.6056405,27.684113 60.5976331,27.87675 L60.5976331,28.5945 L60.5976331,29.31225 L60.5976331,29.308125 Z M55.656213,31.832625 C55.8488372,31.8514325 56.0395312,31.7815453 56.1739645,31.642875 C56.2860546,31.4979147 56.3510782,31.3223525 56.360355,31.139625 L54.9230769,26.04525 L56.2899408,26.04525 L57.052071,29.568 L57.052071,29.568 L57.7189349,26.04525 L59.0319527,26.04525 L57.7893491,30.79725 C57.6996325,31.1454449 57.5903882,31.4883578 57.4621302,31.824375 C57.381367,32.0490941 57.2559958,32.2553174 57.0934911,32.43075 C56.9532529,32.5719122 56.7747926,32.6693756 56.5798817,32.71125 C56.3316568,32.7597832 56.0789557,32.7819074 55.8260355,32.77725 L55.295858,32.77725 L55.295858,31.791375 C55.4094478,31.8105058 55.5244423,31.8201643 55.639645,31.82025 L55.656213,31.832625 Z M51.2946746,26.04525 L51.2946746,26.725875 L51.2946746,26.725875 C51.4134042,26.497918 51.5784363,26.2970406 51.7792899,26.136 C51.9785617,25.984156 52.2243583,25.9054744 52.4751479,25.91325 L52.6035503,25.91325 L52.7236686,25.91325 L52.7236686,27.15075 L52.5207101,27.15075 L52.3177515,27.15075 C52.2016129,27.1501688 52.0859418,27.1654357 51.9739645,27.196125 C51.8598024,27.2275063 51.7528774,27.2807492 51.6591716,27.352875 C51.5617484,27.4285203 51.4836842,27.5260532 51.4313609,27.6375 C51.3727209,27.7671068 51.3430429,27.90785 51.3443787,28.05 L51.3443787,31.106625 L50.0313609,31.106625 L50.0313609,26.037 L51.2739645,26.037 L51.2946746,26.04525 Z M45.495858,27.435375 C45.5532354,27.140046 45.6701908,26.8593832 45.839645,26.610375 C45.9967507,26.3872989 46.2113989,26.2105852 46.4609467,26.098875 C46.7597307,25.9747125 47.0817284,25.9156408 47.4053254,25.925625 C47.7385511,25.9098344 48.0714337,25.963214 48.3828402,26.082375 C48.6346491,26.1866114 48.849525,26.3632637 49,26.58975 C49.161254,26.8408483 49.2710527,27.1212271 49.3230769,27.41475 C49.3910652,27.8028738 49.4229557,28.1964163 49.4183432,28.590375 C49.4231358,28.9778718 49.3884414,29.3648531 49.3147929,29.745375 C49.2574155,30.040704 49.1404601,30.3213668 48.9710059,30.570375 C48.8162307,30.7926234 48.6005662,30.9658782 48.3497041,31.0695 C48.0486245,31.1845508 47.7276856,31.2392228 47.4053254,31.230375 C47.0728522,31.2453676 46.7406745,31.1949045 46.4278107,31.081875 C46.1766473,30.9847434 45.9613038,30.813464 45.8106509,30.591 C45.6482998,30.3404587 45.5384121,30.0598527 45.487574,29.766 C45.4200457,29.3805943 45.3881567,28.9898323 45.3923077,28.598625 C45.387372,28.2111228 45.4220677,27.824127 45.495858,27.443625 L45.495858,27.435375 Z M46.7384615,29.316375 C46.7464689,29.509012 46.7770511,29.7000574 46.8295858,29.885625 C46.8679382,30.0246396 46.9421995,30.1512186 47.0449704,30.25275 C47.1497897,30.3446538 47.2865733,30.3920353 47.4260355,30.38475 C47.6835296,30.391209 47.9116497,30.2203945 47.9769231,29.97225 C48.1001204,29.5252305 48.1518391,29.0616738 48.1301775,28.598625 C48.1517701,28.1355784 48.1000526,27.6720324 47.9769231,27.225 C47.9116497,26.9768555 47.6835296,26.806041 47.4260355,26.8125 C47.2865733,26.8052147 47.1497897,26.8525962 47.0449704,26.9445 C46.9415762,27.0471829 46.8672719,27.1752583 46.8295858,27.31575 C46.7770511,27.5013176 46.7464689,27.692363 46.7384615,27.885 L46.7384615,28.60275 L46.7384615,29.3205 L46.7384615,29.316375 Z M42.4804734,26.9445 L42.4804734,26.037 L43.1473373,26.037 L43.1473373,25.4595 C43.1421075,25.2627304 43.1744353,25.0667609 43.2426036,24.882 C43.2920562,24.7366878 43.3775364,24.6061566 43.4911243,24.5025 C43.6129128,24.406124 43.7542206,24.3371676 43.9053254,24.300375 C44.092743,24.2573842 44.2846076,24.236615 44.4769231,24.2385 C44.7116371,24.2385 44.9463511,24.248125 45.1810651,24.267375 L45.1810651,25.1955 L45.0485207,25.1955 L44.9242604,25.1955 C44.7874927,25.1831022 44.6504799,25.216489 44.5349112,25.290375 C44.4501908,25.3717421 44.4074718,25.4872175 44.4189349,25.603875 L44.4189349,26.049375 L45.1810651,26.049375 L45.1810651,26.940375 L44.4189349,26.940375 L44.4189349,31.131375 L43.1059172,31.131375 L43.1059172,26.928 L42.4390533,26.928 L42.4804734,26.9445 Z M39.552071,24.597375 L39.552071,26.0535 L40.3142012,26.0535 L40.3142012,26.9445 L39.547929,26.9445 L39.547929,29.7 C39.5393965,29.843248 39.5709413,29.9860445 39.6390533,30.1125 C39.7369467,30.2126767 39.8770337,30.2602027 40.0159763,30.240375 L40.1775148,30.240375 L40.3183432,30.240375 L40.3183432,31.147875 L39.904142,31.147875 L39.4899408,31.147875 C39.281542,31.1512568 39.0733464,31.1332873 38.8686391,31.09425 C38.725559,31.0698781 38.5953307,30.9970166 38.5,30.888 C38.4078858,30.7673818 38.3480279,30.6254484 38.3260355,30.4755 C38.2915923,30.2627843 38.2763441,30.0474244 38.2804734,29.832 L38.2804734,26.928 L37.5680473,26.928 L37.5680473,26.037 L38.2349112,26.037 L38.2349112,24.580875 L39.547929,24.580875 L39.552071,24.597375 Z M37.1207101,31.131375 L35.8118343,31.131375 L35.8118343,26.037 L37.1248521,26.037 L37.1248521,31.131375 L37.1207101,31.131375 Z M37.1207101,25.414125 L35.8118343,25.414125 L35.8118343,24.29625 L37.1248521,24.29625 L37.1248521,25.41 L37.1207101,25.414125 Z M29.039645,27.427125 C29.0971328,27.1318291 29.2140793,26.8511877 29.383432,26.602125 C29.5405377,26.3790489 29.7551858,26.2023352 30.0047337,26.090625 C30.3035177,25.9664625 30.6255153,25.9073908 30.9491124,25.917375 C31.2823381,25.9015844 31.6152207,25.954964 31.9266272,26.074125 C32.1784361,26.1783614 32.393312,26.3550137 32.543787,26.5815 C32.7049435,26.8326477 32.8147343,27.1130065 32.8668639,27.4065 C32.9347356,27.7946385 32.9666253,28.1881703 32.9621302,28.582125 C32.9669228,28.9696218 32.9322284,29.3566031 32.8585799,29.737125 C32.8010921,30.0324209 32.6841456,30.3130623 32.5147929,30.562125 C32.3618028,30.7889494 32.1459615,30.9666453 31.8934911,31.073625 C31.5924115,31.1886758 31.2714726,31.2433478 30.9491124,31.2345 C30.6166392,31.2494926 30.2844615,31.1990295 29.9715976,31.086 C29.7205673,30.9886382 29.5052868,30.8174089 29.3544379,30.595125 C29.1921884,30.344532 29.0823091,30.0639473 29.0313609,29.770125 C28.9639479,29.3847046 28.9320598,28.9939532 28.9360947,28.60275 C28.9311589,28.2152478 28.9658546,27.828252 29.039645,27.44775 L29.039645,27.427125 Z M30.2822485,29.3205 C30.2902559,29.513137 30.320838,29.7041824 30.3733728,29.88975 C30.4117252,30.0287646 30.4859865,30.1553436 30.5887574,30.256875 C30.6935767,30.3487788 30.8303603,30.3961603 30.9698225,30.388875 C31.2273165,30.395334 31.4554367,30.2245195 31.5207101,29.976375 C31.6437718,29.5293297 31.6954881,29.0657944 31.6739645,28.60275 C31.6905392,28.1374603 31.6332257,27.6724829 31.504142,27.225 C31.4388686,26.9768555 31.2107485,26.806041 30.9532544,26.8125 C30.8137923,26.8052147 30.6770087,26.8525962 30.5721893,26.9445 C30.4687951,27.0471829 30.3944908,27.1752583 30.3568047,27.31575 C30.30427,27.5013176 30.2736879,27.692363 30.2656805,27.885 L30.2656805,28.60275 L30.2656805,29.3205 L30.2822485,29.3205 Z M25.7633136,29.85675 C25.8216981,30.1112069 26.0567866,30.2859255 26.3183432,30.26925 C26.5834116,30.2887181 26.8236222,30.1141021 26.8857988,29.85675 C26.9845281,29.4519192 27.0277218,29.0356323 27.0142012,28.61925 C27.0277218,28.2028677 26.9845281,27.7865808 26.8857988,27.38175 C26.8236222,27.1243979 26.5834116,26.9497819 26.3183432,26.96925 C26.0567866,26.9525745 25.8216981,27.1272931 25.7633136,27.38175 C25.6644835,27.7865635 25.6212884,28.2028641 25.6349112,28.61925 C25.6212884,29.0356359 25.6644835,29.4519365 25.7633136,29.85675 L25.7633136,29.85675 Z M27.0514793,30.6075 C26.9375209,30.8163753 26.7685445,30.9903621 26.5627219,31.11075 C26.3537957,31.2110363 26.1234988,31.2591717 25.891716,31.251 C25.4116523,31.2816299 24.954025,31.0450222 24.7029586,30.636375 C24.4022413,30.0024808 24.2709824,29.301993 24.3218935,28.60275 C24.2698811,27.8941176 24.4010755,27.184033 24.7029586,26.54025 C24.9483812,26.1238522 25.4077796,25.8799522 25.891716,25.909125 C26.112834,25.9029173 26.3316078,25.9556061 26.5254438,26.06175 C26.7146332,26.176317 26.8759124,26.3312982 26.9976331,26.5155 L26.9976331,26.5155 L26.9976331,24.3705 L28.3106509,24.3705 L28.3106509,31.131375 L27.0680473,31.131375 L27.0680473,30.591 L27.0680473,30.591 L27.0514793,30.6075 Z" id="Shape" fill="#333333"></path>
                        <path d="M19.0988166,29.634 C19.0888275,29.8279454 19.150738,30.018786 19.2727811,30.17025 C19.4030231,30.3111029 19.5904309,30.3854547 19.7822485,30.372375 C19.9569415,30.3810463 20.1289418,30.3268764 20.2668639,30.21975 C20.3940481,30.1041836 20.4611817,29.937039 20.4491124,29.766 C20.4551351,29.6258614 20.3991119,29.4901483 20.295858,29.39475 C20.1982485,29.3084267 20.0860635,29.2399956 19.964497,29.192625 L19.0532544,28.875 C18.7311822,28.7790956 18.4436124,28.5929429 18.2248521,28.33875 C18.0320462,28.0840326 17.9339628,27.7705801 17.9473373,27.451875 C17.9459896,27.2506513 17.981067,27.0508328 18.0508876,26.862 C18.1204641,26.6755909 18.2341269,26.5086269 18.3822485,26.37525 C18.5522652,26.2267039 18.751021,26.1143978 18.9662722,26.04525 C19.2446259,25.956931 19.5357415,25.9151156 19.8278107,25.9215 C20.2999361,25.88371 20.769701,26.0186344 21.1491124,26.301 C21.4386892,26.5788265 21.5902796,26.9698332 21.5633136,27.369375 L21.5633136,27.57975 L20.4118343,27.57975 C20.4348656,27.371953 20.3944477,27.1620682 20.295858,26.9775 C20.1799728,26.8467562 20.0047852,26.7844461 19.8319527,26.8125 C19.6828985,26.8130716 19.5378714,26.860734 19.4177515,26.948625 C19.2901641,27.0463525 19.2201897,27.2012126 19.2313609,27.361125 C19.2306013,27.4856229 19.2730318,27.6065632 19.3514793,27.7035 C19.4740203,27.8303746 19.6308268,27.919201 19.8029586,27.95925 L20.5899408,28.22325 C20.9285903,28.3154356 21.232528,28.5047958 21.4639053,28.76775 C21.6476546,29.0353191 21.7378965,29.3556664 21.7207101,29.679375 C21.7272483,29.9220232 21.6791275,30.1630485 21.5798817,30.38475 C21.4829103,30.5799496 21.3409853,30.7495601 21.1656805,30.87975 C20.9886073,31.0169252 20.7836614,31.1140507 20.5650888,31.164375 C20.3141092,31.2239312 20.0568144,31.2530177 19.7988166,31.251 C19.4904039,31.2581347 19.1824507,31.2234414 18.883432,31.147875 C18.6668237,31.0933923 18.4674282,30.9855936 18.3035503,30.834375 C18.1607845,30.6945316 18.0578689,30.5194396 18.0053254,30.327 C17.945305,30.1093549 17.9160294,29.8844423 17.9183432,29.65875 L17.9183432,29.464875 L19.0988166,29.464875 L19.0988166,29.634 L19.0988166,29.634 Z M16.083432,30.525 C15.9643388,30.7576241 15.7744118,30.946771 15.5408284,31.065375 C15.302496,31.1763816 15.0417566,31.2314201 14.7786982,31.22625 C14.426311,31.2495832 14.0790806,31.1323363 13.8136095,30.900375 C13.5593857,30.5953997 13.4385379,30.2016572 13.4781065,29.80725 L13.4781065,26.037 L14.7911243,26.037 L14.7911243,29.5515 C14.7666908,29.746631 14.8090079,29.9442682 14.9112426,30.1125 C15.0197153,30.2224578 15.1710207,30.2797177 15.3254438,30.26925 C15.7865878,30.26925 16.0185404,29.99425 16.0213018,29.44425 L16.0213018,26.037 L17.3343195,26.037 L17.3343195,31.131375 L16.091716,31.131375 L16.091716,30.525 L16.091716,30.525 L16.083432,30.525 Z" id="Shape" fill="#231F20"></path>
                        <path d="M10.1727811,24.580875 L10.1727811,26.037 L10.9349112,26.037 L10.9349112,26.928 L10.1727811,26.928 L10.1727811,29.7 C10.164029,29.8432651 10.1955868,29.9861208 10.2639053,30.1125 C10.3617987,30.2126767 10.5018858,30.2602027 10.6408284,30.240375 L10.7692308,30.240375 L10.9100592,30.240375 L10.9100592,31.147875 L10.495858,31.147875 L10.0816568,31.147875 C9.87326312,31.1511119 9.66508235,31.1331436 9.46035503,31.09425 C9.3168288,31.0684586 9.18662754,30.9941553 9.09171598,30.883875 C8.99960173,30.7632568 8.93974385,30.6213234 8.91775148,30.471375 C8.88341796,30.2586467 8.86817039,30.0432965 8.87218935,29.827875 L8.87218935,26.928 L8.19289941,26.928 L8.19289941,26.037 L8.85976331,26.037 L8.85976331,24.580875 L10.1727811,24.580875 L10.1727811,24.580875 Z M5.38461538,29.1885 C5.38407258,29.3362609 5.39515182,29.4838372 5.41775148,29.629875 C5.43589504,29.7607175 5.47213635,29.8884293 5.52544379,30.009375 C5.57009441,30.1116361 5.63818705,30.2020534 5.72426036,30.273375 C5.81034175,30.340539 5.9173202,30.3755655 6.02662722,30.372375 C6.21893588,30.3868424 6.40414963,30.2969806 6.5112426,30.13725 C6.63135786,29.9156389 6.70200154,29.6708086 6.7183432,29.4195 L7.9112426,29.4195 C7.92004247,29.912717 7.75104736,30.3927408 7.43491124,30.7725 C7.06028989,31.11188 6.56003721,31.2794421 6.0556213,31.2345 C5.66987209,31.255701 5.28538344,31.1745641 4.94142012,30.999375 C4.68766753,30.8544463 4.48293227,30.637629 4.35325444,30.3765 C4.22314409,30.1029417 4.1445255,29.8079348 4.12130178,29.506125 C4.09368836,29.184375 4.07988166,28.862625 4.07988166,28.540875 C4.07576678,28.2097936 4.09653482,27.8788696 4.14201183,27.550875 C4.1853132,27.2606603 4.28221374,26.9809427 4.42781065,26.725875 C4.57317267,26.4774118 4.78554157,26.2744893 5.0408284,26.140125 C5.37199113,25.9805391 5.73778502,25.9054128 6.10532544,25.9215 C6.42761328,25.9099462 6.74815697,25.9735091 7.04142012,26.107125 C7.27835496,26.2233573 7.47781789,26.4034228 7.61715976,26.626875 C7.76723593,26.8799038 7.86444601,27.1605149 7.90295858,27.451875 C7.95558072,27.8041524 7.98050852,28.1599834 7.97751479,28.516125 L7.97751479,28.809 L5.38461538,28.809 L5.38461538,29.2215 L5.38461538,29.1885 Z M6.6852071,27.489 C6.67123161,27.3582759 6.63772576,27.2303644 6.58579882,27.1095 C6.54440836,27.0132226 6.47520283,26.9313785 6.38698225,26.874375 C6.28703142,26.8246163 6.17525853,26.8032098 6.06390533,26.8125 C5.94798969,26.8079515 5.83355633,26.8396881 5.73668639,26.90325 C5.65091456,26.9641024 5.58126568,27.0447898 5.53372781,27.138375 C5.48185517,27.2411022 5.44556313,27.3509213 5.4260355,27.46425 C5.40394341,27.5826072 5.39285114,27.7027402 5.39289941,27.823125 L5.39289941,28.021125 L6.73491124,28.021125 C6.73491124,27.825875 6.72248521,27.654 6.69763314,27.5055 L6.6852071,27.489 Z M0,24.3705 L1.36686391,24.3705 L1.36686391,30.0135 L3.79408284,30.0135 L3.79408284,31.131375 L0,31.131375 L0,24.3705 L0,24.3705 Z" id="Shape" fill="#333333"></path>
                    </g>
                </g>
            </g>
        </g>
    </g>
</svg>