<?xml version="1.0" encoding="utf-8"?>
<!-- Generator: Adobe Illustrator 28.0.0, SVG Export Plug-In . SVG Version: 6.00 Build 0)  -->
<svg version="1.1" id="Layer_1" xmlns="http://www.w3.org/2000/svg" xmlns:xlink="http://www.w3.org/1999/xlink" x="0px" y="0px"
	 viewBox="0 0 896.6 210.3" style="enable-background:new 0 0 896.6 210.3;" xml:space="preserve">
<style type="text/css">
	.st0{fill-rule:evenodd;clip-rule:evenodd;fill:url(#SVGID_1_);}
</style>
<linearGradient id="SVGID_1_" gradientUnits="userSpaceOnUse" x1="448.2852" y1="7.2768" x2="448.2852" y2="203.0298">
	<stop  offset="0" style="stop-color:#4E2FD2"/>
	<stop  offset="4.420000e-02" style="stop-color:#4942D0"/>
	<stop  offset="0.1643" style="stop-color:#3E70CA"/>
	<stop  offset="0.289" style="stop-color:#3497C6"/>
	<stop  offset="0.4166" style="stop-color:#2BB7C2"/>
	<stop  offset="0.548" style="stop-color:#25D0BF"/>
	<stop  offset="0.6848" style="stop-color:#21E2BD"/>
	<stop  offset="0.8304" style="stop-color:#1EEDBB"/>
	<stop  offset="1" style="stop-color:#1DF0BB"/>
</linearGradient>
<path class="st0" d="M208.3,150.5L275.5,7.3h35.8L219.5,203h-22.4l-38-80.5l-38,80.5H98.7L7,7.3h35.8l67.1,142.1l31.3-66L105.4,7.3
	h35.8L208.3,150.5z M481.3,7.3l-61.5,98.4L358.2,7.3h-38l83.9,133.1v61.5h32.4v-61.5L519.3,7.3H481.3z M719.5,203h170v-33.6h-170
	V203z M719.5,40.8h170V7.3h-170V40.8z M719.5,121.4h170V87.8h-170V121.4z M529.4,7.3v32.4h111.9L516,203h182.3v-32.4H583.1
	L709.5,7.3H529.4z"/>
</svg>
