<svg width="92" height="40" viewBox="0 0 92 40" fill="none" xmlns="http://www.w3.org/2000/svg">
<mask id="path-1-inside-1_1565_1650" fill="white">
<path d="M0 0H92V40H0V0Z"/>
</mask>
<path d="M92 40V38H0V40V42H92V40Z" fill="#0A0A0A" mask="url(#path-1-inside-1_1565_1650)"/>
<path d="M13.088 13.304C15.616 13.304 17.28 14.6 17.296 16.92H15.856C15.68 15.352 14.736 14.584 13.024 14.584C11.392 14.584 10.464 15.288 10.464 16.536C10.464 16.984 10.672 17.336 11.04 17.64C11.424 17.928 12.448 18.232 14.128 18.568C16.576 19.064 17.776 20.04 17.776 21.864C17.776 22.936 17.328 23.768 16.464 24.36C15.6 24.968 14.544 25.272 13.312 25.272C10.576 25.272 8.608 23.864 8.592 21.24H10.032C10.048 23 11.408 23.992 13.36 23.992C15.2 23.992 16.256 23.256 16.256 21.912C16.256 20.84 15.504 20.232 13.04 19.768C11.408 19.448 10.336 19.064 9.776 18.584C9.216 18.088 8.944 17.448 8.944 16.648C8.944 14.536 10.72 13.304 13.088 13.304ZM19.399 13.576H20.759V17.944H20.791C21.175 17.064 22.231 16.536 23.399 16.536C25.399 16.536 26.247 17.592 26.247 19.496V25H24.887V19.352C24.887 18.44 24.295 17.736 23.191 17.736C21.655 17.736 20.759 18.776 20.759 20.28V25H19.399V13.576ZM31.8576 16.536C34.4016 16.536 35.8736 18.344 35.8736 20.872C35.8736 23.432 34.2896 25.192 31.8576 25.192C29.4576 25.192 27.8416 23.512 27.8416 20.872C27.8416 18.232 29.3776 16.536 31.8576 16.536ZM29.2816 20.872C29.2816 22.744 30.3536 23.992 31.8576 23.992C33.3456 23.992 34.4336 22.744 34.4336 20.872C34.4336 19 33.3456 17.736 31.8416 17.736C30.4016 17.736 29.2816 18.952 29.2816 20.872ZM41.5571 16.536C43.9571 16.536 45.3651 18.344 45.3651 20.888C45.3651 23.416 43.9251 25.192 41.5891 25.192C40.5651 25.192 39.4931 24.776 38.9171 23.896H38.8851V28.168H37.5251V16.728H38.8851V17.848H38.9171C39.3491 17 40.2931 16.536 41.5571 16.536ZM38.8371 20.856C38.8371 22.76 39.7971 23.992 41.4451 23.992C43.0131 23.992 43.9251 22.808 43.9251 20.792C43.9251 19.048 42.9651 17.736 41.3491 17.736C39.7171 17.736 38.8371 19.048 38.8371 20.856ZM51.6226 13.576H53.2386L59.2546 22.84H59.2866V13.576H60.7266V25H59.0626L53.0946 15.832H53.0626V25H51.6226V13.576ZM66.5295 16.536C69.0735 16.536 70.5455 18.344 70.5455 20.872C70.5455 23.432 68.9615 25.192 66.5295 25.192C64.1295 25.192 62.5135 23.512 62.5135 20.872C62.5135 18.232 64.0495 16.536 66.5295 16.536ZM63.9535 20.872C63.9535 22.744 65.0255 23.992 66.5295 23.992C68.0175 23.992 69.1055 22.744 69.1055 20.872C69.1055 19 68.0175 17.736 66.5135 17.736C65.0735 17.736 63.9535 18.952 63.9535 20.872ZM71.397 16.728H72.901L74.773 23.496H74.805L76.469 16.728H77.957L79.701 23.496H79.717L81.573 16.728H82.981L80.357 24.984L80.341 25H78.901L77.205 18.424H77.189L75.525 25H74.053L71.397 16.728Z" fill="#202020"/>
</svg>
