<svg xmlns="http://www.w3.org/2000/svg" width="46" height="40" fill="none"><path fill="#F96302" d="M4.52 18.018a6.837 6.837 0 0 1 1.4-.156l.054.001V3.551H38.87l.003 5.76 3.216-.675.337-.07L42.423 0H2.42v18.458l2.1-.438v-.002ZM39.116 28.512l-.247.052v7.883H5.975v-2.633c-.294.1-.6.185-.923.251l-2.63.549V40h40.001V27.817l-3.307.695Z"/><path fill="#000" d="M16.6 10.546c-.228-1.095-.884-1.408-1.925-1.19l-2.413.506.012 6.685 2.432-.509c1.22-.255 1.83-1.01 1.965-2.472.083-.945.09-2.257-.07-3.02Zm-1.692 3.69c-.09.421-.258.56-.662.644l-.314.066-.003-4.176.323-.068c.368-.077.571-.045.666.404.066.314.074.846.076 1.613.005.786-.028 1.251-.086 1.517ZM20.407 8.158l-2.1.44-1.55 7.011 1.778-.372.16-1.204 1.33-.278.18 1.132 1.777-.372-1.574-6.358h-.001v.001Zm-1.51 4.52.455-2.933.018-.004.461 2.742-.934.194v.002ZM22.18 7.787l1.67-.35.012 6.686-1.67.348-.012-6.684ZM24.572 7.286l1.67-.35.006 5.263 2.055-.43.007 1.423-3.725.778-.013-6.684ZM27.373 6.7l1.83-.384.63 2.201.018-.004.626-2.464 1.831-.382-1.628 4.396.008 2.63-1.669.35-.007-2.631-1.639-3.713ZM4.856 19.415.046 20.42 0 33.705 4.811 32.7c3.83-.8 4.037-4.004 4.05-7.484.01-3.48-.174-6.602-4.005-5.8Zm.584 6.517c-.013 3.59-.175 4.183-1.457 4.45l-.659.14.029-8.3.658-.138c1.282-.268 1.442.257 1.43 3.848ZM13.113 25.5l3.956-.826.008-2.717-3.954.826.008-2.269 4.221-.883.01-2.828-7.536 1.574-.045 13.287 7.697-1.608.008-2.83-4.382.917.009-2.643ZM25.434 15.118l-4.17.87-3.145 13.934 3.528-.738.347-2.396 2.637-.552.33 2.255 3.528-.736-3.055-12.637Zm-3.04 8.983.928-5.828.036-.007.89 5.448-1.854.387ZM32.399 13.662l-3.315.693-.045 13.285 7.394-1.545.01-2.828-4.08.852.036-10.457ZM45.693 20.33c.016-4.855-5.404-2.44-5.395-5.064.001-.595.324-1.24 1.036-1.388.642-.134.942.454.94 1.236v.316l3.098-.648c.009-2.433-.885-3.509-2.947-3.393l-.005-1.42-3.557.748v1.86c-1.182.892-1.769 2.246-1.776 3.992-.015 4.708 5.19 2.319 5.182 4.942-.002.725-.396 1.366-1.073 1.507-.642.134-1.086-.182-1.082-1.318v-.316l-3.206.67v.466c-.008 1.846.679 2.753 1.957 2.979l.004 1.651 3.557-.747v-1.39c2.118-.778 3.257-2.289 3.264-4.68h.003v-.002Z"/></svg>