<svg width="180" height="87" xmlns="http://www.w3.org/2000/svg"><g fill-rule="nonzero" fill="none"><path d="M1.664 79.415H4.1c.19 0 .381-.027.572-.079a1.65 1.65 0 00.542-.255c.17-.123.308-.284.402-.47.108-.232.16-.486.148-.74a1.882 1.882 0 00-.131-.757 1.219 1.219 0 00-.36-.477 1.302 1.302 0 00-.519-.243 2.992 2.992 0 00-.626-.063H1.664v3.084zM0 75h4.192c.678 0 1.228.096 1.652.287.427.193.756.432.986.718.233.291.39.602.472.941.085.34.128.654.128.94 0 .287-.043.599-.128.935-.086.342-.247.66-.472.935-.233.284-.559.523-.984.71-.428.187-.98.28-1.652.28H1.662v3.579H0V75zm11.823 8.334a1.753 1.753 0 001.493-.758c.158-.228.275-.482.351-.764a3.353 3.353 0 000-1.73 2.284 2.284 0 00-.351-.764 1.753 1.753 0 00-1.491-.752 1.753 1.753 0 00-1.493.748 2.284 2.284 0 00-.353.768 3.38 3.38 0 000 1.728c.078.282.197.54.355.764.332.487.895.773 1.491.758l-.002.002zm.002 1.174c-.55 0-1.037-.092-1.472-.27a3.136 3.136 0 01-1.09-.74 3.084 3.084 0 01-.677-1.121 4.167 4.167 0 01-.233-1.437c0-.515.074-.989.233-1.425a3.09 3.09 0 011.77-1.86c.43-.18.918-.27 1.469-.27.55 0 1.042.09 1.474.27.43.178.791.423 1.09.739.296.311.523.685.678 1.121.156.436.232.91.232 1.425 0 .519-.076 1-.232 1.437-.155.436-.382.81-.678 1.121-.296.312-.66.561-1.09.74a3.833 3.833 0 01-1.474.27zm4.114-6.933h1.609l1.347 5.04h.025l1.291-5.042h1.533l1.239 5.04h.025l1.398-5.042h1.545l-2.16 6.75h-1.555l-1.277-5.014h-.028l-1.264 5.016H18.07l-2.13-6.75v.002zm15.712 2.783a2.374 2.374 0 00-.154-.68 1.694 1.694 0 00-.88-.96 1.858 1.858 0 00-1.424-.013c-.21.086-.4.213-.557.374a1.887 1.887 0 00-.525 1.277h3.542l-.002.002zm-3.542.976c0 .262.038.515.112.758.076.243.19.457.339.64.152.183.343.332.572.436.232.11.508.166.825.166.445 0 .805-.093 1.074-.282.287-.21.5-.505.605-.841h1.44a2.83 2.83 0 01-1.122 1.703 3.027 3.027 0 01-.923.444c-.339.104-.699.15-1.072.15a3.704 3.704 0 01-1.44-.26 2.941 2.941 0 01-1.708-1.854 4.438 4.438 0 01-.218-1.438c0-.477.076-.934.233-1.364.146-.417.372-.802.665-1.136a3.193 3.193 0 012.43-1.066 3.142 3.142 0 012.533 1.217c.283.366.49.786.618 1.261.127.474.163.966.1 1.468H28.11l-.002-.002zm6.216-3.759h1.427v1.305h.026c.05-.194.138-.376.26-.536a2.534 2.534 0 011.071-.823c.216-.086.446-.13.678-.13.178 0 .3.006.366.016l.206.025v1.437a8.809 8.809 0 00-.329-.048 2.909 2.909 0 00-.326-.02c-.25-.001-.496.05-.724.151-.23.102-.432.254-.593.445-.169.195-.302.436-.402.722a3.17 3.17 0 00-.144.993v3.215h-1.518v-6.75l.002-.002zm9.176 2.783a2.374 2.374 0 00-.152-.68 1.69 1.69 0 00-.879-.96 1.858 1.858 0 00-1.425-.013 1.668 1.668 0 00-.56.374 1.888 1.888 0 00-.53 1.277H43.5l.002.002zm-3.542.976c0 .262.043.515.115.758.076.243.19.457.338.64.153.183.343.332.572.436.233.11.508.166.826.166.444 0 .804-.093 1.073-.282.29-.21.503-.504.61-.841h1.44a2.83 2.83 0 01-1.122 1.703 3.015 3.015 0 01-.926.444c-.338.104-.698.15-1.069.15a3.704 3.704 0 01-1.44-.26 2.941 2.941 0 01-1.708-1.854 4.47 4.47 0 01.012-2.804c.148-.417.374-.802.667-1.136a3.177 3.177 0 011.042-.775c.409-.193.868-.29 1.385-.29a3.148 3.148 0 012.53 1.216c.286.366.493.785.622 1.261.127.474.161.966.1 1.468H39.959zm7.404-.311c0 .286.039.569.113.847.078.278.194.528.349.748.155.215.357.393.593.52.262.135.555.202.851.194.304.008.605-.063.872-.207a1.79 1.79 0 00.597-.549c.157-.228.271-.482.348-.764.074-.282.112-.573.112-.872 0-.748-.17-1.33-.515-1.745a1.7 1.7 0 00-1.39-.63 1.748 1.748 0 00-.9.217c-.241.14-.446.332-.6.56-.16.241-.272.509-.332.79-.067.293-.1.593-.1.893l.002-.002zm5.3 3.302h-1.436v-.914H51.2a1.785 1.785 0 01-.894.843c-.391.17-.804.254-1.238.254-.542 0-1.016-.092-1.419-.28a2.8 2.8 0 01-1.005-.765 3.249 3.249 0 01-.6-1.142 4.881 4.881 0 01-.199-1.417c0-.61.085-1.136.254-1.578.17-.446.394-.81.674-1.1.267-.28.595-.496.959-.634a3.101 3.101 0 011.1-.202 3.552 3.552 0 011.292.25c.204.087.392.199.566.332.173.137.317.295.432.478h.03v-3.448h1.517v9.325l-.006-.002zm10.69-3.369a3.36 3.36 0 00-.116-.889 2.409 2.409 0 00-.36-.764 1.85 1.85 0 00-.6-.536 1.656 1.656 0 00-.825-.201c-.64 0-1.122.218-1.446.652-.326.436-.487 1.018-.487 1.74 0 .341.042.655.127.948.084.29.211.54.38.747.336.44.867.692 1.426.68.306.009.609-.063.876-.208.236-.136.438-.32.593-.54.155-.22.265-.474.333-.756.063-.283.1-.571.1-.868v-.005zM58.06 75h1.518v3.448h.025c.107-.165.238-.314.388-.443a2.67 2.67 0 011.664-.615c.542 0 1.016.094 1.419.28a2.81 2.81 0 011.005.77c.267.327.466.71.602 1.142.13.436.199.903.199 1.401 0 .457-.06.893-.18 1.321-.11.406-.296.79-.547 1.13-.244.326-.56.594-.925.783-.373.195-.81.29-1.317.29-.233 0-.466-.012-.699-.04a2.698 2.698 0 01-.673-.177c-.21-.085-.405-.2-.58-.34a1.651 1.651 0 01-.432-.55H59.5v.93h-1.44V75zm7.332 2.575h1.664l1.8 5.04h.021l1.747-5.042h1.583l-2.676 7.118c-.127.303-.247.596-.368.872a3.11 3.11 0 01-.438.74 1.9 1.9 0 01-.648.51c-.259.125-.587.187-.987.187-.356 0-.705-.027-1.05-.079v-1.254c.123.02.243.037.36.062.119.021.24.03.36.029a1.25 1.25 0 00.436-.062.755.755 0 00.288-.191c.078-.089.142-.188.19-.295a2.38 2.38 0 00.149-.39l.173-.524-2.61-6.729.006.008zM76.072 75h7.696v1.412h-3.024v7.913H79.08v-7.913h-3.006V75h-.002zm8.587 0h1.518v3.462h.028c.186-.305.466-.56.832-.764.368-.208.779-.312 1.232-.312.754 0 1.349.193 1.783.578.436.382.652.955.652 1.723v4.638h-1.516v-4.243c-.021-.532-.133-.914-.347-1.157-.212-.239-.546-.36-1-.36a1.68 1.68 0 00-.692.138c-.2.087-.377.216-.52.378-.147.168-.26.36-.333.57a1.98 1.98 0 00-.12.689v3.987h-1.519V75h.002zm12.371 5.358a2.374 2.374 0 00-.152-.68 1.694 1.694 0 00-.879-.96 1.858 1.858 0 00-1.425-.013 1.668 1.668 0 00-.563.374c-.33.347-.517.802-.523 1.277h3.542v.002zm-3.542.976c0 .262.038.515.112.758.077.243.191.457.34.64.152.183.342.332.57.436.234.11.509.166.827.166.444 0 .804-.093 1.073-.282.288-.21.501-.505.608-.841h1.44a2.83 2.83 0 01-1.123 1.703 3.015 3.015 0 01-.925.444c-.339.104-.699.15-1.071.15a3.704 3.704 0 01-1.44-.26 2.941 2.941 0 01-1.709-1.854 4.47 4.47 0 01.013-2.804c.147-.417.373-.802.667-1.136a3.193 3.193 0 012.43-1.066 3.148 3.148 0 012.53 1.217c.284.366.492.785.621 1.261.127.474.161.966.1 1.468h-5.063zM103.581 75h1.664v3.71h4.328V75h1.664v9.325h-1.664v-4.206h-4.328v4.208h-1.664V75zm12.598 8.334a1.753 1.753 0 001.49-.758c.16-.228.276-.482.352-.764a3.353 3.353 0 000-1.73 2.284 2.284 0 00-.351-.764 1.753 1.753 0 00-1.491-.752 1.753 1.753 0 00-1.493.748 2.382 2.382 0 00-.353.768 3.41 3.41 0 000 1.728c.076.282.195.54.353.764.332.487.895.773 1.49.758l.003.002zm-.002 1.174c-.55 0-1.042-.092-1.474-.27a3.136 3.136 0 01-1.09-.74c-.3-.311-.53-.685-.682-1.121a4.218 4.218 0 01-.233-1.437c0-.515.076-.989.233-1.425.155-.436.381-.81.678-1.121.296-.316.662-.561 1.092-.74.432-.178.921-.27 1.472-.27.55 0 1.037.092 1.471.27.43.179.792.424 1.09.74.297.311.524.685.678 1.121.157.436.233.91.233 1.425 0 .519-.076 1-.233 1.437-.154.436-.381.81-.677 1.121-.297.312-.661.561-1.09.74a3.833 3.833 0 01-1.474.27h.006zm4.74-6.933h1.44v.939h.038c.112-.161.237-.314.373-.457a2.08 2.08 0 011.012-.581 2.89 2.89 0 01.735-.083c.415 0 .804.089 1.164.27.36.186.614.467.762.851a3.05 3.05 0 01.896-.822c.339-.202.758-.302 1.264-.302.728 0 1.292.177 1.698.526.402.349.604.934.604 1.749v4.664h-1.519v-3.946c0-.27-.008-.513-.025-.735a1.49 1.49 0 00-.155-.575.873.873 0 00-.38-.374 1.533 1.533 0 00-.69-.131c-.515 0-.89.158-1.119.471-.233.312-.35.756-.35 1.33v3.96h-1.517v-4.334c0-.472-.085-.827-.259-1.066-.173-.238-.49-.359-.952-.359-.4-.002-.78.164-1.046.457a1.707 1.707 0 00-.333.55c-.088.239-.13.49-.127.744v4.008h-1.518v-6.75l.004-.004zm16.312 2.783a2.374 2.374 0 00-.152-.68 1.694 1.694 0 00-.88-.96 1.858 1.858 0 00-1.424-.013c-.21.086-.4.213-.559.374a1.887 1.887 0 00-.525 1.277h3.54v.002zm-3.54.976c0 .262.036.515.112.758.074.243.19.457.339.64.152.183.339.332.572.436.232.11.508.166.825.166.445 0 .805-.093 1.074-.282.287-.21.5-.505.605-.841h1.44a2.83 2.83 0 01-1.122 1.703 3.027 3.027 0 01-.923.444c-.343.104-.699.15-1.072.15a3.704 3.704 0 01-1.44-.26 2.941 2.941 0 01-1.71-1.854 4.47 4.47 0 01.015-2.804c.146-.417.372-.802.665-1.136a3.193 3.193 0 012.43-1.066 3.148 3.148 0 012.532 1.217c.284.366.487.785.619 1.261.127.474.16.966.1 1.468h-5.061zm11.793 1.662h1.641c.648 0 1.18-.087 1.592-.256.41-.17.737-.405.974-.706.233-.3.392-.654.477-1.059.084-.403.127-.841.127-1.312 0-.47-.043-.908-.127-1.313a2.535 2.535 0 00-.479-1.06 2.33 2.33 0 00-.974-.705c-.41-.167-.942-.25-1.588-.25h-1.64v6.659l-.003.002zM143.82 75h3.942c.727 0 1.355.125 1.891.366.53.245.968.577 1.304.996.34.426.589.92.752 1.485.17.57.25 1.174.25 1.818 0 .643-.085 1.25-.248 1.817a4.226 4.226 0 01-.75 1.48c-.347.43-.794.772-1.304.998-.533.249-1.164.37-1.89.37h-3.943v-9.326L143.82 75zm14.129 5.358a2.374 2.374 0 00-.153-.68 1.69 1.69 0 00-.879-.96 1.858 1.858 0 00-1.424-.013c-.21.086-.401.213-.56.374a1.887 1.887 0 00-.524 1.277h3.542l-.002.002zm-3.543.976c0 .262.039.515.113.758.076.243.19.457.338.64.153.183.343.332.572.436.233.11.508.166.826.166.444 0 .804-.093 1.073-.282.289-.21.501-.505.608-.841h1.44a2.83 2.83 0 01-1.123 1.703 3.015 3.015 0 01-.925.444c-.339.104-.698.15-1.071.15a3.704 3.704 0 01-1.44-.26 2.941 2.941 0 01-1.71-1.854 4.437 4.437 0 01-.22-1.438c0-.477.078-.934.232-1.364.147-.417.374-.802.667-1.136a3.186 3.186 0 011.044-.775c.408-.193.868-.29 1.385-.29a3.148 3.148 0 012.53 1.216c.283.366.49.786.62 1.261.127.474.161.966.1 1.468h-5.06l.001-.002zm11.559-.378a3.45 3.45 0 00-.119-.889 2.409 2.409 0 00-.36-.764 1.85 1.85 0 00-.6-.536 1.656 1.656 0 00-.825-.201c-.64 0-1.122.218-1.446.652-.324.436-.487 1.018-.487 1.74 0 .341.042.655.127.948.085.29.212.54.381.747.335.44.866.692 1.425.68.307.01.61-.062.879-.208.235-.136.438-.32.593-.54.154-.22.264-.474.332-.756.064-.283.1-.571.1-.868v-.005zm-5.3-3.385h1.44v.914h.027c.212-.39.508-.669.89-.84.39-.171.813-.258 1.24-.255.54 0 1.012.096 1.419.283a2.82 2.82 0 011.003.768c.265.328.466.71.6 1.143.13.436.199.903.199 1.401 0 .457-.057.894-.178 1.321-.11.406-.296.79-.546 1.13-.245.326-.56.594-.926.783-.37.195-.808.29-1.312.29-.227 0-.445-.016-.67-.055-.22-.038-.434-.1-.639-.187a2.551 2.551 0 01-.565-.332 1.86 1.86 0 01-.434-.478h-.026v3.369h-1.518v-9.25l-.004-.005zm11.251 5.763a1.753 1.753 0 001.49-.758c.16-.228.276-.482.352-.764a3.353 3.353 0 000-1.73 2.284 2.284 0 00-.351-.764 1.753 1.753 0 00-1.49-.752 1.753 1.753 0 00-1.493.748 2.335 2.335 0 00-.352.768 3.41 3.41 0 000 1.728c.074.282.19.54.354.764.331.487.894.773 1.49.758v.002zm0 1.174c-.55 0-1.037-.092-1.47-.27a3.136 3.136 0 01-1.09-.74 3.084 3.084 0 01-.677-1.121 4.167 4.167 0 01-.233-1.437c0-.515.074-.989.233-1.425a3.09 3.09 0 011.77-1.86 3.79 3.79 0 011.47-.27c.55 0 1.041.09 1.47.27.433.178.795.423 1.093.739.297.311.523.685.678 1.121.157.436.233.91.233 1.425 0 .519-.076 1-.233 1.437-.155.436-.381.81-.678 1.121-.296.312-.662.561-1.092.74a3.833 3.833 0 01-1.472.27h-.002zm4.048-6.933h1.144v-2.027h1.52v2.025H180v1.11h-1.372v3.605c0 .155.006.29.021.405.01.112.043.207.091.286.052.081.13.143.22.177a1.1 1.1 0 00.403.058c.106 0 .211 0 .317-.006.106-.004.212-.021.318-.046v1.153l-.491.05a4.4 4.4 0 01-.494.024c-.398 0-.72-.037-.965-.11a1.297 1.297 0 01-.572-.332 1.107 1.107 0 01-.275-.54 3.976 3.976 0 01-.089-.743V78.68h-1.143v-1.11l-.005.005zM169.737 69.996V51.294h4.84V66.01h5.044v3.985h-9.884zm-9.833-6.954h2.708l-1.348-7.917h-.028l-1.332 7.913v.004zm-6.115 6.954l4.422-18.702h6.089l4.559 18.702h-5.183l-.495-3.255h-3.85l-.496 3.255H153.79zm-8.737-10.644h1.227c.334.003.664-.082.956-.245.274-.168.503-.4.669-.676.205-.316.308-.79.308-1.42 0-.566-.063-.995-.19-1.29-.1-.259-.271-.483-.495-.645a1.587 1.587 0 00-.681-.25c-.2-.026-.402-.04-.603-.043h-1.193v4.57h.002zm-4.866 10.644V51.294h7.891c.895.021 1.693.202 2.387.55.296.154.586.352.867.59.286.24.542.534.77.89.226.354.408.775.546 1.255a6.31 6.31 0 01.203 1.672c0 1.103-.165 1.95-.493 2.542-.328.598-.698 1.041-1.106 1.34a3.178 3.178 0 01-1.587.576v.05c.228 0 .465.035.702.103.212.052.438.128.677.235.24.11.466.26.677.456.269.248.502.64.698 1.167.203.53.305 1.212.305 2.048v5.226h-4.84v-5.429a8.644 8.644 0 00-.026-.584 2.337 2.337 0 00-.154-.687 1.408 1.408 0 00-.398-.563c-.182-.158-.444-.235-.793-.235h-1.486V70h-4.84v-.004zm-9.783-10.644h1.227a1.93 1.93 0 00.956-.245c.275-.168.506-.4.673-.676.203-.316.307-.79.307-1.42 0-.566-.064-.995-.19-1.29-.1-.259-.272-.483-.496-.645a1.585 1.585 0 00-.68-.25c-.2-.026-.402-.04-.604-.043h-1.193v4.57zm-4.866 10.644V51.294h7.891c.895.021 1.693.202 2.387.55.296.154.588.352.871.59.284.24.54.534.768.89.233.354.413.775.55 1.255.134.484.201 1.04.201 1.672 0 1.103-.165 1.95-.492 2.542-.328.598-.699 1.041-1.109 1.34a3.178 3.178 0 01-1.587.576v.05c.233 0 .466.035.705.103.211.052.438.128.677.235.239.11.465.26.681.456.264.248.497.64.698 1.167.199.53.3 1.212.3 2.048v5.226h-4.84v-5.429a9.053 9.053 0 00-.025-.584 2.363 2.363 0 00-.153-.687 1.418 1.418 0 00-.402-.563c-.18-.158-.444-.235-.793-.235h-1.485V70h-4.839l-.004-.004zm-12.376 0V51.294h10.076l.026 3.984h-5.26v3.178h4.84v3.803h-4.84v3.75h5.463v3.985h-10.303l-.002.002zm-12.093 0V51.294h10.102v3.984h-5.262v3.15h4.866v3.855h-4.866v7.713h-4.84zm-12.373 0V51.294h10.07l.028 3.984h-5.26v3.178h4.841v3.803h-4.84v3.75h5.462v3.985H88.693l.002.002zM78.91 59.352h1.227c.335.003.664-.082.957-.245.275-.168.506-.4.673-.676.205-.316.306-.79.306-1.42 0-.566-.063-.995-.19-1.29-.1-.258-.272-.483-.495-.645a1.587 1.587 0 00-.677-.25 5.087 5.087 0 00-.607-.043h-1.196v4.57h.002zm-4.866 10.644V51.294h7.892c.895.021 1.692.202 2.386.55.296.154.586.352.872.59.283.24.54.534.768.89.228.354.41.775.546 1.255.135.484.203 1.04.203 1.672 0 1.103-.163 1.95-.493 2.542-.33.598-.698 1.041-1.11 1.34a3.17 3.17 0 01-1.588.576v.05c.233 0 .466.035.705.103.211.052.44.128.677.235.241.11.465.26.681.456.265.248.497.64.698 1.167.2.53.3 1.212.3 2.048v5.226h-4.84v-5.429c0-.15-.008-.347-.025-.584a2.358 2.358 0 00-.153-.687 1.44 1.44 0 00-.402-.563c-.18-.158-.444-.235-.793-.235h-1.485V70h-4.84l.001-.004zM86.01 20.364h3.555a3.282 3.282 0 001.925-.734c.48-.341.93-.896 1.354-1.664.417-.764.628-1.86.628-3.285 0-1.535-.211-2.709-.634-3.52-.42-.805-.889-1.381-1.418-1.723a4.157 4.157 0 00-2.077-.733H86v11.66l.01-.001zM74.002 46.382V.064h18.406c2.412.043 4.555.561 6.425 1.553.821.422 1.619.981 2.397 1.68.777.696 1.464 1.553 2.063 2.567.599 1.013 1.083 2.222 1.45 3.626.368 1.407.55 3.04.55 4.9 0 1.908-.204 3.574-.614 4.999-.408 1.422-.952 2.645-1.638 3.662a11.06 11.06 0 01-2.284 2.532c-.811.649-1.689 1.209-2.618 1.67-2.058.998-4.421 1.497-7.087 1.497h-5.044v17.63H74l.002.002zm85.464-24.391c0 2.287.01 4.565.031 6.847.021 2.274.186 4.223.497 5.84.25 1.335.618 2.342 1.107 3.02.487.679 1.324 1.018 2.51 1.018 1.1 0 1.929-.423 2.49-1.274.56-.849.945-2.043 1.152-3.583.186-1.395.282-3.023.282-4.885v-.546a686.285 686.285 0 01-.032-6.861c0-1.698-.021-3.35-.064-4.949a46.317 46.317 0 00-.247-4.006 50.974 50.974 0 00-.281-1.653 5.426 5.426 0 00-.515-1.518 2.912 2.912 0 00-1.057-1.125c-.47-.292-1.088-.439-1.856-.439-.852 0-1.544.256-2.073.774-.53.517-.94 1.344-1.227 2.49-.296 1.143-.487 2.606-.578 4.387-.102 2.153-.15 4.308-.142 6.463h.003zm-12.373.06c0-4.458.381-8.101 1.153-10.934.768-2.837 1.862-5.076 3.288-6.732a10.857 10.857 0 015.27-3.404c2.084-.614 4.468-.921 7.151-.921 2.755 0 5.141.394 7.15 1.18 2.01.788 3.674 2.079 4.994 3.875 1.311 1.792 2.293 4.17 2.936 7.124.643 2.954.965 6.6.965 10.936 0 4.189-.254 7.751-.762 10.695-.507 2.943-1.4 5.343-2.676 7.203-1.274 1.862-3.004 3.216-5.192 4.065-2.187.853-4.94 1.28-8.257 1.28-3.28 0-5.962-.5-8.04-1.489a11.163 11.163 0 01-4.908-4.537c-1.193-2.033-2.003-4.57-2.429-7.615-.427-3.041-.638-6.616-.638-10.722l-.005-.004zm-24.471-2.07h3.05c.85 0 1.64-.2 2.366-.603.603-.337 1.157-.9 1.667-1.685.508-.78.761-1.956.761-3.524 0-1.399-.156-2.463-.471-3.195-.318-.725-.726-1.263-1.227-1.6a4.004 4.004 0 00-1.689-.622 12.744 12.744 0 00-1.495-.111h-2.962v11.345-.004zm-12.07 26.4V0h19.57c2.225.043 4.2.497 5.923 1.365.735.384 1.454.868 2.158 1.461a9.893 9.893 0 011.904 2.21c.572.88 1.02 1.92 1.354 3.114.339 1.195.508 2.581.508 4.147 0 2.73-.408 4.833-1.223 6.307-.816 1.472-1.734 2.58-2.75 3.32-1.164.826-2.475 1.302-3.935 1.43v.128c.571 0 1.153.085 1.745.256.53.124 1.092.32 1.684.584a6.385 6.385 0 011.684 1.13c.656.615 1.232 1.58 1.729 2.891.5 1.314.749 3.007.749 5.083v12.962h-12.004V32.912c0-.384-.021-.868-.064-1.461a5.799 5.799 0 00-.38-1.7c-.21-.541-.55-1.021-.989-1.397-.454-.393-1.112-.59-1.971-.59h-3.688v18.618h-12.004z" fill="#000"/><path fill="#F96302" d="M69 70H0V0h69v70z"/><path d="M57.03 59.719c1.047-.97 1.047-2.826 0-3.875-1.047-1.05-2.74-1.05-3.872 0-.962 1.049-.962 2.825 0 3.794 1.132 1.05 2.825 1.208 3.872.08zM39.142 36.027L58.881 54.15c2.016 2.014 1.936 5.246-.078 7.345-2.095 2.02-5.319 2.02-7.335-.08l-18.533-19.09L15.803 62.09c-1.128 1.212-3.142 1.212-4.35 0l-3.146-3.225c-1.21-1.131-1.21-3.15 0-4.362l18.908-18.07-6.69-6.459c-2.175-2.098-3.463-2.745-5.236-2.179-1.773.644-4.274.644-6.61-.89-4.996-3.229-4.675-9.285-4.675-9.285l.402-.644s4.513 2.904 5.078 3.23c.725.564 3.224 1.696 5.479-1.776 2.338-3.476.402-5.653-.241-6.058-.565-.322-5.078-3.307-5.078-3.307l.402-.648s5.24-2.665 10.155.241c0 .164 1.206.89 1.693 1.293 3.144 2.826 3.144 5.974 2.58 8.56-.486 2.34 0 3.148 1.852 5.165l6.692 6.703 7.975-8.157 5.804 5.974-7.659 7.832.004-.002zm26.192-10.9c.888.89.888 2.262 0 3.23l-4.352 4.441c-.889.89-2.258.89-3.224 0l-.967-1.05c-.728-.645-1.05-1.858-.646-2.424.724-.483.483-1.935-.888-3.228-1.934-2.018-4.432-2.098-5.395-1.05-.406.323-1.692 1.697-1.692 1.697l-5.966-5.893.966-.971s.244-.242.726-.806c1.853-1.858-.08-3.957-.08-3.957-5.239-5.168-12.573-5.087-12.573-5.087l-.079-1.857c14.746-3.794 20.306 2.664 22.32 4.684l4.274 4.278c1.045 1.05 0 4.036 1.53 5.732.725.727 1.692 1.049 2.417 1.049.804-.72 2.095-.481 2.74.246l.889.968v-.002z" fill="#FFF"/></g></svg>