<svg width="356" height="310" viewBox="0 0 356 310" fill="none" xmlns="http://www.w3.org/2000/svg">
<path d="M35.9323 139.642C39.7691 138.833 43.42 138.429 46.7758 138.429C46.9179 138.429 47.06 138.44 47.2021 138.44V27.524H302.143L302.165 72.1657L327.087 66.9298L329.7 66.3832L329.678 0H19.6562V143.052L35.9323 139.653V139.642Z" fill="#F96302"/>
<path d="M304.05 220.968L302.137 221.373V282.465H47.2068V262.057C44.9331 262.834 42.5611 263.489 40.058 264.003L19.6719 268.255V310H329.683V215.579L304.05 220.968Z" fill="#F96302"/>
<path d="M129.561 81.7303C127.79 73.2479 122.707 70.8212 114.64 72.5155L95.9375 76.4288L96.0359 128.241L114.881 124.295C124.336 122.317 129.069 116.469 130.107 105.133C130.752 97.8096 130.807 87.6439 129.561 81.7303ZM116.444 110.325C115.744 113.594 114.443 114.665 111.317 115.321L108.88 115.835L108.858 83.4683L111.361 82.9436C114.214 82.3424 115.788 82.5938 116.52 86.0698C117.034 88.5074 117.1 92.6284 117.111 98.5748C117.154 104.663 116.892 108.27 116.444 110.325Z" fill="black"/>
<path d="M159.052 63.2243L142.776 66.6347L130.773 120.972L144.546 118.086L145.792 108.751L156.089 106.598L157.488 115.376L171.261 112.49L159.063 63.2134H159.052V63.2243ZM147.356 98.2578L150.875 75.5216L151.017 75.4888L154.592 96.7384L147.356 98.2468V98.2578Z" fill="black"/>
<path d="M172.789 60.349L185.731 57.6382L185.83 109.451L172.887 112.15L172.789 60.349Z" fill="black"/>
<path d="M191.344 56.4692L204.286 53.7583L204.33 94.5414L220.256 91.2075L220.311 102.237L191.442 108.271L191.344 56.4692Z" fill="black"/>
<path d="M213.055 51.9218L227.243 48.9486L232.118 66.0117L232.26 65.9789L237.114 46.8827L251.302 43.9204L238.688 77.992L238.742 98.378L225.811 101.078L225.756 80.6919L213.055 51.9218Z" fill="black"/>
<path d="M38.5335 150.464L1.24823 158.247L0.898438 261.204L38.1837 253.422C67.8719 247.224 69.4678 222.389 69.5662 195.422C69.6537 168.456 68.2217 144.255 38.5335 150.464ZM43.0588 200.964C42.9605 228.794 41.7034 233.385 31.7672 235.462L26.6625 236.533L26.8811 172.216L31.9859 171.145C41.922 169.068 43.1572 173.134 43.0588 200.964Z" fill="black"/>
<path d="M102.522 197.62L133.183 191.214L133.249 170.161L102.598 176.567L102.664 158.979L135.38 152.136L135.457 130.22L77.0529 142.419L76.7031 245.388L136.353 232.926L136.419 210.999L102.456 218.104L102.522 197.62Z" fill="black"/>
<path d="M198.008 117.157L165.696 123.902L141.32 231.888L168.658 226.171L171.347 207.599L191.788 203.325L194.346 220.804L221.684 215.098L198.008 117.157ZM174.452 186.776L181.644 141.61L181.918 141.555L188.815 183.781L174.452 186.776Z" fill="black"/>
<path d="M251.99 105.877L226.303 111.244L225.953 214.202L283.253 202.233L283.329 180.316L251.706 186.919L251.99 105.877Z" fill="black"/>
<path d="M355.016 157.558C355.147 119.923 313.139 138.637 313.205 118.305C313.216 113.692 315.719 108.697 321.239 107.549C326.213 106.511 328.541 111.069 328.519 117.125V119.573L352.534 114.556C352.6 95.7002 345.67 87.3599 329.689 88.2562L329.656 77.2598L302.088 83.0531V97.46C292.928 104.379 288.381 114.873 288.326 128.405C288.206 164.893 328.552 146.376 328.486 166.707C328.465 172.326 325.415 177.288 320.168 178.381C315.194 179.42 311.751 176.971 311.784 168.172V165.723L286.938 170.916V174.523C286.873 188.831 292.196 195.86 302.099 197.609L302.132 210.409L329.7 204.615V193.849C346.118 187.815 354.939 176.108 354.994 157.569H355.016V157.558Z" fill="black"/>
</svg>
