<?xml version="1.0" encoding="UTF-8"?>
<svg xmlns="http://www.w3.org/2000/svg" xmlns:xlink="http://www.w3.org/1999/xlink" version="1.1" viewBox="0 0 80 32">
  <defs>
    <style>
      .cls-1 {
        mask: url(#mask);
      }

      .cls-2 {
        fill: #fff;
      }
    </style>
    <mask id="mask" x="0" y=".5" width="80" height="33" maskUnits="userSpaceOnUse">
      <g id="path-1-inside-1_5551_3688">
        <path class="cls-2" d="M0,.5h80v31H0V.5Z"/>
      </g>
    </mask>
  </defs>
  <!-- Generator: Adobe Illustrator 28.7.1, SVG Export Plug-In . SVG Version: 1.2.0 Build 142)  -->
  <g>
    <g id="Layer_1">
      <g class="cls-1">
        <path class="cls-2" d="M80,29.5H0v4h80v-4Z"/>
      </g>
      <path class="cls-2" d="M7.1,7.8c2.5,0,4.2,1.3,4.2,3.6h-1.4c-.2-1.6-1.1-2.3-2.8-2.3s-2.6.7-2.6,2,.2.8.6,1.1c.4.3,1.4.6,3.1.9,2.4.5,3.6,1.5,3.6,3.3s-.4,1.9-1.3,2.5c-.9.6-1.9.9-3.2.9-2.7,0-4.7-1.4-4.7-4h1.4c0,1.8,1.4,2.8,3.3,2.8s2.9-.7,2.9-2.1-.8-1.7-3.2-2.1c-1.6-.3-2.7-.7-3.3-1.2-.6-.5-.8-1.1-.8-1.9,0-2.1,1.8-3.3,4.1-3.3ZM13.4,8.1h1.4v4.4h0c.4-.9,1.4-1.4,2.6-1.4,2,0,2.8,1.1,2.8,3v5.5h-1.4v-5.6c0-.9-.6-1.6-1.7-1.6s-2.4,1-2.4,2.5v4.7h-1.4v-11.4ZM25.9,11c2.5,0,4,1.8,4,4.3s-1.6,4.3-4,4.3-4-1.7-4-4.3,1.5-4.3,4-4.3ZM23.3,15.4c0,1.9,1.1,3.1,2.6,3.1s2.6-1.2,2.6-3.1-1.1-3.1-2.6-3.1-2.6,1.2-2.6,3.1ZM35.6,11c2.4,0,3.8,1.8,3.8,4.4s-1.4,4.3-3.8,4.3-2.1-.4-2.7-1.3h0v4.3h-1.4v-11.4h1.4v1.1h0c.4-.8,1.4-1.3,2.6-1.3ZM32.8,15.4c0,1.9,1,3.1,2.6,3.1s2.5-1.2,2.5-3.2-1-3.1-2.6-3.1-2.5,1.3-2.5,3.1ZM45.6,8.1h1.6l6,9.3h0v-9.3h1.4v11.4h-1.7l-6-9.2h0v9.2h-1.4v-11.4ZM60.5,11c2.5,0,4,1.8,4,4.3s-1.6,4.3-4,4.3-4-1.7-4-4.3,1.5-4.3,4-4.3ZM58,15.4c0,1.9,1.1,3.1,2.6,3.1s2.6-1.2,2.6-3.1-1.1-3.1-2.6-3.1-2.6,1.2-2.6,3.1ZM65.4,11.2h1.5l1.9,6.8h0l1.7-6.8h1.5l1.7,6.8h0l1.9-6.8h1.4l-2.6,8.3h0s-1.4,0-1.4,0l-1.7-6.6h0l-1.7,6.6h-1.5l-2.7-8.3Z"/>
    </g>
  </g>
</svg>