<svg width="33" height="33" viewBox="0 0 33 33" fill="none" xmlns="http://www.w3.org/2000/svg">
<path d="M32.3333 4.5509L16.3333 0.247559L0.333313 4.5509V9.20077H3.33331V6.85064L16.3333 3.35417L29.3333 6.85064V9.20077H32.3333V4.5509Z" fill="#121111"/>
<path d="M8.49998 10.2008C7.93182 10.2008 7.41243 10.5218 7.15834 11.03L5.64488 14.0569L1.8846 12.8035L0.935919 15.6495L3.78269 16.5984L0.333313 18.898V32.2008H10.3333V28.2008H22.3333V32.2008H32.3333V18.898L28.8839 16.5984L31.7307 15.6495L30.782 12.8035L27.0217 14.0569L25.5083 11.03C25.2542 10.5218 24.7348 10.2008 24.1666 10.2008H8.49998ZM6.99681 18.0613L9.42703 13.2008H23.2396L25.6698 18.0613L26.7015 18.7491L23.0436 19.5619L23.6944 22.4905L29.3333 21.2374V29.2008H25.3333V25.2008H7.33331V29.2008H3.33331V21.2374L8.97219 22.4905L9.62299 19.5619L5.96509 18.7491L6.99681 18.0613Z" fill="#121111"/>
</svg>
