<svg version="1.1" id="Layer_1" xmlns="http://www.w3.org/2000/svg" x="0" y="0" viewBox="0 0 71.81 69.35" style="enable-background:new 0 0 71.81 69.35" xml:space="preserve"><style>.st1{fill:#fff}</style><path style="fill:#454547" d="m64.59 62.35-28.97 6.71-28.79-6.71L.31.34H71.5z"/><path class="st1" d="M14.72 32.76v.61c0 1.32.37 2.32 1.78 2.32 1.44 0 1.85-1.07 1.85-2.07 0-3.76-7.49-1.66-7.49-8.18 0-2.78 1.49-5.12 5.71-5.12 4.1 0 5.56 2.07 5.56 4.76v.42h-3.95c0-.83-.1-1.44-.34-1.83-.24-.42-.63-.61-1.24-.61-1.03 0-1.64.61-1.64 1.88 0 3.64 7.49 1.81 7.49 7.96 0 3.95-2.2 5.54-5.96 5.54-2.98 0-5.73-.9-5.73-4.54v-1.12h3.96zM27.66 20.65h5.13l4.34 17.43h-4.25l-.63-3.32h-4.17l-.61 3.32h-4.25l4.44-17.43zm2.49 3.17h-.05l-1.44 7.76h2.98l-1.49-7.76zM35.69 20.65h4.39l2.07 13.47h.05l2.1-13.47h4.39l-3.95 17.43h-5.22l-3.83-17.43zM50.03 20.65h10.08v3.32h-5.98v3.49h5.61v3.32h-5.61v3.98h6.25v3.32H50.03V20.65z"/><g><path class="st1" d="M10.75 42.33H16l1.88 9.99h.04l1.81-9.99h5.18v15.21h-3.32V45.69h-.04l-2.32 11.85h-2.77l-2.45-11.85h-.04v11.85h-3.2V42.33zM32.24 57.84c-4.71 0-5.35-3.07-5.35-7.91s.64-7.9 5.35-7.9c5.07 0 5.35 3.69 5.35 7.9 0 4.22-.28 7.91-5.35 7.91zm-.02-2.39c1.45 0 1.66-1.34 1.66-5.52s-.21-5.52-1.66-5.52c-1.41 0-1.62 1.34-1.62 5.52s.21 5.52 1.62 5.52zM39.47 42.33h6.01c3.05 0 4.09 1.88 4.09 3.96 0 2.22-.9 3.3-2.56 3.71v.04c2.28.32 2.41 1.75 2.45 3.79.06 3 .17 3.3.68 3.52v.19h-3.86c-.28-.51-.38-1.36-.38-3.09 0-2.64-.36-3.2-1.49-3.2h-1.36v6.29h-3.58V42.33zm3.58 6.41h1.11c1.45 0 1.83-1.09 1.83-1.98 0-1.15-.43-1.92-1.85-1.92h-1.09v3.9zM51.71 42.33h8.8v2.9h-5.22v3.05h4.9v2.9h-4.9v3.47h5.45v2.9h-9.03V42.33z"/></g><path style="fill:#f96302" d="M69.74 16.19H1.97L.31.34H71.5z"/><g><path class="st1" d="M6.38 3.7h3.63c1.7 0 2.82.79 2.82 2.45 0 1.15-.61 2.06-1.56 2.24v.03c.74.11 1.83.43 1.83 2.46 0 1.17-.51 2.75-3.28 2.75H6.38V3.7zm2.34 3.96h.64c.81 0 1.14-.46 1.14-1.17 0-.51-.28-1.07-1.13-1.07h-.65v2.24zm0 4.24h.71c.95 0 1.26-.6 1.26-1.29 0-.97-.5-1.39-1.22-1.39h-.75v2.68zM20.77 10.34c0 1.95-.56 3.47-3.27 3.47s-3.26-1.53-3.26-3.47V3.7h2.33v7.32c0 .78.31 1.24.93 1.24.63 0 .93-.46.93-1.24V3.7h2.33v6.64zM23.92 9.72 21.41 3.7h2.58l1.11 3.68h.03l1.14-3.68h2.5l-2.51 6.02v3.9h-2.33v-3.9zM32.41 3.7h3.42l1.22 6.52h.03l1.18-6.52h3.38v9.92h-2.17V5.89h-.03l-1.51 7.72h-1.81l-1.6-7.72h-.03v7.72h-2.08V3.7zM46.42 13.81c-3.07 0-3.49-2-3.49-5.15s.42-5.15 3.49-5.15c3.31 0 3.49 2.4 3.49 5.15-.01 2.75-.19 5.15-3.49 5.15zm-.02-1.55c.94 0 1.08-.88 1.08-3.6s-.14-3.6-1.08-3.6c-.92 0-1.06.88-1.06 3.6s.15 3.6 1.06 3.6zM51.13 3.7h3.92c1.99 0 2.67 1.22 2.67 2.58 0 1.44-.58 2.15-1.67 2.42v.03c1.49.21 1.57 1.14 1.6 2.47.04 1.96.11 2.15.44 2.29v.13h-2.51c-.18-.33-.25-.89-.25-2.01 0-1.72-.24-2.08-.97-2.08h-.89v4.1h-2.33V3.7zm2.33 4.18h.72c.94 0 1.19-.71 1.19-1.29 0-.75-.28-1.25-1.21-1.25h-.71v2.54zM59.11 3.7h5.74v1.89h-3.4v1.99h3.2v1.89h-3.2v2.26H65v1.89h-5.89V3.7z"/></g></svg>