<svg width="278" height="137" xmlns="http://www.w3.org/2000/svg"><g fill="none" fill-rule="evenodd"><path fill="#231F20" d="M0 .0004l1.369 13.376h275.094l1.405-13.376zM8.8659 87.889l130.049 49.032 130.049-49.032z"/><path fill="#FFF100" d="M1.3662 13.3788l1.289 12.803 6.211 61.707h260.098l7.5-74.51h-.036z"/><g fill="#231F20"><path d="M33.5532 38.4985c-.403-.798-1.06-1.197-1.967-1.197-.705 0-1.268.2-1.688.598-.421.4-.741 1.107-.958 2.121-.219 1.017-.363 2.386-.429 4.108-.067 1.723-.102 3.89-.102 6.501s.035 4.779.102 6.502c.066 1.722.21 3.092.429 4.106.217 1.017.537 1.724.958 2.122.42.4.983.599 1.688.599.571 0 1.041-.154 1.412-.462.368-.309.654-.825.857-1.551.202-.725.344-1.695.429-2.91.083-1.216.126-2.748.126-4.598h9.074v2.884c0 2.719-.337 4.95-1.009 6.692-.672 1.74-1.562 3.11-2.672 4.107-1.108.997-2.377 1.669-3.805 2.013-1.43.344-2.899.516-4.412.516-2.621 0-4.773-.344-6.452-1.033-1.682-.689-2.993-1.841-3.933-3.455-.941-1.613-1.588-3.699-1.94-6.256-.353-2.557-.529-5.648-.529-9.276 0-3.699.209-6.835.63-9.411.419-2.575 1.134-4.66 2.141-6.256 1.009-1.596 2.336-2.748 3.983-3.455 1.647-.708 3.681-1.061 6.1-1.061 2.117 0 3.916.291 5.395.87 1.478.581 2.68 1.406 3.604 2.476.924 1.07 1.596 2.358 2.017 3.862.42 1.506.63 3.201.63 5.087v2.448h-9.075v-2.176c0-2.212-.201-3.717-.604-4.515M56.2368 31.2084v30.574h11.545v8.269h-20.92v-38.843zM91.5274 31.2084v8.269h-11.949v6.637h11.193v7.943h-11.193v7.725h12.403v8.269h-21.778v-38.843zM107.1548 39.1508l-2.571 16.484h5.243l-2.571-16.484h-.101zm5.948-7.942l8.772 38.842h-9.981l-.959-6.799h-7.461l-.956 6.799h-9.832l8.62-38.842h11.797zM134.6802 47.6376c1.345 0 2.336-.426 2.974-1.279.638-.851.958-1.967.958-3.345 0-1.633-.31-2.793-.932-3.482-.622-.688-1.639-1.033-3.051-1.033h-1.815v9.139h1.866zm3.428-16.429c1.78 0 3.302.254 4.562.761 1.262.508 2.285 1.224 3.075 2.149s1.362 2.022 1.716 3.291c.352 1.27.529 2.648.529 4.135 0 2.612-.488 4.715-1.463 6.311-.974 1.596-2.538 2.575-4.688 2.938v.108c2.251.217 3.797 1.07 4.637 2.557.841 1.487 1.261 3.536 1.261 6.147v4.897c0 .544.018 1.061.05 1.55.035.49.083.935.152 1.333.067.399.152.707.252.924.134.218.269.428.403.627.133.2.354.39.656.571v.544h-9.982c-.236-.508-.413-1.106-.53-1.795-.118-.689-.201-1.379-.251-2.068-.051-.688-.085-1.35-.102-1.985-.016-.634-.024-1.151-.024-1.551v-2.612c0-1.088-.051-1.994-.152-2.719-.101-.725-.278-1.297-.529-1.714-.253-.417-.571-.707-.958-.87-.387-.163-.865-.245-1.437-.245h-2.471v15.559h-9.376v-38.843h14.67zM164.1221 39.1508l-2.571 16.484h5.243l-2.571-16.484h-.101zm5.948-7.942l8.772 38.842h-9.982l-.958-6.799h-7.461l-.957 6.799h-9.831l8.62-38.842h11.797zM190.8916 31.2084l6.049 23.937h.101v-23.937h8.772v38.843h-10.285l-6.25-23.991h-.101v23.991h-8.772v-38.843zM224.0108 38.4985c-.403-.798-1.058-1.197-1.965-1.197-.705 0-1.268.2-1.69.598-.419.4-.739 1.107-.956 2.121-.221 1.017-.363 2.386-.43 4.108-.068 1.723-.101 3.89-.101 6.501s.033 4.779.101 6.502c.067 1.722.209 3.092.43 4.106.217 1.017.537 1.724.956 2.122.422.4.985.599 1.69.599.571 0 1.041-.154 1.412-.462.368-.309.654-.825.857-1.551.2-.725.344-1.695.427-2.91.083-1.216.127-2.748.127-4.598h9.075v2.884c0 2.719-.337 4.95-1.009 6.692-.673 1.74-1.562 3.11-2.672 4.107-1.108.997-2.378 1.669-3.807 2.013-1.428.344-2.897.516-4.41.516-2.622 0-4.773-.344-6.452-1.033-1.682-.689-2.993-1.841-3.933-3.455-.942-1.613-1.588-3.699-1.941-6.256-.354-2.557-.53-5.648-.53-9.276 0-3.699.21-6.835.63-9.411.421-2.575 1.134-4.66 2.143-6.256s2.336-2.748 3.983-3.455c1.645-.708 3.679-1.061 6.1-1.061 2.117 0 3.914.291 5.395.87 1.477.581 2.678 1.406 3.604 2.476.924 1.07 1.596 2.358 2.015 3.862.42 1.506.631 3.201.631 5.087v2.448h-9.075v-2.176c0-2.212-.2-3.717-.605-4.515M258.6451 31.2084v8.269h-11.949v6.637h11.193v7.943h-11.193v7.725h12.403v8.269h-21.779v-38.843z"/></g></g></svg> 
